<svg xmlns="http://www.w3.org/2000/svg" width="545.5" height="440.278"><path fill="none" stroke="#E04A45" stroke-width="2" stroke-miterlimit="10" d="M200.736 109.45c19.329-126.877 358.646-161.82 340.487 42.36-6.901 77.535-116.454 104.496-194.999 97.412-4.257 5.406-9.455 10.898-12.303 14.291-9.826 11.697-19.382 23.725-27.771 36.166-4.422-19.066.64-37.891 4.558-56.609-47.33-13.139-121.806-55.909-109.972-133.62z"/><path fill="none" stroke="#E04A45" stroke-miterlimit="10" d="M255.607 137.633C241.44 44.602-7.366 18.981 5.954 168.687c5.051 56.855 85.387 76.627 142.978 71.43 3.117 3.969 6.929 7.99 9.023 10.477 7.204 8.578 14.21 17.395 20.359 26.523 3.23-13.984-.47-27.781-3.342-41.512 34.702-9.627 89.31-40.988 80.635-97.972z"/><path fill="none" stroke="#E04A45" stroke-width="4" stroke-miterlimit="10" d="M101.604 239.257c19.635-128.937 364.469-164.446 346.008 43.041-7 78.799-118.343 106.201-198.161 98.998-4.319 5.502-9.602 11.074-12.506 14.52-9.983 11.889-19.693 24.109-28.216 36.76-4.478-19.381.65-38.502 4.631-57.531-48.093-13.344-123.778-56.811-111.756-135.788z"/></svg>