<svg xmlns="http://www.w3.org/2000/svg" width="25.001" height="28"><path fill="#FFF" d="M22.985 2.998h-.981v-.992a2.007 2.007 0 0 0-4.012 0v.992H7.012v-.992a2.005 2.005 0 0 0-4.009 0v.992H1.994A2.014 2.014 0 0 0 0 5.006v22.485c0 .28.229.509.507.509h23.989a.51.51 0 0 0 .506-.509V5.006a2.018 2.018 0 0 0-2.017-2.008M12.002 14.983H7.016v-4.975h4.986v4.975zm5.99 0h-4.976v-4.975h4.976v4.975zm5.996 0h-4.982v-4.975h4.982v4.975zm-17.987 0H1.015v-4.975h4.986v4.975zm-4.986 1.015h4.986v4.985H1.015v-4.985zm6.002 0h4.986v4.985H7.017v-4.985zm5.998 0h4.976v4.985h-4.976v-4.985zm5.99 0h4.982v4.985h-4.982v-4.985zm0-13.992a.99.99 0 0 1 1.979 0v3a.99.99 0 1 1-1.979 0v-3zm-14.989 0a.99.99 0 1 1 1.98 0v3a.99.99 0 1 1-1.98 0v-3zm-3.001 3c0-.544.443-.989 1.004-.994h.984v.994c0 1.105.897 2.005 2.004 2.005a2.007 2.007 0 0 0 2.005-2.005v-.994h10.98v.994a2.007 2.007 0 0 0 4.012 0v-.994h.998c.545.005.986.45.986.994v3.989H1.015V5.006zm0 16.993h4.986v4.984H1.015v-4.984zm6.002 0h4.986v4.984H7.017v-4.984zm5.998 0h4.976v4.984h-4.976v-4.984zm10.973 4.984h-4.982v-4.984h4.982v4.984z"/></svg>