<svg xmlns="http://www.w3.org/2000/svg" width="400" height="400"><g transform="translate(-4086.553 -2988.631) scale(.2951)" fill-rule="evenodd"><rect width="1355.47" height="1355.47" rx="116.97" ry="116.97" x="13848" y="10127.5"/><path d="M14296.49 10455.472h114.205v673.428h-130.25v-500.706c-11.326 11.642-23.596 21.709-36.809 30.203-13.214 8.495-27.686 15.574-43.417 21.237v-120.812c23.281-13.213 43.023-28.472 59.226-45.776 16.202-17.303 28.551-36.494 37.045-57.574zm354.836 453.986v64.653c-.001 34.293 2.674 56.709 8.022 67.248 5.348 10.54 14.944 15.81 28.787 15.81 13.528 0 22.967-5.899 28.315-17.697 5.349-11.798 8.023-33.585 8.023-65.361v-64.653c0-33.978-2.596-56.158-7.787-66.54-5.191-10.382-14.708-15.574-28.551-15.574-13.843 0-23.439 5.585-28.787 16.753-5.348 11.169-8.023 32.956-8.022 65.361zm2.831-299.668v33.978c0 34.922 2.438 57.496 7.315 67.72 4.876 10.225 13.764 15.338 26.663 15.337 12.27.001 20.764-5.584 25.484-16.753 4.719-11.168 7.078-33.27 7.079-66.304v-33.978c0-33.663-2.439-55.922-7.315-66.777-4.877-10.854-13.607-16.281-26.192-16.281-12.27 0-20.843 5.663-25.719 16.989-4.877 11.327-7.315 33.349-7.315 66.069zm-42.473 164.227c-28.315-8.179-50.574-23.359-66.776-45.54-16.203-22.18-24.304-48.843-24.304-79.99v-38.697c0-58.203 13.135-100.283 39.405-126.239 26.27-25.955 68.979-38.932 128.126-38.933 58.833 0 101.227 12.9 127.182 38.697 25.956 25.799 38.933 67.957 38.934 126.475v38.697c0 31.147-7.945 57.889-23.832 80.226-15.888 22.338-37.99 37.439-66.305 45.304 30.517 8.81 53.799 25.012 69.844 48.608 16.045 23.596 24.068 53.484 24.068 89.665v62.765c0 58.203-13.529 100.361-40.585 126.474-27.057 26.113-70.473 39.169-130.25 39.169-60.091 0-103.35-12.899-129.777-38.697-26.428-25.798-39.642-68.114-39.641-126.946v-62.765c-.001-36.495 7.943-66.462 23.831-89.901 15.888-23.438 39.248-39.562 70.08-48.372z" font-size="966.49" font-weight="400" fill="#fff" font-family="Zurich BdXCn BT"/></g></svg>