<svg xmlns="http://www.w3.org/2000/svg" width="472" height="472" viewBox="0 0 354 354"><path fill="none" d="M0 0h354v354H0V0z"/><path fill="#00af51" d="M24.04 1.33C28.26.34 32.63.68 36.92.69c93.01-.05 186.02 0 279.02-.02 5.2.14 10.54-.57 15.59 1.04 9.65 2.74 17.85 10.59 20.57 20.31 1.86 5.48 1.17 11.35 1.23 17.03-.02 94.63.03 189.27 0 283.91.66 13.77-9.92 26.68-23.17 29.74-5.31 1.21-10.78.4-16.16.64-94.97-.05-189.93.03-284.9-.04-15.58-.29-29.17-14.7-28.47-30.27.1-97.98-.01-195.96.03-293.94C1.12 16 11.23 4.03 24.04 1.33z" font-size="115.2"/><path d="M-4.11 225.16c-15.55 39.552-99.034 114.525-139.537 126.09-40.503 11.567-164.368-24.304-190.113-57.075-25.745-32.77-50.261-156.717-37.668-196.238 12.593-39.521 105.96-128.586 145.695-138.235 39.735-9.649 166.588 28.786 194.24 59.119C-3.841 49.153 11.442 185.608-4.11 225.16z" stroke="#e5a795" stroke-width=".246" stroke-miterlimit="60" stroke-opacity=".114" fill="none"/><path d="M-64.104 337.355v-38.3H.59l.03 14.025c.031 13.94.033 14.032.251 15.225.949 5.187 2.778 9.295 5.995 13.46 1.063 1.378 3.708 4.058 5.077 5.146 2.337 1.858 5.652 3.757 8.185 4.69 2.35.866 4.921 1.446 7.298 1.646.895.075 18.278.108 57.725.108h56.444v22.3h-205.7v-38.3zM263.994 364.5v-11.156l30.975.013c33.447.014 31.817.037 34.575-.492 3.753-.72 7.892-2.574 11.3-5.059 6.002-4.377 10.342-10.868 11.894-17.786.624-2.781.592-1.928.629-17.09l.033-13.875h116.294v76.6h-205.7V364.5z" fill="none" stroke="#e5a795" stroke-width=".03" stroke-miterlimit="60" stroke-opacity=".114"/><path d="M128.927 98.963c14.42-.25 28.86-.04 43.29-.09.38 42.24.11 84.5.13 126.74 23.22.12 46.44-.18 69.65.15.29 10.04.12 20.1.08 30.15-37.72.14-75.44.03-113.16.04-.07-52.33-.09-104.66.01-156.99z" fill="#fff"/></svg>