<svg xmlns="http://www.w3.org/2000/svg" width="400" height="400"><g transform="translate(-2143.758 -2988.631) scale(.2951)" fill-rule="evenodd"><rect width="1355.47" height="1355.47" rx="116.97" ry="116.97" x="7264.5" y="10127.5" fill="#0cf"/><path d="M7731.46 10475.171h114.205v673.429h-130.25v-500.706c-11.326 11.641-23.596 21.708-36.81 30.202-13.213 8.495-27.685 15.574-43.416 21.237v-120.811c23.281-13.214 43.023-28.472 59.226-45.777 16.202-17.303 28.55-36.494 37.046-57.574zm561.496 204.813v263.803c0 81.799-12.506 138.351-37.517 169.655-25.012 31.304-69.137 46.956-132.374 46.956-63.866 0-108.226-15.574-133.08-46.72-24.855-31.147-37.282-87.777-37.282-169.891v-263.803c0-82.113 12.427-138.586 37.281-169.419 24.855-30.831 69.215-46.247 133.081-46.248 63.552 0 107.755 15.417 132.61 46.248 24.854 30.833 37.28 87.306 37.281 169.419zm-136.384-50.495c0-33.663-2.439-55.922-7.315-66.777-4.877-10.853-13.607-16.28-26.192-16.281-12.584 0-21.393 5.9-26.427 17.697-5.034 11.799-7.55 33.585-7.55 65.361v364.321c0 34.922 2.437 57.496 7.314 67.721 4.876 10.225 13.764 15.337 26.663 15.337 12.27 0 20.922-5.742 25.956-17.225 5.034-11.483 7.55-33.428 7.55-65.833z" font-size="966.49" font-weight="400" fill="#fff" font-family="Zurich BdXCn BT"/></g></svg>