<svg xmlns="http://www.w3.org/2000/svg" width="400" height="400"><g transform="translate(-2641.304 -2988.631) scale(.2951)" fill-rule="evenodd"><rect width="1355.47" height="1355.47" rx="116.97" ry="116.97" x="8950.52" y="10127.5" fill="#fc0"/><path d="M9402.131 10473.972h114.204v673.428h-130.25v-500.706c-11.325 11.642-23.595 21.709-36.809 30.203-13.214 8.495-27.686 15.574-43.416 21.237v-120.812c23.28-13.213 43.023-28.472 59.225-45.776 16.203-17.303 28.551-36.494 37.046-57.574zm559.608 171.779v9.91c0 31.147-4.562 60.17-13.686 87.069-9.124 26.9-24.54 55.765-46.248 86.597l-151.958 215.667h223.218v102.406h-361.018v-125.53l157.149-229.353c18.247-26.112 32.169-50.888 41.765-74.327 9.595-23.438 14.393-44.281 14.393-62.529v-27.371c0-33.663-2.438-55.922-7.314-66.777-4.877-10.854-13.765-16.281-26.664-16.281-11.955 0-20.371 5.663-25.247 16.989-4.877 11.327-7.315 33.349-7.315 66.069v27.371h-136.385v-9.91c0-68.9 12.427-116.564 37.282-142.992 24.854-26.427 69.214-39.64 133.081-39.641 63.551 0 107.597 13.057 132.137 39.169 24.54 26.114 36.81 73.935 36.81 143.464z" font-size="966.49" font-weight="400" fill="#fff" font-family="Zurich BdXCn BT"/></g></svg>