<svg xmlns="http://www.w3.org/2000/svg" width="280.75" height="255.5"><path fill="#E04A45" d="M258.183 56.039c-9.205 2.193-17.254 1.156-26.115 3.271-10.756 2.564-20.658 7.109-31.879 9.082-16 2.795-32.457 3.416-48.279 7.855-18.445 5.168-37.023 6.387-56.117 8.668-16.798 2.004-33.286 10.143-49.47 10.485-15.994.35-8.447 8.484-.234 16.354 33.908 32.524 64.311 68.545 99.666 99.44 14.402-23.141 31.863-44.137 47.836-66.477 5.26-7.355 10.137-14.94 15.734-22.071 7.332-9.355 12.861-19.809 20.637-28.963 6.768-7.949 12.643-16.496 19.096-24.641 3.326-4.205 5.039-9.094 8.312-12.99"/><path fill="none" stroke="#E54A25" stroke-miterlimit="10" d="M5.728 144.846c1.779 1.506 2.973 3.525 4.684 4.971 2.08 1.756 4.266 2.846 6.342 4.85 2.973 2.852 5.744 6.334 8.885 8.758 3.66 2.822 6.854 6.623 10.264 10.289 3 3.215 6.707 4.898 9.402 8.385 2.66 3.439 2.426-.172 2.057-3.869-1.545-15.266-2.082-30.6-4.064-45.795-5.215 2.371-10.668 3.557-16.039 5.389-1.771.605-3.506 1.35-5.301 1.826-2.357.627-4.551 1.912-6.957 2.395-2.092.414-4.104 1.164-6.17 1.699-1.064.273-1.947 1.066-2.965 1.279m221.399 4.459c-1.785 4.236-5.008 8.307-6.721 12.389-2.078 4.951-2.754 9.242-5.322 14.5-3.656 7.494-8.713 15.471-11.391 22.682-3.119 8.395-8.529 17.348-13.508 26.422-4.373 7.973-5.178 15.053-10.293 22.939-5.051 7.785 2.039 3.094 9.193-1.891 29.576-20.596 59.98-39.898 89.102-60.994-8.393-4.219-14.564-10.201-21.986-15.283-2.451-1.678-5.148-3.133-7.355-4.998-2.895-2.449-7.008-3.871-9.641-6.559-2.291-2.338-5.205-4.174-7.701-6.334-1.295-1.113-3.504-1.352-4.639-2.479m17.008-39.892c.846 1.002 1.225 2.078 2.037 3.043.99 1.166 2.166 2.098 3.109 3.365 1.348 1.811 2.457 3.824 3.99 5.5 1.789 1.955 3.105 4.195 4.582 6.428 1.301 1.961 3.328 3.471 4.385 5.473 1.047 1.971 1.564.477 2.01-1.084 1.836-6.452 4.32-12.702 5.869-19.219-3.727-.229-7.381-.982-11.113-1.461-1.225-.16-2.455-.256-3.678-.467-1.6-.283-3.221-.26-4.828-.611-1.396-.305-2.803-.461-4.205-.711-.721-.133-1.426-.014-2.105-.154M2.425 2.947C5.062 6.07 6.247 9.429 8.78 12.435c3.088 3.645 6.758 6.549 9.701 10.504 4.205 5.646 7.666 11.93 12.445 17.156 5.58 6.1 9.688 13.09 14.291 20.049 4.059 6.123 10.381 10.83 13.68 17.072 3.268 6.15 4.883 1.492 6.275-3.383 5.727-20.123 13.471-39.619 18.305-59.945-11.629-.715-23.025-3.07-34.668-4.564-3.82-.496-7.658-.793-11.469-1.451-4.995-.885-10.052-.813-15.068-1.909-4.353-.953-8.742-1.439-13.115-2.214-2.25-.414-4.443-.047-6.566-.482m99.158 45.183c.529.625.768 1.299 1.275 1.902.619.729 1.354 1.311 1.943 2.104.844 1.133 1.537 2.393 2.494 3.439 1.119 1.223 1.943 2.625 2.865 4.02.814 1.227 2.082 2.172 2.742 3.422.656 1.232.979.299 1.258-.678 1.148-4.033 2.701-7.941 3.67-12.016-2.332-.145-4.617-.615-6.949-.916-.766-.1-1.535-.158-2.299-.291-1.002-.176-2.016-.162-3.02-.383-.873-.189-1.754-.287-2.629-.443-.453-.082-.893-.01-1.318-.096"/></svg>