<svg xmlns="http://www.w3.org/2000/svg" width="353.667" height="252"><path fill="none" stroke="#E04A45" stroke-miterlimit="10" d="M351.858 79.481c-3.779-2.895-6.414-6.891-10.051-9.668-4.416-3.369-8.982-5.371-13.418-9.248-6.348-5.518-12.348-12.338-18.996-16.963-7.748-5.387-14.639-12.816-21.959-19.949-6.441-6.254-14.168-9.314-20.018-16.15-5.77-6.744-4.928.596-3.803 8.094 4.688 30.973 7.324 62.186 12.893 92.967 10.393-5.359 21.393-8.324 32.158-12.598 3.553-1.416 7.016-3.104 10.627-4.258 4.742-1.516 9.088-4.357 13.941-5.582 4.227-1.053 8.254-2.787 12.41-4.086 2.143-.664 3.863-2.371 5.92-2.904M21.839 80.38c-.648 3.467-2.406 6.545-3.025 9.877-.75 4.045-.545 7.732-1.621 11.961-1.521 6.039-4.023 12.285-4.854 18.229-.967 6.92-3.572 13.961-5.836 21.184-1.979 6.35-1.414 12.48-3.975 18.631-2.525 6.07 2.043 3.059 6.621-.193 18.898-13.461 38.641-25.646 57.119-39.625-7.02-5.074-12.658-11.352-19.086-17.035-2.123-1.875-4.396-3.598-6.367-5.598-2.59-2.627-5.92-4.547-8.354-7.346-2.109-2.439-4.604-4.521-6.852-6.834-1.156-1.193-2.859-1.758-3.9-2.939"/><path fill="#E04A45" d="M84.538 184.177c9.326-1.605 19.957-.527 28.932-2.084 10.893-1.887 19.08-5.471 31.049-6.85 17.045-1.969 36.484-2.045 51.957-5.396 18.016-3.898 39.537-4.445 60.793-5.871 18.676-1.26 31.844-7.715 51.189-7.588 19.102.123 3.104-6.969-13.471-13.85-68.508-28.447-135.689-59.766-204.561-86.871 1.99 19.23-1.539 36.566-2.121 55.07-.191 6.109.275 12.4-.514 18.295-1.037 7.734 1.061 16.443-.684 23.988-1.512 6.566-1.465 13.658-2.443 20.379-.492 3.48 1.543 7.572.848 10.795"/><path fill="none" stroke="#E04A45" stroke-miterlimit="10" d="M273.106 221.771c-3.51-1.363-5.91-3.521-9.291-4.832-4.102-1.594-8.371-2.344-12.49-4.236-5.871-2.701-11.4-6.219-17.586-8.342-7.207-2.479-13.566-6.281-20.334-9.85-5.953-3.143-13.193-4.207-18.57-7.752-5.314-3.502-4.684.867-3.773 5.301 3.75 18.316 5.561 36.986 10.152 55.096 9.947-4.322 20.412-7.248 30.693-10.951 3.385-1.221 6.697-2.602 10.141-3.67 4.518-1.406 8.691-3.578 13.309-4.818 4.012-1.072 7.867-2.543 11.822-3.752 2.039-.623 3.705-1.836 5.658-2.373M212.655 62.509c-1.855-.721-3.125-1.861-4.912-2.555-2.168-.842-4.424-1.238-6.604-2.238-3.104-1.428-6.025-3.287-9.297-4.41-3.809-1.311-7.172-3.32-10.75-5.207-3.146-1.66-6.973-2.225-9.816-4.1-2.811-1.85-2.477.459-1.994 2.805 1.982 9.684 2.939 19.553 5.365 29.125 5.26-2.283 10.793-3.832 16.229-5.789 1.789-.645 3.539-1.375 5.361-1.939 2.387-.744 4.594-1.893 7.035-2.547 2.119-.568 4.158-1.344 6.25-1.984 1.078-.33 1.959-.971 2.99-1.254m47.821 22.511c-.191-1.227.031-2.287-.152-3.469-.227-1.436-.719-2.771-.859-4.264-.201-2.133-.105-4.312-.521-6.426-.486-2.467-.449-4.932-.545-7.469-.086-2.232-.986-4.455-.855-6.598.123-2.115-1.033-1.16-2.166-.113-4.67 4.322-9.764 8.166-14.232 12.682 2.908 2.025 5.498 4.439 8.285 6.668.916.732 1.867 1.416 2.754 2.189 1.156 1.02 2.482 1.801 3.611 2.879.982.934 2.045 1.754 3.059 2.648.52.463 1.148.715 1.631 1.162m37.412 126.499c-.658 1.055-1.521 1.709-2.158 2.723-.77 1.23-1.27 2.564-2.143 3.783-1.246 1.742-2.744 3.328-3.814 5.197-1.25 2.182-2.895 4.02-4.482 5.998-1.396 1.744-2.174 4.014-3.676 5.547-1.48 1.518.02 1.553 1.561 1.504 6.361-.207 12.727.229 19.064-.258-.873-3.434-1.248-6.955-1.895-10.465-.211-1.154-.48-2.293-.645-3.457-.207-1.529-.697-2.988-.844-4.543-.129-1.35-.395-2.666-.574-4.004-.09-.689-.4-1.291-.471-1.947"/><path fill="none" stroke="#E04A45" stroke-miterlimit="10" d="M204.472 228.862c-1.186-1.734-1.613-3.512-2.752-5.182-1.389-2.023-3.111-3.699-4.408-5.877-1.855-3.104-3.295-6.496-5.465-9.418-2.533-3.408-4.268-7.195-6.256-10.994-1.756-3.342-4.74-6.078-6.1-9.441-1.348-3.314-2.418-1.016-3.385 1.402-3.979 9.984-8.957 19.545-12.49 29.682 5.906.973 11.609 2.773 17.48 4.145 1.928.453 3.873.805 5.787 1.342 2.508.713 5.096.939 7.602 1.764 2.176.713 4.393 1.191 6.588 1.818 1.129.328 2.268.256 3.33.588"/></svg>