<svg xmlns="http://www.w3.org/2000/svg" xmlns:xlink="http://www.w3.org/1999/xlink" width="38.667" height="38.667"><defs><path id="a" d="M-809.001-3849.641H571.137V153H-809.001z"/></defs><clipPath id="b"><use xlink:href="#a" overflow="visible"/></clipPath><path clip-path="url(#b)" fill="#F2F2F2" d="M36.712 7.88c0-3.064-2.767-5.833-5.833-5.833H7.545c-3.067 0-5.833 2.769-5.833 5.833v23.333c0 3.065 2.766 5.834 5.833 5.834h11.667V23.825h-4.278v-5.833h4.278v-2.273c0-3.92 2.942-7.45 6.562-7.45h4.715v5.834h-4.715c-.516 0-1.118.627-1.118 1.565v2.324h5.833v5.833h-5.833v13.222h6.224c3.066 0 5.833-2.769 5.833-5.834V7.88z"/><path fill="none" d="M-809.001-3849.64h1380.14V153h-1380.14z"/></svg>