<svg xmlns="http://www.w3.org/2000/svg" width="252.938" height="149"><path fill="none" stroke="#FFF" stroke-width="2" stroke-miterlimit="10" d="M83.747 78.473c-2.345-6.789-7.056-16.215-14.403-18.42-7.292-2.188-16.403 2.218-21.429 7.336-7.502 7.63-8.308 24.91-5.067 34.397 2.76 8.092 17.819 23.81 18.377 24.356.806-2.068 4.312-6.443 5.651-8.388 2.271-3.285 5.293-5.842 7.899-8.806 7.778-8.844 13.037-18.691 8.972-30.475zM63.441 89.081c-5.68.067-11.23-2.541-9.96-9.675.946-5.308 4.734-8.097 11.106-7.336 6.761.807 15.246 16.814-1.146 17.011zm94.664-72.962c-1.681-4.867-5.058-11.625-10.327-13.206-5.225-1.569-11.76 1.592-15.362 5.26-5.377 5.47-5.955 17.859-3.632 24.66 1.978 5.803 12.774 17.071 13.175 17.462.578-1.483 3.09-4.619 4.053-6.012 1.629-2.355 3.795-4.188 5.664-6.312 5.573-6.344 9.344-13.402 6.429-21.852zm-14.557 7.606c-4.071.05-8.051-1.821-7.141-6.936.678-3.805 3.393-5.805 7.961-5.26 4.848.58 10.932 12.054-.82 12.196zm83.584 46.869c-1.857-5.377-5.588-12.843-11.409-14.591-5.773-1.734-12.991 1.759-16.974 5.813-5.942 6.044-6.58 19.73-4.016 27.247 2.188 6.412 14.117 18.86 14.561 19.295.637-1.64 3.412-5.104 4.477-6.644 1.799-2.604 4.191-4.629 6.257-6.978 6.16-7.006 10.326-14.806 7.104-24.142zm-16.082 8.403c-4.5.058-8.897-2.011-7.892-7.662.75-4.207 3.75-6.415 8.798-5.812 5.356.641 12.077 13.318-.906 13.474z"/><path fill="none" stroke="#FFF" stroke-width="2" stroke-miterlimit="10" d="M0 111.561c4.118 1.051 6.978 4.127 10.413 6.325 5.298 3.394 11.356 6.546 17.067 9.318 5.652 2.744 11.523 4.979 17.278 7.487 4.724 2.062 9.818 5.859 14.859 6.916 8.002 1.681 15.896-7.332 21.386-12.315 7.188-6.528 13.307-12.633 18.702-20.629 6.156-9.119 15.857-15.771 23.537-23.563 7.361-7.474 15.082-23.951 27.583-16.542 11.446 6.784 19.442 20.437 29.774 28.919 13.112 10.768 14.881 14.643 25.992 27.254 4.809 5.455 40.715-10.383 46.344-10.041"/><path fill="#FFF" d="M54.239 140.809c-.877 4.936 2.962 6.74 6.893 6.69 11.342-.138 5.471-11.209.793-11.771-4.41-.524-7.029 1.406-7.686 5.081"/><path fill="none" stroke="#FFF" stroke-width="2" stroke-miterlimit="10" d="M54.239 140.809c-.877 4.936 2.962 6.74 6.893 6.69 11.342-.138 5.471-11.209.793-11.771-4.41-.524-7.029 1.406-7.686 5.081z"/><path fill="#FFF" d="M137.6 65.089c-1.282 4.249 1.907 6.233 5.368 6.594 9.984 1.048 5.965-9.294 1.908-10.266-3.822-.915-6.324.51-7.276 3.672"/><path fill="none" stroke="#FFF" stroke-width="2" stroke-miterlimit="10" d="M137.6 65.089c-1.282 4.249 1.907 6.233 5.368 6.594 9.984 1.048 5.965-9.294 1.908-10.266-3.822-.915-6.324.51-7.276 3.672z"/><path fill="#FFF" d="M205.124 123.41c-.584 3.275 1.965 4.476 4.575 4.441 7.529-.09 3.632-7.441.523-7.813-2.922-.35-4.664.933-5.098 3.372"/><path fill="none" stroke="#FFF" stroke-width="2" stroke-miterlimit="10" d="M205.124 123.41c-.584 3.275 1.965 4.476 4.575 4.441 7.529-.09 3.632-7.441.523-7.813-2.922-.35-4.664.933-5.098 3.372z"/></svg>