<svg xmlns="http://www.w3.org/2000/svg" width="1091.213" height="820.742"><path fill="#DF4944" d="M696.545 345.884c-12.318 2.934-23.09 1.547-34.949 4.378-14.395 3.431-27.645 9.514-42.66 12.152-21.412 3.741-43.438 4.572-64.611 10.513-24.683 6.917-49.545 8.546-75.097 11.602-22.477 2.681-44.544 13.57-66.201 14.03-21.404.467-11.305 11.354-.313 21.884 45.378 43.525 86.064 91.731 133.376 133.074 19.274-30.966 42.641-59.064 64.016-88.962 7.039-9.843 13.566-19.992 21.055-29.534 9.814-12.521 17.213-26.51 27.619-38.762 9.057-10.637 16.918-22.075 25.555-32.974 4.451-5.626 6.744-12.17 11.123-17.385"/><path fill="none" stroke="#DF4944" stroke-miterlimit="10" d="M696.545 345.884c-12.318 2.934-23.09 1.547-34.949 4.378-14.395 3.431-27.645 9.514-42.66 12.152-21.412 3.741-43.438 4.572-64.611 10.513-24.683 6.917-49.545 8.546-75.097 11.602-22.477 2.681-44.544 13.57-66.201 14.03-21.404.467-11.305 11.354-.313 21.884 45.378 43.525 86.064 91.731 133.376 133.074 19.274-30.966 42.641-59.064 64.016-88.962 7.039-9.843 13.566-19.992 21.055-29.534 9.814-12.521 17.213-26.51 27.619-38.762 9.057-10.637 16.918-22.075 25.555-32.974 4.451-5.626 6.744-12.17 11.123-17.385"/><path fill="none" stroke="#FFF" stroke-width="2" stroke-miterlimit="10" d="M489.562 237.122c-3.87 2.498-5.829 7.066-7.742 10.919-3.199 6.431-5.727 12.918-8.441 19.638-8.108 20.066-5.048 42.343-2.378 63.422 1.392 10.994 4.108 21.889 6.594 32.778 1.043 4.56 1.145 8.918 2.172 13.42 1.278 5.59 4.505 9.145 7.422 13.865 5.258 8.501 9.049 17.888 14.002 26.48 2.114 3.663 3.688 8.05 6.414 11.288 2.624 3.127 7.5 5.875 10.726 8.166 6.696 4.764 9.658 8.781 17.292 12.523 6.865 3.362 19.01 1.342 24.334-3.581 2.369-2.192 9.434-10.916 11.658-13.614 4.291-5.201 7.127-14.265 9.314-20.605 1.324-3.843 2.504-7.369 3.17-11.355.574-3.424.975-7.424 1.762-10.805 1.982-8.537-1.738-17.035-1.418-25.525.641-17.028-5.285-34.039-7.508-50.868-1.131-8.563-2.305-17.452-6.066-25.235-3.637-7.531-9.209-13.637-12.854-20.968-7.127-14.322-23.11-27.928-37.466-34.191-5.684-2.479-11.128-4.138-17.048-3.68-3.501.271-10.658 5.809-13.939 7.928z"/><path fill="none" stroke="#FFF" stroke-width="2" stroke-miterlimit="10" d="M479.721 437.225c15.95-.347 29.806-10.767 42.558-19.402 6.872-4.649 12.493-8.916 18.261-14.695 4.962-4.97 10.945-7.757 16.71-11.376 6.344-3.982 10.42-10.149 13.74-16.645 4.457-8.717 9.904-17.106 14.152-25.945 8.252-17.163 15.541-34.798 19.449-53.718 3.467-16.787 3.162-32.178-8.145-45.341-5.68-6.618-14.342-9.236-23.713-7.034-6.863 1.613-13.234 1.659-21.602 3.878-8.269 2.189-15.787 9.564-23.162 13.661-7.745 4.306-15.09 11.925-22.523 16.388-8.875 5.329-12.98 12.685-18.168 21.559-5.973 10.222-14.762 18.436-20.055 28.73-9.425 18.331-20.989 35.856-19.464 57.579.41 5.899 1.235 9.372.926 15.315-.253 4.859-.16 12.723 2.676 17.757 4.258 7.558 18.939 19.493 28.36 19.289z"/><path fill="none" stroke="#FFF" stroke-width="2" stroke-miterlimit="10" d="M428.656 293.149c-.97 4.504.873 9.119 2.245 13.195 2.285 6.807 5.086 13.184 7.917 19.854 8.457 19.921 26.372 33.509 43.166 46.53 8.757 6.79 18.38 12.571 27.84 18.514 3.959 2.487 7.116 5.494 11.026 7.951 4.856 3.049 9.652 3.285 15.053 4.557 9.73 2.294 19.047 6.251 28.623 8.822 4.086 1.099 8.301 3.087 12.52 3.451 4.064.352 9.453-1.15 13.357-1.812 8.104-1.368 13.039-.616 21.084-3.37 7.229-2.476 14.389-12.495 14.67-19.737.125-3.23-1.045-14.393-1.381-17.874-.643-6.712-5.043-15.126-7.982-21.156-1.781-3.657-3.441-6.982-5.787-10.272-2.018-2.824-4.559-5.94-6.396-8.886-4.633-7.436-13.273-10.816-19.051-17.044-11.588-12.493-27.809-20.334-41.276-30.662-6.858-5.255-13.97-10.708-22.134-13.556-7.899-2.752-16.156-3.132-23.919-5.733-15.163-5.086-36.085-3.409-50.666 2.312-5.774 2.265-10.797 4.944-14.657 9.451-2.29 2.67-3.429 11.645-4.252 15.465z"/><path fill="none" stroke="#FFF" stroke-width="2" stroke-miterlimit="10" d="M428.574 387.23c12.703 9.649 30.029 10.109 45.391 11.279 8.272.633 15.329.789 23.438-.148 6.976-.803 13.396.734 20.159 1.484 7.446.828 14.471-1.467 21.112-4.486 8.912-4.053 18.395-7.235 27.221-11.515 17.135-8.31 33.814-17.58 48.641-29.963 13.152-10.991 22.49-23.232 21.824-40.569-.332-8.717-5.482-16.154-14.197-20.259-6.373-3.005-11.389-6.933-19.324-10.4-7.834-3.427-18.307-2.329-26.629-3.71-8.742-1.443-19.236-.046-27.831-1.175-10.264-1.346-18.055 1.856-27.637 5.581-11.035 4.289-23.024 5.255-33.573 10.021-18.782 8.493-38.738 15.024-51.057 32.977-3.346 4.879-4.859 8.114-8.798 12.574-3.218 3.645-8.043 9.859-8.951 15.566-1.368 8.566 2.705 27.045 10.211 32.743z"/><path fill="none" stroke="#FFF" stroke-width="2" stroke-miterlimit="10" d="M527.712 320.102c-18.581 6.262-19.248 22.055-9.288 34.313 12.467 15.349 40.582-1.058 28.49-25.968-4.117-8.486-13.21-10.363-19.202-8.345zm8.945-84.226c-5.214 1.755-5.404 6.187-2.606 9.632 3.5 4.306 11.393-.3 7.995-7.294-1.153-2.379-3.706-2.905-5.389-2.338zm-108.845 58.906c-5.214 1.756-5.404 6.19-2.606 9.632 3.5 4.306 11.39-.3 7.995-7.291-1.157-2.381-3.706-2.907-5.389-2.341zm19.682 75.043c-5.214 1.759-5.404 6.19-2.606 9.631 3.499 4.31 11.39-.297 7.995-7.287-1.156-2.382-3.706-2.908-5.389-2.344zm125.432-6.158c-5.215 1.756-5.404 6.19-2.607 9.628 3.5 4.31 11.393-.296 7.996-7.287-1.156-2.384-3.707-2.908-5.389-2.341zm-43.289 75.552c-5.217 1.759-5.403 6.189-2.608 9.632 3.502 4.309 11.392-.297 7.998-7.291-1.156-2.379-3.711-2.906-5.39-2.341zm94.789-149.686c-5.219 1.759-5.404 6.19-2.609 9.632 3.5 4.306 11.393-.298 7.998-7.291-1.156-2.382-3.709-2.908-5.389-2.341zm-16.334 43.799c-5.219 1.755-5.404 6.189-2.609 9.631 3.502 4.307 11.393-.299 7.998-7.29-1.156-2.382-3.709-2.909-5.389-2.341z"/><text transform="translate(355.141 17.11)" fill="#FFF" font-family="'Roboto-Regular'" font-size="20">As sessões integram uma</text><text transform="translate(386.641 40.11)" fill="#FFF" font-family="'Roboto-Regular'" font-size="20">REDE CULTURAL mais</text><text transform="translate(300.621 63.11)" fill="#FFF" font-family="'Roboto-Regular'" font-size="20">ampla, que visibiliza espaços de</text><text transform="translate(271.46 86.11)" fill="#FFF" font-family="'Roboto-Regular'" font-size="20">interesse público e forma um mapa</text><text transform="translate(323.96 109.11)" fill="#FFF" font-family="'Roboto-Regular'" font-size="20">de quantas pessoas um filme</text><text transform="translate(327.161 132.11)" fill="#FFF" font-family="'Roboto-Regular'" font-size="20">e uma causa podem atingir :-)</text><path fill="#DF4944" d="M215.961 723.322c8.768-3.561 19.384-4.778 27.818-8.216 10.239-4.172 17.472-9.422 28.869-13.324 16.231-5.564 35.204-9.793 49.605-16.372 16.765-7.656 37.673-12.789 58.134-18.724 17.976-5.22 29.461-14.338 48.387-18.349 18.686-3.959 1.544-7.47-16.119-10.651-73.003-13.154-145.325-29.397-218.396-41.164 6.054 18.361 6.309 36.052 9.693 54.252 1.118 6.01 2.918 12.056 3.407 17.983.64 7.777 4.549 15.837 4.457 23.58-.074 6.738 1.486 13.654 1.967 20.429.262 3.507 3.125 7.068 3.133 10.364m784.573-403.714c-2.988-6.281-4.338-14.019-7.221-20.06-3.5-7.334-7.662-12.417-11.016-20.612-4.777-11.672-8.693-25.411-14.139-35.697-6.336-11.974-10.998-27.096-16.23-41.856-4.6-12.967-11.783-21.003-15.539-34.719-3.705-13.542-5.547-.812-7.125 12.284-6.521 54.132-15.342 107.898-20.844 162.02 13.215-5.231 26.184-6.176 39.395-9.439 4.361-1.078 8.721-2.658 13.049-3.27 5.68-.803 11.426-4.016 17.113-4.279 4.945-.237 9.953-1.677 14.904-2.32 2.562-.344 5.053-2.596 7.471-2.744"/><path fill="none" stroke="#FFF" stroke-width="2" stroke-miterlimit="10" d="M211.132 612.087c-2.955-9.141-1.91-25.684 5.398-32.877 4.897-4.826 13.696-8.904 20.649-6.691 7.006 2.229 11.371 11.336 13.51 17.877 3.709 11.355-1.487 20.709-9.077 29.061-2.544 2.799-5.48 5.199-7.708 8.312-1.317 1.842-4.745 5.977-5.549 7.945-.526-.531-14.707-15.83-17.223-23.627z"/><path fill="none" stroke="#FFF" stroke-width="2" stroke-miterlimit="10" d="M221.675 590.812c-1.332 6.816 3.947 9.404 9.389 9.43 15.709.068 7.832-15.402 1.369-16.283-6.094-.829-9.768 1.782-10.758 6.853zm73.317-33.387c-2.119-6.553-1.371-18.414 3.869-23.57 3.509-3.459 9.82-6.385 14.804-4.799 5.022 1.598 8.153 8.129 9.686 12.818 2.658 8.141-1.066 14.846-6.508 20.836-1.824 2.006-3.928 3.727-5.525 5.957-.946 1.322-3.403 4.287-3.979 5.699-.378-.383-10.545-11.349-12.347-16.941z"/><path fill="none" stroke="#FFF" stroke-width="2" stroke-miterlimit="10" d="M302.55 542.173c-.953 4.887 2.83 6.742 6.733 6.758 11.261.051 5.613-11.039.978-11.672-4.369-.596-7.002 1.279-7.711 4.914zm54.744 70.172c-2.338-7.242-1.512-20.346 4.279-26.045 3.879-3.822 10.848-7.053 16.356-5.301 5.551 1.766 9.006 8.979 10.701 14.16 2.939 8.996-1.176 16.406-7.189 23.023-2.016 2.215-4.34 4.119-6.106 6.586-1.045 1.457-3.758 4.732-4.394 6.293-.419-.421-11.651-12.539-13.647-18.716z"/><path fill="none" stroke="#FFF" stroke-width="2" stroke-miterlimit="10" d="M365.647 595.491c-1.055 5.4 3.127 7.449 7.439 7.467 12.444.055 6.204-12.197 1.083-12.896-4.829-.659-7.736 1.412-8.522 5.429zm-153.149 49.414c4.494 2.049 9.316 5.767 14.129 6.861 7.641 1.734 15.346-6.775 20.685-11.465 6.993-6.143 13.11-8.127 18.407-15.703 6.043-8.641 15.66-9.834 23.138-17.182 7.174-7.043 14.83-22.709 26.691-15.414 10.862 6.68 18.307 19.889 28.072 28.18 12.395 10.525 14.137 16.777 24.584 29.037"/><path fill="none" stroke="#FFF" stroke-width="2" stroke-miterlimit="10" d="M221.484 650.913c-.918 4.715 2.73 6.506 6.498 6.521 10.869.049 5.42-10.654.945-11.266-4.215-.571-6.756 1.235-7.443 4.745zm81.445-62.441c-1.297 4.051 1.729 6.002 5.039 6.402 9.551 1.162 5.863-8.811 1.99-9.807-3.646-.937-6.066.389-7.029 3.405zm63.886 59.459c-.611 3.131 1.811 4.32 4.313 4.33 7.216.033 3.597-7.074.626-7.479-2.796-.381-4.485.821-4.939 3.149z"/><text transform="translate(848.206 723.322)" fill="#FFF" font-family="'Roboto-Regular'" font-size="20">EXIBIÇÕES seguidas de</text><text transform="translate(848.206 746.322)" fill="#FFF" font-family="'Roboto-Regular'" font-size="20">ATIVIDADES ajudam a</text><text transform="translate(848.206 769.322)" fill="#FFF" font-family="'Roboto-Regular'" font-size="20">formar público e promover</text><text transform="translate(848.206 792.322)" fill="#FFF" font-family="'Roboto-Regular'" font-size="20">diálogos sobre temas</text><text transform="translate(848.206 815.322)" fill="#FFF" font-family="'Roboto-Regular'" font-size="20">sociais relevantes!</text><path fill="none" stroke="#FFFCFF" stroke-width="3" stroke-linecap="round" stroke-miterlimit="10" d="M566 196.595c.5-1.5 1.453-2.574 1.918-4 1.045-3.21 3-5.75 4.5-7.75s2.582-3.75 4.082-5.25c1.5-2 3.5-4 5.5-5.5 4.5-3 8-6.5 12.5-10 2-2 4-4 6-5.5 3-2.5 6-4.5 9-6 6-4 13-6.5 19.5-9 6-2.5 12.5-5 19-7.5 4.5-1.5 9-3 13.5-5l12-4.5c7-2.5 13.5-4.5 20.5-5.5 11.5-1.5 23.5-2 35.5-2.5 10-1 20-2 30.5-2 16 0 32.5 2 48.5 3 5 .5 10.5 1 16 1 3 0 7-.5 10 0 8 1.5 15.5 5 22.5 7.5 5.5 2 11.5 3.5 17.5 5.5 5 1.5 8 5.5 12.5 8.5 2 1.5 4 2.5 5.5 4 1.5 1 2.5 2 3.5 3m-331.5 47.5c-1.875-3.75-1.223-7-1.5-9.667-.371-3.571-.166-6.333-1.5-9.666"/><path fill="none" stroke="#FFFCFF" stroke-width="3" stroke-linecap="round" stroke-miterlimit="10" d="M564.834 196.929c3.545-.333 8.887-1.356 11-2.167 2.16-.829 3.666-2.166 5-2.833 2-1.333 4-.667 6-2"/><path fill="#DF4944" d="M132.201 97.116c-2.318 9.664-7.716 18.077-9.935 27.371-2.689 11.28-2.643 21.691-6.282 33.442-5.153 16.787-13.092 34.017-16.281 50.625-3.719 19.348-12.062 38.793-19.474 58.807-6.48 17.592-5.775 34.932-13.866 51.886-7.985 16.723 5.312 8.903 18.669.401 55.14-35.181 112.481-66.656 166.506-103.36-19.033-15.294-34.007-33.776-51.285-50.703-5.711-5.58-11.863-10.761-17.124-16.674-6.913-7.768-16.018-13.652-22.466-21.881-5.589-7.175-12.31-13.39-18.309-20.223-3.083-3.527-7.798-5.364-10.559-8.837m848.637 310.107c-1.27 5.351-4.244 10.014-5.459 15.157-1.473 6.245-1.434 12.005-3.43 18.513-2.828 9.293-7.197 18.836-8.938 28.03-2.033 10.71-6.619 21.479-10.695 32.563-3.559 9.742-3.146 19.334-7.598 28.726-4.395 9.265 2.949 4.918 10.33.197 30.457-19.541 90.24-33.271 120.08-53.652-10.551-8.435-44.367-24.126-53.951-33.468-3.166-3.079-6.576-5.938-9.496-9.201-3.836-4.288-8.881-7.531-12.459-12.075-3.104-3.962-9.426-5.67-12.754-9.442-1.711-1.946-4.324-2.956-5.855-4.873"/><path fill="none" stroke="#FFF" stroke-width="2" stroke-linecap="round" stroke-linejoin="round" d="M84.874 190.89c.061.158.126.312.193.461"/><path fill="none" stroke="#FFF" stroke-width="2" stroke-linecap="round" stroke-linejoin="round" stroke-dasharray="0.997,0.997" d="M85.517 192.242c.645 1.162 1.406 2.182 1.898 3.454.811 2.105 1.148 4.271 2.131 6.399 1.406 3.026 3.28 5.909 4.35 9.076 1.253 3.69 3.269 6.994 5.149 10.502 1.649 3.081 2.105 6.746 3.996 9.554 1.868 2.767-.587 2.33-3.078 1.743-9.951-2.336-20.13-3.77-29.968-6.425"/><path fill="none" stroke="#FFF" stroke-width="2" stroke-linecap="round" stroke-linejoin="round" d="M69.514 226.415l-.48-.133c.08-.147.159-.294.237-.442"/><path fill="none" stroke="#FFF" stroke-width="2" stroke-linecap="round" stroke-linejoin="round" stroke-dasharray="1.019,1.019" d="M69.743 224.935c2.286-4.475 4.019-9.163 6.116-13.76.754-1.666 1.605-3.293 2.285-4.986.881-2.234 2.203-4.268 2.999-6.554.686-1.988 1.598-3.876 2.367-5.834.265-.677.678-1.261 1.025-1.865"/><path fill="none" stroke="#FFF" stroke-width="2" stroke-linecap="round" stroke-linejoin="round" d="M84.772 191.49a4.53 4.53 0 0 0 .195-.46m12.907-4.713c.061.158.126.312.193.461"/><path fill="none" stroke="#FFF" stroke-width="2" stroke-linecap="round" stroke-linejoin="round" stroke-dasharray="0.997,0.997" d="M98.518 187.669c.645 1.162 1.405 2.182 1.896 3.453.812 2.108 1.151 4.273 2.136 6.398 1.404 3.03 3.278 5.91 4.346 9.077 1.258 3.694 3.271 6.996 5.149 10.503 1.65 3.083 2.106 6.748 3.995 9.555 1.869 2.768-.587 2.329-3.074 1.742-9.954-2.336-20.131-3.768-29.969-6.426"/><path fill="none" stroke="#FFF" stroke-width="2" stroke-linecap="round" stroke-linejoin="round" d="M82.516 221.84l-.48-.133.237-.441"/><path fill="none" stroke="#FFF" stroke-width="2" stroke-linecap="round" stroke-linejoin="round" stroke-dasharray="1.019,1.019" d="M82.744 220.36c2.285-4.473 4.021-9.162 6.114-13.76.757-1.664 1.605-3.29 2.286-4.989.884-2.227 2.204-4.263 2.999-6.551.688-1.983 1.598-3.877 2.369-5.832.263-.677.675-1.262 1.023-1.866"/><path fill="none" stroke="#FFF" stroke-width="2" stroke-linecap="round" stroke-linejoin="round" d="M97.774 186.917a4.52 4.52 0 0 0 .196-.459m81.378-24.193a9.671 9.671 0 0 0-.467-.179"/><path fill="none" stroke="#FFF" stroke-width="2" stroke-linecap="round" stroke-linejoin="round" stroke-dasharray="0.996,0.996" d="M177.926 161.802c-.932-.241-1.848-.402-2.769-.785-1.677-.701-3.139-1.67-4.92-2.294-2.538-.887-5.236-1.457-7.678-2.586-2.851-1.312-5.875-2.033-8.948-2.932-2.698-.79-5.111-2.491-7.775-3.015-2.627-.514-1.071-1.527.59-2.479 6.562-3.765 12.717-8.112 19.398-11.672"/><path fill="none" stroke="#FFF" stroke-width="2" stroke-linecap="round" stroke-linejoin="round" d="M166.265 135.806c.148-.078.296-.155.445-.231.059.155.119.309.18.463"/><path fill="none" stroke="#FFF" stroke-width="2" stroke-linecap="round" stroke-linejoin="round" stroke-dasharray="0.982,0.982" d="M167.258 136.942c1.43 3.41 3.237 6.669 4.811 10.059.592 1.26 1.108 2.548 1.754 3.788.86 1.623 1.37 3.365 2.306 4.974.817 1.396 1.456 2.854 2.211 4.276.224.419.35.856.491 1.282"/><path fill="none" stroke="#FFF" stroke-width="2" stroke-linecap="round" stroke-linejoin="round" d="M179 161.788c.062.154.133.305.216.451m-4.012 9.023a8.42 8.42 0 0 0-.468-.178"/><path fill="none" stroke="#FFF" stroke-width="2" stroke-linecap="round" stroke-linejoin="round" stroke-dasharray="0.996,0.996" d="M173.781 170.8c-.932-.24-1.847-.402-2.768-.786-1.679-.701-3.141-1.671-4.921-2.294-2.538-.886-5.235-1.456-7.678-2.585-2.853-1.312-5.876-2.035-8.945-2.932-2.7-.792-5.115-2.493-7.775-3.016-2.628-.514-1.074-1.527.586-2.477 6.564-3.767 12.717-8.113 19.399-11.673"/><path fill="none" stroke="#FFF" stroke-width="2" stroke-linecap="round" stroke-linejoin="round" d="M162.12 144.805l.445-.232c.059.154.119.309.18.463"/><path fill="none" stroke="#FFF" stroke-width="2" stroke-linecap="round" stroke-linejoin="round" stroke-dasharray="0.982,0.982" d="M163.116 145.944c1.429 3.407 3.235 6.667 4.812 10.052.588 1.261 1.104 2.549 1.753 3.79.856 1.621 1.366 3.365 2.303 4.973.815 1.395 1.458 2.855 2.212 4.278.225.418.352.857.493 1.284"/><path fill="none" stroke="#FFF" stroke-width="2" stroke-linecap="round" stroke-linejoin="round" d="M174.855 170.785c.062.154.132.305.215.451m53.809 35.236c-.051.161-.097.321-.14.481"/><path fill="none" stroke="#FFF" stroke-width="2" stroke-linecap="round" stroke-linejoin="round" stroke-dasharray="0.998,0.998" d="M228.514 207.926c-.373 1.915-.366 3.73-.964 5.637-.915 2.888-2.392 5.494-3.135 8.531-1.052 4.325-1.466 8.834-3.001 13.067-1.782 4.938-2.402 10.009-3.344 15.204-.832 4.561-3.461 8.889-3.795 13.33-.325 4.377-2.628 2.111-4.844-.343-8.924-9.869-18.88-18.906-27.386-29.061"/><path fill="none" stroke="#FFF" stroke-width="2" stroke-linecap="round" stroke-linejoin="round" d="M181.727 233.909l-.317-.383.451-.219"/><path fill="none" stroke="#FFF" stroke-width="2" stroke-linecap="round" stroke-linejoin="round" stroke-dasharray="1.01,1.01" d="M182.769 232.858c6.526-3.271 12.58-7.245 18.972-10.833 2.245-1.268 4.56-2.422 6.75-3.775 2.865-1.791 6.04-3.048 8.86-4.962 2.444-1.666 5.049-3.062 7.558-4.636.989-.624 2.086-.973 3.084-1.465"/><path fill="none" stroke="#FFF" stroke-width="2" stroke-linecap="round" stroke-linejoin="round" d="M228.435 206.954c.145-.082.287-.169.426-.262m18.096 4.264c-.051.161-.097.321-.14.48"/><path fill="none" stroke="#FFF" stroke-width="2" stroke-linecap="round" stroke-linejoin="round" stroke-dasharray="0.998,0.998" d="M246.593 212.409c-.372 1.916-.366 3.729-.965 5.634-.912 2.892-2.391 5.5-3.13 8.533-1.055 4.329-1.466 8.834-3.004 13.065-1.781 4.943-2.403 10.013-3.346 15.205-.832 4.562-3.462 8.892-3.794 13.328-.326 4.381-2.631 2.115-4.841-.338-8.928-9.872-18.883-18.906-27.385-29.063"/><path fill="none" stroke="#FFF" stroke-width="2" stroke-linecap="round" stroke-linejoin="round" d="M199.81 238.393a58.52 58.52 0 0 1-.317-.383l.451-.219"/><path fill="none" stroke="#FFF" stroke-width="2" stroke-linecap="round" stroke-linejoin="round" stroke-dasharray="1.01,1.01" d="M200.851 237.342c6.521-3.268 12.579-7.245 18.97-10.837 2.245-1.263 4.557-2.418 6.749-3.773 2.863-1.785 6.041-3.045 8.858-4.959 2.444-1.663 5.051-3.064 7.562-4.636.985-.624 2.082-.973 3.081-1.464"/><path fill="none" stroke="#FFF" stroke-width="2" stroke-linecap="round" stroke-linejoin="round" d="M246.516 211.439c.145-.082.288-.168.426-.261m-.154-49.293c-.167.03-.33.065-.49.104"/><path fill="none" stroke="#FFF" stroke-width="2" stroke-linecap="round" stroke-linejoin="round" stroke-dasharray="1.013,1.013" d="M245.325 162.271c-.906.3-1.75.654-2.737.833-1.807.323-3.607.314-5.451.755-2.625.632-5.183 1.608-7.883 1.991-3.147.451-6.066 1.478-9.135 2.386-2.696.796-5.73.696-8.232 1.691-2.465.984-1.829-.673-1.067-2.337 2.99-6.562 5.293-13.378 8.505-19.837"/><path fill="none" stroke="#FFF" stroke-width="2" stroke-linecap="round" stroke-linejoin="round" d="M219.552 147.3l.227-.447c.139.091.279.181.418.27"/><path fill="none" stroke="#FFF" stroke-width="2" stroke-linecap="round" stroke-linejoin="round" stroke-dasharray="1.029,1.029" d="M221.07 147.668c3.304 2.022 6.821 3.719 10.23 5.646 1.271.713 2.5 1.488 3.802 2.155 1.717.866 3.222 2.014 4.993 2.828 1.539.704 2.974 1.551 4.479 2.309.452.226.834.521 1.223.798"/><path fill="none" stroke="#FFF" stroke-width="2" stroke-linecap="round" stroke-linejoin="round" d="M246.226 161.693c.141.088.286.169.439.24m2.368 9.506c-.167.03-.33.065-.49.104"/><path fill="none" stroke="#FFF" stroke-width="2" stroke-linecap="round" stroke-linejoin="round" stroke-dasharray="1.013,1.013" d="M247.57 171.827c-.906.3-1.75.654-2.737.832-1.809.325-3.608.314-5.449.758-2.627.63-5.185 1.606-7.884 1.99-3.15.454-6.068 1.478-9.135 2.383-2.699.797-5.731.698-8.231 1.692-2.467.985-1.831-.673-1.07-2.336 2.991-6.563 5.293-13.378 8.505-19.836"/><path fill="none" stroke="#FFF" stroke-width="2" stroke-linecap="round" stroke-linejoin="round" d="M221.796 156.856l.228-.447.417.27"/><path fill="none" stroke="#FFF" stroke-width="2" stroke-linecap="round" stroke-linejoin="round" stroke-dasharray="1.029,1.029" d="M223.314 157.225c3.303 2.021 6.822 3.719 10.232 5.645 1.269.714 2.497 1.489 3.802 2.155 1.712.866 3.219 2.017 4.99 2.829 1.537.704 2.975 1.551 4.481 2.309.451.225.833.52 1.221.797"/><path fill="none" stroke="#FFF" stroke-width="2" stroke-linecap="round" stroke-linejoin="round" d="M248.47 171.249c.141.088.286.169.438.241m-99.927 37.389c.171-.005.337-.019.499-.036"/><path fill="none" stroke="#FFF" stroke-width="2" stroke-linecap="round" stroke-linejoin="round" stroke-dasharray="1.003,1.003" d="M150.473 208.682c.506-.097 1.005-.196 1.551-.214 1.285-.038 2.525.153 3.849.039 1.886-.167 3.769-.577 5.676-.564 2.226.011 4.361-.398 6.588-.71 1.955-.272 4.035.108 5.879-.322 1.818-.424 1.18.654.456 1.722-2.797 4.139-5.166 8.514-8.079 12.571"/><path fill="none" stroke="#FFF" stroke-width="2" stroke-linecap="round" stroke-linejoin="round" d="M166.099 221.61c-.099.135-.198.271-.298.404a23.082 23.082 0 0 0-.371-.331"/><path fill="none" stroke="#FFF" stroke-width="2" stroke-linecap="round" stroke-linejoin="round" stroke-dasharray="0.966,0.966" d="M164.695 221.056c-1.949-1.625-4.053-3.085-6.063-4.677-.791-.623-1.544-1.284-2.361-1.877-1.082-.773-1.981-1.72-3.105-2.463-.978-.644-1.865-1.376-2.812-2.051a4.49 4.49 0 0 1-.545-.476"/><path fill="none" stroke="#FFF" stroke-width="2" stroke-linecap="round" stroke-linejoin="round" d="M149.461 209.171a3.098 3.098 0 0 0-.389-.313m-.492-6.8a6.13 6.13 0 0 0 .499-.036"/><path fill="none" stroke="#FFF" stroke-width="2" stroke-linecap="round" stroke-linejoin="round" stroke-dasharray="1.003,1.003" d="M150.072 201.86c.506-.096 1.005-.195 1.551-.211 1.285-.039 2.526.152 3.849.035 1.889-.165 3.768-.575 5.677-.563 2.226.01 4.362-.396 6.586-.707 1.956-.273 4.036.107 5.88-.324 1.819-.425 1.181.654.457 1.722-2.798 4.139-5.165 8.514-8.079 12.572"/><path fill="none" stroke="#FFF" stroke-width="2" stroke-linecap="round" stroke-linejoin="round" d="M165.699 214.79l-.298.404a39.801 39.801 0 0 0-.372-.331"/><path fill="none" stroke="#FFF" stroke-width="2" stroke-linecap="round" stroke-linejoin="round" stroke-dasharray="0.966,0.966" d="M164.295 214.235c-1.949-1.625-4.053-3.086-6.065-4.677-.788-.625-1.541-1.283-2.363-1.876-1.076-.774-1.978-1.722-3.102-2.464-.974-.642-1.865-1.375-2.812-2.053a4.552 4.552 0 0 1-.545-.474"/><path fill="none" stroke="#FFF" stroke-width="2" stroke-linecap="round" stroke-linejoin="round" d="M149.061 202.35a3.17 3.17 0 0 0-.388-.314m-40.303 53.248c.142.1.285.182.429.257"/><path fill="none" stroke="#FFF" stroke-width="2" stroke-linecap="round" stroke-linejoin="round" stroke-dasharray="0.997,0.997" d="M109.695 255.981a3.6 3.6 0 0 1 .342.209c.646.451 1.172.995 1.871 1.421.995.607 2.094 1.09 3.023 1.79 1.087.815 2.308 1.392 3.531 2.052 1.075.577 1.933 1.523 3.02 1.983 1.073.454.3.751-.511 1.009-3.028.976-5.955 2.204-8.996 3.124"/><path fill="none" stroke="#FFF" stroke-width="2" stroke-linecap="round" stroke-linejoin="round" d="M111.495 267.712l-.482.137a20.953 20.953 0 0 0-.07-.494"/><path fill="none" stroke="#FFF" stroke-width="2" stroke-linecap="round" stroke-linejoin="round" stroke-dasharray="1.074,1.074" d="M110.754 266.303c-.255-1.275-.589-2.541-.85-3.829-.123-.591-.21-1.191-.357-1.779-.201-.772-.239-1.565-.473-2.337-.204-.666-.325-1.345-.501-2.017"/><path fill="none" stroke="#FFF" stroke-width="2" stroke-linecap="round" stroke-linejoin="round" d="M108.499 255.802a2.34 2.34 0 0 0-.075-.494m2.658-3.513c.142.098.286.181.429.257"/><path fill="none" stroke="#FFF" stroke-width="2" stroke-linecap="round" stroke-linejoin="round" stroke-dasharray="0.997,0.997" d="M112.406 252.493c.116.063.23.131.343.21.647.45 1.174.996 1.872 1.419.996.606 2.093 1.09 3.022 1.791 1.087.815 2.307 1.393 3.53 2.051 1.076.578 1.934 1.523 3.021 1.983 1.072.455.301.75-.51 1.01-3.029.976-5.954 2.204-8.995 3.124"/><path fill="none" stroke="#FFF" stroke-width="2" stroke-linecap="round" stroke-linejoin="round" d="M114.209 264.223l-.482.137a15.8 15.8 0 0 0-.071-.493"/><path fill="none" stroke="#FFF" stroke-width="2" stroke-linecap="round" stroke-linejoin="round" stroke-dasharray="1.074,1.074" d="M113.467 262.813c-.256-1.276-.591-2.542-.853-3.828-.12-.593-.209-1.19-.357-1.78-.198-.771-.236-1.564-.469-2.336-.205-.667-.328-1.346-.501-2.019"/><path fill="none" stroke="#FFF" stroke-width="2" stroke-linecap="round" stroke-linejoin="round" d="M111.212 252.312a2.416 2.416 0 0 0-.074-.495m-10.772-108.11c-.17.048-.32.114-.466.181"/><path fill="none" stroke="#FFF" stroke-width="2" stroke-linecap="round" stroke-linejoin="round" stroke-dasharray="0.999,0.999" d="M98.958 144.205c-.329.067-.661.12-.993.233-.65.223-1.275.53-1.951.692-.789.189-1.503.519-2.259.821-.664.268-1.439.312-2.046.627-.601.308-.486-.13-.338-.57.501-1.506.866-3.045 1.368-4.545"/><path fill="none" stroke="#FFF" stroke-width="2" stroke-linecap="round" stroke-linejoin="round" d="M92.903 140.989c.056-.157.114-.313.175-.469.147.077.295.151.445.223"/><path fill="none" stroke="#FFF" stroke-width="2" stroke-linecap="round" stroke-linejoin="round" stroke-dasharray="0.991,0.991" d="M94.423 141.146c.585.25 1.18.485 1.765.746.344.15.677.319 1.027.459.46.179.875.436 1.348.601.296.103.582.227.869.346"/><path fill="none" stroke="#FFF" stroke-width="2" stroke-linecap="round" stroke-linejoin="round" d="M99.895 143.492c.15.078.285.175.44.23m.866 2.363c-.17.048-.32.114-.466.181"/><path fill="none" stroke="#FFF" stroke-width="2" stroke-linecap="round" stroke-linejoin="round" stroke-dasharray="0.999,0.999" d="M99.792 146.583c-.33.068-.662.12-.992.233-.652.224-1.275.532-1.951.693-.789.189-1.504.518-2.259.822-.664.267-1.439.312-2.048.625-.6.309-.484-.128-.336-.569.501-1.505.866-3.045 1.368-4.546"/><path fill="none" stroke="#FFF" stroke-width="2" stroke-linecap="round" stroke-linejoin="round" d="M93.738 143.367c.056-.157.114-.312.174-.469.147.077.296.151.446.222"/><path fill="none" stroke="#FFF" stroke-width="2" stroke-linecap="round" stroke-linejoin="round" stroke-dasharray="0.991,0.991" d="M95.258 143.525c.586.25 1.18.485 1.766.745.341.152.675.319 1.026.458.459.18.874.438 1.348.603.296.103.581.226.869.345"/><path fill="none" stroke="#FFF" stroke-width="2" stroke-linecap="round" stroke-linejoin="round" d="M100.731 145.871c.149.078.283.174.44.229"/><text transform="translate(28.12 414.308)" fill="#FFF" font-family="'Roboto-Regular'" font-size="20">A rede de EMBAIXADORES</text><text transform="translate(28.12 437.308)" fill="#FFF" font-family="'Roboto-Regular'" font-size="20">amplia a distribuição de filmes</text><text transform="translate(28.12 460.308)" fill="#FFF" font-family="'Roboto-Regular'" font-size="20">e contribui para democratizar</text><text transform="translate(28.12 483.308)" fill="#FFF" font-family="'Roboto-Regular'" font-size="20">o acesso à cultura!</text><path fill="none" stroke="#F2F2F2" stroke-width="2" stroke-miterlimit="10" d="M848.206 259.303c10.926 21.053 21-5.564 34.924-4.885 9.193.449 10.975 8.543 20.764 4.546 6.541-2.672 11.059-9.8 18.43-9.506m20.259-49.921c-1.18 2.088-9.684 17.773-12.387 24.475.357 3.207 1.057 6.374 1.24 9.625 2.709-1.395 5.357-3.576 7.848-5.306 1.447-2.322 7.98-18.176 11.305-23.889 3.453-5.933 6.541-12.263 10.072-18.22 2.479-4.181 4.521-9.474 7.191-13.562-1.414-1.112-3.109-2.056-4.506-2.676a27.947 27.947 0 0 0-4.871-1.66c-1.959 3.358-5.621 9.961-7.141 13.668-2.734 6.66-5.24 11.338-8.751 17.545z"/><path fill="none" stroke="#F2F2F2" stroke-width="2" stroke-miterlimit="10" d="M930.196 224.012c2.705-6.701 11.207-22.386 12.389-24.474 3.508-6.209 6.016-10.886 8.75-17.545 1.521-3.708 5.182-10.31 7.141-13.669-3.18-.768-6.266-.899-10.045-.899 0 0-4.295 8.643-5.154 10.226-4.855 8.938-8.758 17.765-12.666 27.066-1.568 3.738-3.406 7.325-4.643 11.14-.836 2.58-3.359 9.177-3.359 9.177-.344.937-.518 2.023-.613 3.17 1.146-.509 2.287-1.133 3.084-1.568 1.415-.777 3.553-2.501 5.116-2.624z"/><path fill="none" stroke="#F2F2F2" stroke-width="2" stroke-miterlimit="10" d="M969.688 174.44c-.486-.625-1.129-1.223-1.836-1.78-2.67 4.088-4.713 9.38-7.191 13.56-3.533 5.957-6.619 12.287-10.074 18.22-3.322 5.713-9.855 21.567-11.303 23.892 1.035 1.558 1.5 3.627 1.717 5.475.152 1.313.016 2.8.072 4.216-.057-1.416.08-2.903-.072-4.216-.217-1.848-.682-3.917-1.717-5.475-2.492 1.728-5.139 3.91-7.848 5.304-.184-3.251-.883-6.418-1.24-9.624-1.561.122-3.701 1.848-5.117 2.622-.795.435-1.936 1.059-3.084 1.569-.24 2.859.082 6.132-.057 8.649-.035.649-.217 2.173-.361 3.95 1.879-.573 4.158-.527 5.508.236 1.488.837 2.375 2.891 2.613 4.895 1.557-.755 3.115-1.524 4.551-2.498 3.027-2.05 8.463-6.826 8.463-6.826.789-1.23 4.678-7.072 5.562-9.039 2.152-4.762 11.889-21.76 14.625-26.452 2.59-4.443 5.434-8.452 7.385-13.239.91-2.23 3.881-6.797 3.881-6.797-.748-1.941-3.207-5.01-4.477-6.642z"/><path fill="#F2F2F2" d="M922.614 242.448c.264-.121.512-.274.771-.4l-2.051-2.053c-.561.858-1.119 1.653-1.371 2.659-.314 1.254 1.047 2.387 2.203 1.694 1.01-.607 1.717-1.594 2.76-2.123 1.734-.879.213-3.422-1.514-2.59-.785.377-1.303.868-1.816 1.562-.518.7-.559 1.658-1.131 2.326-1.256 1.459.682 3.441 2.119 2.122.916-.838 1.498-2.693 2.645-3.172l-1.459-2.507c-.615.779-1.357 1.469-1.918 2.288-.646.943-.857 1.948-1.309 2.978-.754 1.726 1.631 3.245 2.592 1.514.93-1.677 2.025-3.383 3.711-4.38-.684-.685-1.367-1.369-2.053-2.053-.826 1.099-1.904 1.982-2.699 3.109-.357.506-.779 1.08-.939 1.691-.25.942-.076 1.864-.279 2.799-.369 1.707 1.77 2.547 2.742 1.156 1.461-2.09 2.25-4.665 4.316-6.275l-2.355-1.818c-1.486 2.703-3.066 5.327-4.254 8.181-.662 1.591 1.936 2.614 2.742 1.155 1.26-2.279 2.24-5.093 4.504-6.585l-2.053-2.052c-1.105 1.803-1.865 3.825-3.213 5.473.787.606 1.572 1.212 2.357 1.819.955-1.583 2.154-3.091 3.701-4.126l-2.051-2.053c-.646 1.148-1.275 2.367-2.244 3.279-1.42 1.336.68 3.389 2.121 2.121.861-.758 1.547-1.723 2.49-2.383l-2.201-1.693c-.072.409-.23.781-.473 1.116-.854 1.464 1.164 3.063 2.355 1.817.309-.323.633-.622.959-.928 1.414-1.324-.711-3.442-2.121-2.122-.326.306-.65.606-.961.93.787.604 1.572 1.211 2.355 1.817.348-.594.609-1.167.775-1.833.301-1.19-1.068-2.483-2.203-1.694-1.174.818-2.031 1.913-3.098 2.852l2.121 2.121c1.152-1.086 1.943-2.518 2.713-3.886.703-1.251-.756-2.919-2.053-2.052-1.984 1.327-3.549 3.168-4.777 5.202-.865 1.431 1.26 3.157 2.355 1.817 1.527-1.869 2.428-4.038 3.68-6.08.768-1.253-.783-2.888-2.053-2.052-2.791 1.84-4.02 4.841-5.578 7.662.914.384 1.826.77 2.74 1.155 1.084-2.603 2.596-4.999 3.951-7.463.875-1.592-1.066-2.822-2.355-1.818-2.283 1.779-3.176 4.579-4.787 6.882l2.742 1.156c.309-1.423.027-2.654 1.002-3.87.832-1.042 1.809-1.943 2.615-3.013.939-1.25-.842-2.77-2.053-2.052-2.129 1.26-3.607 3.329-4.789 5.457l2.592 1.514c.363-.837.58-1.744 1.012-2.546.422-.781 1.195-1.418 1.744-2.112.799-1.011.104-3.161-1.459-2.507-2.018.843-2.467 2.567-3.967 3.942.705.708 1.412 1.415 2.119 2.122.898-1.044 1.082-2.814 2.342-3.42-.506-.863-1.01-1.727-1.514-2.59-1.076.544-1.746 1.514-2.76 2.123l2.203 1.694c.186-.74.658-1.316 1.07-1.943.885-1.356-.797-2.66-2.055-2.052-.26.126-.508.281-.771.401-1.752.807-.226 3.392 1.518 2.59"/><path fill="none" stroke="#FFF" stroke-width="2" stroke-miterlimit="10" d="M971.36 406.899c6.32-41.484 117.266-52.91 111.328 13.85-2.256 25.352-38.076 34.166-63.758 31.85-1.393 1.768-3.092 3.564-4.023 4.674-3.213 3.824-6.336 7.756-9.08 11.824-1.445-6.234.211-12.389 1.49-18.51-15.477-4.295-39.826-18.279-35.957-43.688z"/><path fill="none" stroke="#FFF" stroke-width="2" stroke-miterlimit="10" d="M989.301 416.112c-4.633-30.418-85.982-38.795-81.629 10.154 1.652 18.59 27.92 25.055 46.75 23.355 1.02 1.299 2.266 2.613 2.949 3.425 2.357 2.806 4.646 5.688 6.658 8.673 1.055-4.572-.154-9.084-1.094-13.572 11.347-3.148 29.202-13.402 26.366-32.035z"/><path fill="none" stroke="#FFF" stroke-width="2" stroke-miterlimit="10" d="M939.653 429.282l.139 1.16.119.539c.311.623.746.902 1.301.836l.475-.057.055-.064-.148-1.227c-.027-.236-.068-.398-.119-.48-.275-.623-.699-.9-1.27-.832l-.504.061-.048.064zm-3.963-11.879l.049.396.113.516c.283.584.688.844 1.211.781l1.828-.217.857-.037c.914.166 1.43.752 1.551 1.764l.047.398.029.678c-.152.986-.678 1.532-1.582 1.643-.559.252-.803.672-.732 1.264l.287 2.41.105.418c.33.682.805.986 1.426.912l.369-.045.045-.064-.373-3.115c.445-.141.881-.41 1.309-.803.748-.883 1.062-1.83.941-2.834l-.174-1.465c-.035-.307-.141-.686-.309-1.143-.744-1.479-1.887-2.127-3.426-1.941l-3.525.42-.046.064zm13.887 10.694l.141 1.16.117.541c.312.623.748.902 1.303.836l.473-.057.057-.066-.148-1.227c-.027-.236-.068-.396-.119-.48-.275-.623-.699-.898-1.27-.832l-.506.061-.048.064zm-3.961-11.879l.049.398.113.514c.283.584.686.844 1.211.781l1.828-.217.857-.035c.914.164 1.43.752 1.551 1.764l.047.398.027.676c-.15.987-.676 1.535-1.58 1.643-.561.252-.803.674-.732 1.265l.287 2.411.105.416c.328.682.805.986 1.426.912l.369-.043.045-.064-.373-3.115c.445-.142.881-.412 1.309-.803.748-.885 1.062-1.83.941-2.836l-.174-1.465c-.037-.305-.141-.684-.309-1.143-.744-1.477-1.887-2.127-3.426-1.941l-3.525.42-.046.064zm13.886 10.693l.141 1.16.117.541c.312.623.748.902 1.303.836l.473-.057.057-.066-.148-1.225c-.027-.238-.068-.398-.119-.48-.275-.625-.699-.9-1.27-.832l-.506.061-.048.062zm-3.96-11.877l.049.396.113.516c.281.584.686.844 1.211.781l1.828-.219.857-.035c.914.166 1.43.752 1.551 1.764l.047.398.027.676c-.15.988-.678 1.534-1.58 1.643-.561.252-.803.674-.734 1.266l.289 2.41.105.416c.328.682.805.986 1.426.912l.367-.043.047-.064-.373-3.115c.445-.141.879-.41 1.309-.803.748-.883 1.062-1.83.941-2.834l-.174-1.467c-.037-.305-.141-.684-.309-1.141-.744-1.479-1.887-2.127-3.428-1.943l-3.523.422-.046.064zm66.728 6.461l.186 1.576.158.699c.389.902 1.008 1.304 1.859 1.203l.57-.068.074-.088-.227-1.912-.15-.531c-.396-.795-1.043-1.139-1.943-1.033l-.467.057-.06.097zm-1.969-16.482l1.502 12.582.109.568c.4.994 1.021 1.439 1.867 1.338l.611-.072.072-.1-1.523-12.771c-.285-1.26-.912-1.83-1.879-1.715l-.697.084-.062.086zm8.672 15.681l.188 1.576.158.699c.387.904 1.006 1.304 1.859 1.203l.568-.066.074-.09-.229-1.91-.146-.531c-.396-.797-1.045-1.141-1.945-1.035l-.467.057-.06.097zm-1.969-16.482l1.502 12.582.109.568c.402.994 1.021 1.439 1.867 1.34l.611-.074.072-.098-1.523-12.773c-.285-1.258-.91-1.83-1.879-1.715l-.697.084-.062.086zm8.674 15.684l.186 1.574.158.699c.389.904 1.008 1.306 1.859 1.203l.57-.067.074-.089-.227-1.911-.15-.53c-.396-.797-1.043-1.141-1.943-1.033l-.467.055-.06.099zm-1.969-16.483l1.502 12.582.109.568c.4.994 1.021 1.438 1.867 1.338l.611-.074.072-.098-1.523-12.773c-.285-1.258-.91-1.83-1.879-1.713l-.697.082-.062.088z"/><path fill="#DF4944" d="M862.036 562.274c-2.65 4.24-6.123 6.872-8.678 10.943-3.096 4.951-5.109 10.311-8.619 15.215-5.006 7.006-11.033 13.382-15.338 20.894-5.021 8.776-11.635 16.166-18.021 24.12-5.615 7.013-8.742 16.135-14.781 22.303-5.947 6.098.082 6.243 6.279 6.047 25.574-.832 51.17.916 76.65-1.041-3.506-13.805-5.014-27.959-7.617-42.076-.848-4.637-1.932-9.22-2.588-13.899-.832-6.146-2.805-12.013-3.396-18.263-.514-5.426-1.586-10.719-2.309-16.103-.357-2.772-1.605-5.19-1.889-7.825"/><path fill="none" stroke="#F2F2F2" stroke-width="2" stroke-miterlimit="10" d="M799.073 552.171c3.918 1.846 8.293 2.028 12.066 3.813 4.578 2.165 8.084 5.231 13.096 7.153 7.133 2.736 15.199 4.426 21.723 7.945 7.594 4.098 16.541 6.273 25.406 9.004 7.787 2.406 13.451 7.795 21.473 9.338 7.92 1.522 1.508 4.879-5.154 8.049-27.525 13.105-54.414 28.227-82.131 40.41.221-12.584-1.787-24.375-2.607-36.697-.275-4.067-.277-8.196-.791-12.174-.674-5.215-.074-10.816-1.037-15.965-.836-4.484-1.035-9.181-1.654-13.72-.311-2.353.404-4.892.014-7.086"/><path fill="none" stroke="#F2F2F2" stroke-width="2" stroke-miterlimit="10" d="M804.538 542.884c3.994 1.813 8.465 1.95 12.307 3.707 4.662 2.129 8.23 5.164 13.336 7.037 7.27 2.68 15.5 4.291 22.146 7.758 7.73 4.031 16.859 6.129 25.895 8.777 7.947 2.336 13.699 7.684 21.885 9.15 8.082 1.449 1.508 4.884-5.316 8.125-28.201 13.416-55.766 28.843-84.158 41.338.301-12.621-1.674-24.43-2.443-36.772-.25-4.077-.229-8.224-.725-12.202-.656-5.228-.016-10.85-.963-16.004-.824-4.484-1.004-9.193-1.605-13.742-.309-2.35.439-4.91.055-7.105"/><path fill="#FFF" d="M51.055 301.196c-2.005 5.947-8.4 11.035-12.614 15.463-5.119 5.379-9.366 11.258-13.347 17.506-7.682 12.06-13.432 23.668-15.506 37.983-.993 6.851-1.857 13.815-2.384 20.72-.644 8.438-1.921 16.352-3.738 24.627-3.081 14.034-3.378 28.76-3.465 43.1-.041 6.886 3.459 12.453 4.312 19.045.932 7.195 1.481 14.271 3.173 21.371 3.323 13.945 9.44 27.596 16.188 40.194 3.47 6.479 7.654 12.502 11.007 19.036 3.439 6.701 7.962 12.619 11.303 19.37 2.944 5.95 6.222 11.565 9.646 17.237 3.161 5.234 7.789 8.643 12.274 12.582 2.06 1.81 4.703 2.752 7.181 3.841 3.723 1.634 6.062 3.807 9.263 6.118 7.006 5.062 13.692 10.504 21.396 14.5 6.094 3.162 13.228 4.83 19.78 6.902 7.908 2.501 16.493 3.94 23.22 9.098 1.536 1.179 3.027-1.43 1.514-2.59-4.661-3.574-10.153-5.601-15.844-6.869-6.741-1.504-13.037-4.647-19.736-6.319-6.568-1.64-12.304-5.339-17.796-9.188-5.586-3.914-10.534-9.066-16.438-12.418-2.37-1.346-4.978-2.281-7.436-3.455-2.313-1.104-3.789-2.912-5.903-4.225-6.35-3.943-10.317-11.466-13.939-17.763-3.286-5.716-5.409-12.373-9.436-17.612-4.785-6.225-7.79-13.693-11.964-20.311-8.233-13.051-14.707-27.373-19.448-42.045-2.261-7-3.018-13.979-4.37-21.148-.632-3.35-.505-6.73-1.312-10.05-1.013-4.163-2.96-7.731-3.486-12.095-.828-6.853.174-14.162.535-21.028.438-8.339.918-16.274 2.674-24.48 3.128-14.62 4.398-29.212 5.966-44.072 1.665-15.785 8.914-28.561 17.341-41.633 4.15-6.437 9.138-12.081 14.496-17.525 3.694-3.752 8.069-7.979 9.786-13.07.619-1.838-2.279-2.62-2.893-.797"/><path fill="#FFF" d="M151.001 648.595c-.052-7.047-3.216-14.253-6.705-20.257-.971-1.672-3.564-.162-2.59 1.515 3.206 5.517 6.247 12.285 6.295 18.742.014 1.934 3.014 1.935 3 0"/><path fill="#FFF" d="M149.501 647.095c-1.537.141-2.954.522-4.434.963-1.96.586-3.907.457-5.902.778-3.42.55-6.816.822-10.164 1.259-1.89.246-1.914 3.25 0 3 2.7-.352 5.313.021 8.024-.804 2.234-.679 4.555-.354 6.787-.833 1.901-.407 3.744-1.186 5.689-1.363 1.91-.174 1.927-3.176 0-3m226.845 84.409c21.238 15.556 49.886 21.08 75.501 24.259 16.023 1.989 32.122 3.313 48.212 4.621 16.3 1.326 32.575 2.991 48.918 3.653 31.773 1.287 63.65.677 95.443.67 6.967-.002 13.916-.109 20.84-.928 6.91-.818 13.246-3.134 19.895-5.007 13.074-3.683 26.682-5.175 40.096-7.053 18.016-2.521 36.125-5.901 51.893-15.457 8.445-5.119 15.602-11.913 23.791-17.381 3.607-2.41 7.389-4.803 10.854-7.429 3.561-2.697 5.838-6.957 8.854-10.183 1.32-1.41-.797-3.536-2.121-2.12-2.279 2.437-4.162 5.151-6.297 7.713-2.18 2.616-5.164 4.184-8.01 5.939-5.742 3.545-11.08 8.011-16.348 12.22-11.469 9.162-23.91 15.489-38.123 19.18-13.033 3.383-26.529 4.732-39.828 6.652-6.457.934-12.885 2.034-19.254 3.448-7.049 1.565-13.762 4.249-20.818 5.728-14.684 3.074-30.557 1.677-45.465 1.677-15.867 0-31.738.056-47.607-.066-32.74-.25-65.27-3.123-97.861-6.046-18.672-1.674-37.086-3.812-55.365-8.031-16.13-3.723-32.189-8.766-45.684-18.649-1.565-1.145-3.059 1.46-1.516 2.59"/><path fill="#FFF" d="M818.77 698.148c-4.223 1.316-8.508 3.104-12.936 3.613-1.898.218-1.92 3.221 0 3 4.75-.546 9.199-2.308 13.732-3.72 1.841-.573 1.056-3.471-.796-2.893"/><path fill="#FFF" d="M817.721 699.993c.346 2.345.934 4.906 1.049 7.253.09 1.849-.318 3.583.018 5.416.348 1.9 3.238 1.093 2.893-.798-.318-1.746.137-3.621.051-5.397-.115-2.363-.768-4.905-1.117-7.271-.281-1.908-3.171-1.094-2.894.797"/></svg>