<svg xmlns="http://www.w3.org/2000/svg" width="174" height="158.416"><path fill="none" stroke="#FFF" stroke-width="2" stroke-linecap="round" stroke-linejoin="round" stroke-miterlimit="10" d="M2.041 16.903c6.358 2.992 13.459 3.291 19.582 6.187 7.432 3.515 13.119 8.492 21.254 11.61 11.573 4.441 24.664 7.183 35.252 12.896 12.324 6.647 26.846 10.18 41.229 14.611 12.638 3.904 21.832 12.648 34.849 15.154 12.854 2.471 2.448 7.917-8.363 13.062-44.672 21.27-88.305 45.807-133.285 65.581.359-20.423-2.902-39.56-4.232-59.556-.449-6.6-.451-13.303-1.281-19.758-1.099-8.461-.126-17.552-1.688-25.908-1.354-7.276-1.681-14.897-2.685-22.264-.504-3.816.656-7.941.021-11.5"/><path fill="none" stroke="#FFF" stroke-width="2" stroke-linecap="round" stroke-linejoin="round" stroke-miterlimit="10" d="M10.908 1.832c6.481 2.942 13.739 3.164 19.973 6.017 7.568 3.454 13.357 8.38 21.644 11.42 11.795 4.347 25.152 6.963 35.938 12.59 12.551 6.541 27.363 9.944 42.027 14.245 12.896 3.789 22.229 12.469 35.514 14.848 13.115 2.354 2.447 7.926-8.629 13.186-45.768 21.772-90.498 46.808-136.576 67.087.488-20.484-2.717-39.646-3.965-59.678-.405-6.617-.373-13.347-1.176-19.805-1.065-8.48-.027-17.604-1.562-25.969-1.337-7.28-1.63-14.923-2.604-22.302-.504-3.814.709-7.97.086-11.532"/></svg>