<svg xmlns="http://www.w3.org/2000/svg" width="179.526" height="106"><g fill="none" stroke="#FFF" stroke-width="2" stroke-miterlimit="10"><path d="M65.912 38.737c6.32-41.484 117.266-52.91 111.328 13.85-2.256 25.352-38.076 34.166-63.758 31.85-1.393 1.768-3.092 3.564-4.023 4.674-3.213 3.824-6.336 7.756-9.08 11.824-1.445-6.234.211-12.389 1.49-18.51-15.476-4.295-39.826-18.279-35.957-43.688z"/><path d="M83.854 47.95C79.221 17.532-2.129 9.155 2.225 58.104c1.652 18.59 27.92 25.055 46.75 23.355 1.02 1.299 2.266 2.613 2.949 3.426 2.357 2.805 4.646 5.688 6.658 8.672 1.055-4.572-.154-9.084-1.094-13.572 11.346-3.148 29.201-13.402 26.366-32.035z"/><path d="M34.205 61.12l.139 1.16.119.539c.311.623.746.902 1.301.836l.475-.057.055-.064-.148-1.227c-.027-.236-.068-.398-.119-.48-.275-.623-.699-.9-1.27-.832l-.504.061-.048.064zm-3.963-11.879l.049.396.113.516c.283.584.688.844 1.211.781l1.828-.217.857-.037c.914.166 1.43.752 1.551 1.764l.047.398.029.678c-.152.986-.678 1.533-1.582 1.643-.559.252-.803.672-.732 1.264l.287 2.41.105.418c.33.682.805.986 1.426.912l.369-.045.045-.064-.373-3.115c.445-.141.881-.41 1.309-.803.748-.883 1.062-1.83.941-2.834l-.174-1.465c-.035-.307-.141-.686-.309-1.143-.744-1.479-1.887-2.127-3.426-1.941l-3.525.42-.046.064zm13.887 10.694l.141 1.16.117.541c.312.623.748.902 1.303.836l.473-.057.057-.066-.148-1.227c-.027-.236-.068-.396-.119-.48-.275-.623-.699-.898-1.27-.832l-.506.061-.048.064zm-3.961-11.879l.049.398.113.514c.283.584.686.844 1.211.781l1.828-.217.857-.035c.914.164 1.43.752 1.551 1.764l.047.398.027.676c-.15.988-.676 1.535-1.58 1.643-.561.252-.803.674-.732 1.266l.287 2.41.105.416c.328.682.805.986 1.426.912l.369-.043.045-.064-.373-3.115c.445-.141.881-.412 1.309-.803.748-.885 1.062-1.83.941-2.836l-.174-1.465c-.037-.305-.141-.684-.309-1.143-.744-1.477-1.887-2.127-3.426-1.941l-3.525.42-.046.064zm13.887 10.693l.141 1.16.117.541c.312.623.748.902 1.303.836l.473-.057.057-.066-.148-1.225c-.027-.238-.068-.398-.119-.48-.275-.625-.699-.9-1.27-.832l-.506.061-.048.062zm-3.961-11.877l.049.396.113.516c.281.584.686.844 1.211.781l1.828-.219.857-.035c.914.166 1.43.752 1.551 1.764l.047.398.027.676c-.15.988-.678 1.535-1.58 1.643-.561.252-.803.674-.734 1.266l.289 2.41.105.416c.328.682.805.986 1.426.912l.367-.043.047-.064-.373-3.115c.445-.141.879-.41 1.309-.803.748-.883 1.062-1.83.941-2.834L57.4 49.47c-.037-.305-.141-.684-.309-1.141-.744-1.479-1.887-2.127-3.428-1.943l-3.523.422-.046.064zm66.728 6.461l.186 1.576.158.699c.389.902 1.008 1.305 1.859 1.203l.57-.068.074-.088-.227-1.912-.15-.531c-.396-.795-1.043-1.139-1.943-1.033l-.467.057-.06.097zm-1.968-16.482l1.502 12.582.109.568c.4.994 1.021 1.439 1.867 1.338l.611-.072.072-.1-1.523-12.771c-.285-1.26-.912-1.83-1.879-1.715l-.697.084-.062.086zm8.671 15.681l.188 1.576.158.699c.387.904 1.006 1.305 1.859 1.203l.568-.066.074-.09-.229-1.91-.146-.531c-.396-.797-1.045-1.141-1.945-1.035l-.467.057-.06.097zm-1.968-16.482l1.502 12.582.109.568c.402.994 1.021 1.439 1.867 1.34l.611-.074.072-.098-1.523-12.773c-.285-1.258-.91-1.83-1.879-1.715l-.697.084-.062.086zm8.673 15.683l.186 1.574.158.699c.389.904 1.008 1.307 1.859 1.203l.57-.066.074-.09-.227-1.91-.15-.531c-.396-.797-1.043-1.141-1.943-1.033l-.467.055-.06.099zm-1.968-16.482l1.502 12.582.109.568c.4.994 1.021 1.438 1.867 1.338l.611-.074.072-.098-1.523-12.773c-.285-1.258-.91-1.83-1.879-1.713l-.697.082-.062.088z"/></g></svg>