<svg xmlns="http://www.w3.org/2000/svg" width="129.333" height="104"><path fill="none" stroke="#F3F3F3" stroke-width="2" stroke-miterlimit="10" d="M1.688 93.88c10.926 21.054 21.001-5.563 34.923-4.885 9.195.449 10.977 8.543 20.764 4.546 6.543-2.672 11.059-9.8 18.43-9.506m20.261-49.92c-1.18 2.088-9.684 17.773-12.387 24.474.355 3.207 1.057 6.375 1.238 9.625 2.709-1.395 5.357-3.576 7.85-5.306 1.447-2.322 7.979-18.176 11.303-23.889 3.453-5.933 6.541-12.263 10.072-18.22 2.479-4.181 4.523-9.474 7.191-13.561-1.412-1.112-3.107-2.056-4.504-2.676a28.02 28.02 0 0 0-4.873-1.66c-1.957 3.357-5.619 9.961-7.141 13.668-2.732 6.66-5.239 11.337-8.749 17.545z"/><path fill="none" stroke="#F3F3F3" stroke-width="2" stroke-miterlimit="10" d="M83.679 58.589c2.703-6.701 11.207-22.386 12.387-24.474 3.51-6.209 6.018-10.886 8.752-17.545 1.52-3.708 5.18-10.31 7.139-13.669-3.178-.768-6.266-.901-10.043-.901 0 0-4.295 8.644-5.154 10.227-4.856 8.938-8.76 17.765-12.667 27.066-1.568 3.738-3.408 7.325-4.645 11.14-.834 2.58-3.357 9.177-3.357 9.177-.344.937-.52 2.023-.615 3.17 1.148-.509 2.289-1.133 3.084-1.568 1.416-.775 3.557-2.5 5.119-2.623zm-3.111 17.026c-1.352-.763-3.631-.809-5.508-.235-.291 3.623-.42 8.299 1.195 8.752.895.25 4.426-2.396 5.363-2.859.518-.259 1.039-.509 1.561-.762-.238-2.004-1.125-4.059-2.611-4.896z"/><path fill="none" stroke="#F3F3F3" stroke-width="2" stroke-miterlimit="10" d="M123.171 9.018c-.486-.625-1.129-1.223-1.838-1.78-2.668 4.088-4.713 9.38-7.191 13.561-3.531 5.957-6.619 12.287-10.072 18.22-3.324 5.713-9.855 21.567-11.303 23.891 1.035 1.559 1.5 3.627 1.715 5.476.152 1.312.018 2.8.074 4.216-.057-1.416.078-2.903-.074-4.216-.215-1.849-.68-3.917-1.715-5.476-2.492 1.729-5.141 3.911-7.85 5.305-.182-3.251-.881-6.418-1.238-9.625-1.562.122-3.701 1.848-5.119 2.622-.795.435-1.936 1.059-3.084 1.568-.238 2.86.082 6.132-.055 8.65-.037.649-.219 2.173-.361 3.95 1.877-.573 4.158-.527 5.508.235 1.486.837 2.373 2.892 2.611 4.896 1.559-.755 3.117-1.524 4.553-2.498 3.025-2.05 8.463-6.826 8.463-6.826.787-1.229 4.676-7.072 5.562-9.039 2.15-4.762 11.887-21.76 14.623-26.452 2.59-4.443 5.434-8.453 7.387-13.24.908-2.229 3.879-6.797 3.879-6.797-.746-1.941-3.207-5.011-4.475-6.641z"/><path fill="#F3F3F3" d="M76.097 77.026c.262-.121.51-.275.771-.402l-2.053-2.052c-.561.858-1.119 1.653-1.371 2.659-.312 1.254 1.049 2.387 2.203 1.694 1.012-.607 1.717-1.595 2.76-2.123 1.734-.879.215-3.423-1.514-2.591-.785.378-1.303.868-1.814 1.562-.52.7-.559 1.658-1.133 2.326-1.254 1.459.682 3.44 2.121 2.122.914-.838 1.498-2.693 2.645-3.172l-1.459-2.508c-.615.779-1.357 1.47-1.918 2.288-.646.943-.859 1.948-1.309 2.979-.754 1.726 1.629 3.245 2.59 1.514.932-1.677 2.027-3.383 3.713-4.38l-2.053-2.053c-.828 1.099-1.904 1.981-2.699 3.107-.359.507-.779 1.081-.941 1.692-.248.942-.076 1.864-.279 2.799-.369 1.707 1.77 2.547 2.742 1.156 1.463-2.09 2.252-4.665 4.318-6.275l-2.357-1.817c-1.486 2.702-3.064 5.326-4.252 8.181-.662 1.591 1.936 2.614 2.742 1.155 1.26-2.279 2.24-5.094 4.502-6.585L80 76.251c-1.105 1.804-1.863 3.825-3.211 5.474l2.355 1.817c.957-1.582 2.154-3.09 3.703-4.126l-2.053-2.052c-.646 1.148-1.275 2.367-2.242 3.279-1.42 1.336.68 3.389 2.121 2.121.859-.758 1.545-1.725 2.49-2.383l-2.203-1.693a2.65 2.65 0 0 1-.473 1.116c-.852 1.464 1.166 3.062 2.355 1.816.309-.322.633-.623.959-.928 1.416-1.324-.709-3.442-2.121-2.122-.326.306-.65.606-.959.929l2.355 1.818c.346-.594.607-1.167.775-1.833.299-1.19-1.07-2.483-2.203-1.694-1.176.818-2.031 1.913-3.098 2.853l2.121 2.121c1.152-1.086 1.941-2.519 2.711-3.887.705-1.252-.754-2.92-2.051-2.052-1.984 1.327-3.551 3.168-4.779 5.202-.863 1.431 1.262 3.157 2.357 1.817 1.525-1.869 2.428-4.038 3.68-6.08.768-1.253-.783-2.89-2.053-2.053-2.791 1.841-4.02 4.842-5.578 7.661l2.74 1.156c1.084-2.603 2.596-4.999 3.949-7.463.877-1.592-1.066-2.822-2.354-1.818-2.283 1.779-3.176 4.579-4.787 6.883l2.742 1.155c.307-1.423.027-2.653 1-3.871.834-1.041 1.811-1.941 2.615-3.012.941-1.25-.84-2.77-2.053-2.052-2.127 1.26-3.605 3.329-4.787 5.457l2.59 1.514c.365-.837.58-1.744 1.012-2.546.422-.781 1.195-1.418 1.746-2.112.797-1.011.102-3.161-1.459-2.507-2.02.843-2.469 2.567-3.969 3.942l2.121 2.122c.896-1.044 1.082-2.814 2.34-3.42l-1.514-2.591c-1.076.545-1.744 1.515-2.76 2.123l2.205 1.694c.184-.74.658-1.316 1.068-1.943.887-1.355-.797-2.659-2.053-2.052-.262.126-.51.281-.771.401-1.751.81-.228 3.396 1.518 2.594"/></svg>