<svg xmlns="http://www.w3.org/2000/svg" width="183.485" height="152.666"><path fill="none" stroke="#FFF" stroke-width="2" stroke-linecap="round" stroke-linejoin="round" stroke-miterlimit="10" d="M16.841 64.877c.694 1.949 1.868 3.322 2.541 5.201.81 2.28 1.147 4.623 2.131 6.927 1.405 3.275 3.279 6.395 4.351 9.821 1.252 3.995 3.269 7.57 5.148 11.366 1.648 3.335 2.105 7.302 3.996 10.34 1.867 2.995-.588 2.521-3.078 1.886-10.275-2.61-20.794-4.179-30.93-7.238 2.65-5.277 4.517-10.872 6.826-16.35.754-1.803 1.604-3.563 2.285-5.396.881-2.417 2.201-4.618 2.998-7.092.687-2.151 1.598-4.195 2.367-6.313.393-1.089 1.114-1.955 1.457-2.999"/><path fill="none" stroke="#FFF" stroke-width="2" stroke-linecap="round" stroke-linejoin="round" stroke-miterlimit="10" d="M29.841 59.93c.697 1.949 1.869 3.32 2.54 5.199.812 2.282 1.15 4.624 2.135 6.924 1.404 3.28 3.278 6.396 4.348 9.823 1.257 3.997 3.271 7.571 5.148 11.367 1.649 3.337 2.105 7.302 3.995 10.34 1.868 2.996-.588 2.521-3.075 1.886-10.277-2.611-20.793-4.178-30.93-7.24 2.648-5.273 4.518-10.871 6.823-16.349.757-1.801 1.604-3.56 2.286-5.398.884-2.411 2.203-4.613 2.998-7.09.688-2.146 1.599-4.196 2.369-6.312.391-1.087 1.111-1.954 1.459-2.998m81.377-26.183c-1.434-.647-2.806-.728-4.19-1.351-1.677-.759-3.14-1.808-4.92-2.483-2.538-.959-5.235-1.576-7.679-2.798-2.851-1.42-5.875-2.2-8.947-3.174-2.698-.854-5.111-2.695-7.775-3.263-2.627-.556-1.07-1.651.59-2.682 6.852-4.255 13.26-9.194 20.283-13.136 1.494 4.236 3.577 8.211 5.36 12.365.592 1.364 1.108 2.758 1.754 4.101.86 1.757 1.37 3.642 2.306 5.383.817 1.511 1.457 3.089 2.211 4.628.391.79.485 1.643.877 2.381"/><path fill="none" stroke="#FFF" stroke-width="2" stroke-linecap="round" stroke-linejoin="round" stroke-miterlimit="10" d="M107.17 43.636c-1.436-.646-2.805-.728-4.189-1.351-1.68-.759-3.141-1.808-4.921-2.481-2.538-.96-5.235-1.576-7.679-2.798-2.853-1.42-5.875-2.202-8.945-3.174-2.699-.856-5.114-2.697-7.775-3.264-2.627-.557-1.072-1.652.588-2.681 6.852-4.257 13.258-9.195 20.283-13.136 1.494 4.232 3.576 8.212 5.363 12.363.588 1.365 1.104 2.76 1.753 4.102.856 1.755 1.366 3.642 2.304 5.382.814 1.511 1.457 3.09 2.211 4.63.392.787.485 1.641.875 2.38m53.808 38.134c-.777 2.672-.582 5.095-1.329 7.673-.915 3.125-2.392 5.946-3.135 9.232-1.052 4.681-1.466 9.561-3.001 14.142-1.782 5.344-2.401 10.831-3.344 16.454-.832 4.936-3.461 9.618-3.795 14.425-.325 4.738-2.629 2.285-4.844-.37-9.147-10.948-19.38-20.95-28.022-32.278 7.051-3.666 13.497-8.295 20.332-12.447 2.245-1.371 4.56-2.62 6.75-4.084 2.864-1.939 6.04-3.3 8.86-5.37 2.443-1.804 5.049-3.314 7.558-5.018 1.286-.877 2.756-1.253 3.952-2.121"/><path fill="none" stroke="#FFF" stroke-width="2" stroke-linecap="round" stroke-linejoin="round" stroke-miterlimit="10" d="M178.924 86.594c-.775 2.675-.58 5.094-1.329 7.671-.912 3.129-2.392 5.95-3.13 9.234-1.055 4.684-1.467 9.56-3.004 14.139-1.781 5.349-2.403 10.836-3.346 16.454-.832 4.939-3.463 9.623-3.795 14.425-.326 4.739-2.631 2.288-4.84-.366-9.152-10.951-19.383-20.949-28.021-32.279 7.044-3.662 13.496-8.294 20.328-12.449 2.246-1.367 4.558-2.617 6.75-4.084 2.863-1.932 6.041-3.295 8.857-5.366 2.444-1.8 5.051-3.316 7.562-5.018 1.281-.879 2.752-1.254 3.951-2.12m-.153-53.348c-1.543.302-2.709 1.027-4.199 1.32-1.808.35-3.607.339-5.451.817-2.625.684-5.184 1.739-7.883 2.153-3.147.489-6.066 1.601-9.135 2.583-2.697.861-5.73.753-8.232 1.83-2.465 1.064-1.829-.729-1.067-2.529 3.13-7.433 5.507-15.166 8.96-22.442 3.668 2.593 7.664 4.633 11.52 6.993 1.271.771 2.5 1.61 3.803 2.332 1.717.937 3.223 2.18 4.992 3.061 1.539.761 2.975 1.678 4.479 2.498.774.419 1.345 1.06 2.091 1.438"/><path fill="none" stroke="#FFF" stroke-width="2" stroke-linecap="round" stroke-linejoin="round" stroke-miterlimit="10" d="M181 43.828c-1.545.304-2.709 1.029-4.199 1.319-1.81.353-3.608.34-5.45.82-2.627.683-5.185 1.739-7.884 2.153-3.149.491-6.067 1.6-9.135 2.58-2.699.862-5.731.756-8.23 1.831-2.467 1.065-1.831-.729-1.07-2.528 3.131-7.434 5.506-15.166 8.96-22.441 3.666 2.59 7.664 4.634 11.522 6.99 1.269.773 2.496 1.611 3.802 2.333 1.712.938 3.219 2.183 4.99 3.062 1.536.762 2.975 1.68 4.481 2.499.772.417 1.342 1.058 2.088 1.438M80.947 84.346c1.098-.037 1.983-.408 3.043-.444 1.285-.041 2.525.166 3.85.041 1.886-.18 3.769-.624 5.676-.61 2.227.013 4.361-.43 6.588-.768 1.955-.294 4.035.117 5.879-.348 1.818-.46 1.18.707.456 1.863-2.983 4.778-5.481 9.849-8.671 14.481-2.242-2.194-4.771-4.045-7.169-6.1-.791-.675-1.544-1.39-2.361-2.031-1.081-.836-1.981-1.861-3.104-2.665-.979-.696-1.865-1.488-2.812-2.22-.486-.375-.809-.882-1.281-1.224"/><path fill="none" stroke="#FFF" stroke-width="2" stroke-linecap="round" stroke-linejoin="round" stroke-miterlimit="10" d="M80.547 76.964c1.1-.038 1.982-.407 3.043-.442 1.285-.042 2.525.165 3.85.039 1.888-.18 3.768-.623 5.676-.61 2.227.011 4.361-.429 6.586-.765 1.956-.295 4.036.115 5.88-.351 1.819-.46 1.181.707.457 1.863-2.985 4.779-5.479 9.849-8.671 14.481-2.241-2.192-4.771-4.045-7.171-6.099-.787-.676-1.541-1.389-2.362-2.03-1.076-.838-1.979-1.863-3.102-2.666-.975-.695-1.865-1.488-2.812-2.222-.486-.373-.809-.879-1.281-1.224m-40.303 57.628c.553.415 1.133.581 1.667.981.646.487 1.172 1.076 1.871 1.538.994.656 2.094 1.179 3.023 1.937 1.086.882 2.307 1.507 3.53 2.22 1.075.625 1.933 1.648 3.021 2.146 1.072.491.3.812-.512 1.093-3.346 1.167-6.568 2.667-9.957 3.683-.234-1.958-.744-3.863-1.109-5.816-.123-.641-.211-1.289-.357-1.926-.201-.836-.238-1.693-.473-2.529-.205-.725-.327-1.464-.504-2.195-.09-.377-.049-.752-.146-1.105"/><path fill="none" stroke="#FFF" stroke-width="2" stroke-linecap="round" stroke-linejoin="round" stroke-miterlimit="10" d="M43.049 130.79c.555.415 1.133.581 1.667.982.647.487 1.174 1.077 1.872 1.536.996.656 2.093 1.18 3.021 1.938 1.088.883 2.308 1.508 3.53 2.221 1.076.625 1.935 1.647 3.021 2.146 1.072.492.302.812-.51 1.093-3.347 1.167-6.566 2.668-9.957 3.684-.234-1.959-.744-3.864-1.111-5.816-.121-.643-.209-1.288-.358-1.927-.198-.834-.235-1.692-.469-2.528-.206-.727-.329-1.465-.504-2.198-.093-.373-.05-.749-.146-1.104M32.332 13.815c-.385.117-.662.331-1.035.444-.45.135-.908.178-1.365.347-.65.241-1.275.574-1.951.749-.789.205-1.503.562-2.259.89-.664.289-1.438.338-2.047.677-.601.334-.485-.14-.337-.616.606-1.973 1.013-4 1.707-5.939.998.566 2.068.983 3.109 1.485.344.163.678.346 1.027.497.46.193.875.472 1.348.649.411.155.801.353 1.204.522.207.087.37.235.568.312"/><path fill="none" stroke="#FFF" stroke-width="2" stroke-linecap="round" stroke-linejoin="round" stroke-miterlimit="10" d="M33.168 16.39c-.385.117-.662.331-1.035.442-.451.136-.91.18-1.365.349-.652.241-1.275.575-1.951.749-.789.205-1.504.562-2.26.89-.664.289-1.438.339-2.047.677-.601.334-.484-.139-.336-.616.606-1.972 1.014-4 1.705-5.939 1 .566 2.069.984 3.112 1.484.341.165.675.346 1.026.495.459.196.873.475 1.348.653.41.154.8.351 1.205.521.206.087.367.235.568.312"/></svg>