<svg xmlns="http://www.w3.org/2000/svg" width="29.168" height="29.167"><path fill="#DF4944" d="M23.529 0H5.637A5.641 5.641 0 0 0 0 5.637v17.894a5.642 5.642 0 0 0 5.637 5.636H23.53a5.645 5.645 0 0 0 5.639-5.636V5.637A5.645 5.645 0 0 0 23.529 0m1.618 3.363l.644-.004v4.944l-4.926.017-.017-4.943 4.299-.014zM10.422 11.59c.934-1.293 2.449-2.14 4.162-2.14s3.228.847 4.162 2.14c.607.844.973 1.877.973 2.993a5.142 5.142 0 0 1-5.135 5.134 5.14 5.14 0 0 1-5.135-5.134 5.1 5.1 0 0 1 .973-2.993m15.904 11.941a2.798 2.798 0 0 1-2.797 2.795H5.637a2.797 2.797 0 0 1-2.795-2.795V11.59h4.354a7.939 7.939 0 0 0-.587 2.993c0 4.398 3.578 7.976 7.976 7.976s7.976-3.577 7.976-7.976a7.936 7.936 0 0 0-.589-2.993h4.355v11.941z"/></svg>