<?xml version="1.0" encoding="UTF-8" standalone="no"?>
<svg
   xmlns:dc="http://purl.org/dc/elements/1.1/"
   xmlns:cc="http://creativecommons.org/ns#"
   xmlns:rdf="http://www.w3.org/1999/02/22-rdf-syntax-ns#"
   xmlns:svg="http://www.w3.org/2000/svg"
   xmlns="http://www.w3.org/2000/svg"
   xmlns:xlink="http://www.w3.org/1999/xlink"
   xmlns:sodipodi="http://sodipodi.sourceforge.net/DTD/sodipodi-0.dtd"
   xmlns:inkscape="http://www.inkscape.org/namespaces/inkscape"
   width="130.39597"
   height="68.614601"
   version="1.1"
   id="svg130"
   sodipodi:docname="logo_footer2.svg"
   inkscape:version="0.92.3 (2405546, 2018-03-11)">
  <metadata
     id="metadata134">
    <rdf:RDF>
      <cc:Work
         rdf:about="">
        <dc:format>image/svg+xml</dc:format>
        <dc:type
           rdf:resource="http://purl.org/dc/dcmitype/StillImage" />
        <dc:title></dc:title>
      </cc:Work>
    </rdf:RDF>
  </metadata>
  <sodipodi:namedview
     pagecolor="#ffffff"
     bordercolor="#666666"
     borderopacity="1"
     objecttolerance="10"
     gridtolerance="10"
     guidetolerance="10"
     inkscape:pageopacity="0"
     inkscape:pageshadow="2"
     inkscape:window-width="2560"
     inkscape:window-height="1475"
     id="namedview132"
     showgrid="false"
     fit-margin-top="0"
     fit-margin-left="0"
     fit-margin-right="0"
     fit-margin-bottom="0"
     inkscape:zoom="2.3137255"
     inkscape:cx="66.525966"
     inkscape:cy="29.192003"
     inkscape:window-x="0"
     inkscape:window-y="0"
     inkscape:window-maximized="1"
     inkscape:current-layer="svg130" />
  <defs
     id="defs41">
    <path
       id="a"
       d="M -205.667,-3782.31 H 1174.471 V 220.331 H -205.667 Z"
       inkscape:connector-curvature="0" />
  </defs>
  <clipPath
     id="b">
    <use
       xlink:href="#a"
       overflow="visible"
       width="362"
       height="102"
       id="use43"
       style="overflow:visible"
       x="0"
       y="0" />
  </clipPath>
  <g
     transform="translate(-220.47403,-11.577401)"
     id="g86">
    <defs
       id="defs65">
      <path
         id="g"
         d="M -205.667,-3782.31 H 1174.471 V 220.331 H -205.667 Z"
         inkscape:connector-curvature="0" />
    </defs>
    <clipPath
       id="h">
      <use
         xlink:href="#g"
         overflow="visible"
         width="362"
         height="102"
         id="use67"
         style="overflow:visible"
         x="0"
         y="0" />
    </clipPath>
    <path
       clip-path="url(#h)"
       stroke-miterlimit="10"
       d="m 248.232,78.318 c 0.468,-0.031 0.794,-0.422 1.301,-1.049 1.626,-2.012 2.334,-3.921 3.583,-6.611 0,0 1.002,-2.301 0.273,-4.41 -1.09,-3.149 -4.012,-10.393 -5.122,-13.788 -0.347,-1.059 -0.506,-1.422 -0.786,-1.462 -0.281,0.041 -0.363,0.404 -0.71,1.462 -1.111,3.396 -4.031,10.639 -5.121,13.788 -0.73,2.109 0.272,4.41 0.272,4.41 1.45,2.69 2.157,4.737 3.582,6.611 0.498,0.654 0.849,1.025 1.325,1.049 z"
       id="path70"
       inkscape:connector-curvature="0"
       style="fill:none;stroke:#f2f2f2;stroke-width:0.72899997;stroke-miterlimit:10" />
    <path
       clip-path="url(#h)"
       stroke-miterlimit="10"
       d="M 264.019,34.282 C 259.925,21.37 251.264,14.284 250.004,13.339 c -1.044,-0.794 -1.743,-1.251 -2.262,-1.335 -0.01,-0.002 -0.015,-0.006 -0.024,-0.009 a 1.424,1.424 0 0 0 -0.182,-0.026 c -0.005,-10e-4 -0.012,0.003 -0.017,0.003 -0.005,0 -0.012,-0.004 -0.017,-0.003 a 1.627,1.627 0 0 0 -0.182,0.026 c -0.009,0.003 -0.014,0.007 -0.023,0.009 -0.519,0.084 -1.219,0.541 -2.263,1.335 -1.26,0.945 -9.921,8.031 -14.015,20.943 -4.094,12.912 1.102,29.604 1.89,31.493 0.787,1.891 2.677,1.732 2.677,1.732 h 3.733 c 0,0 0,-0.631 0.63,-3.151 0.63,-2.519 5.094,-13.698 5.094,-13.698 0,0 0.56,-1.11 1.462,-1.628 0.757,-0.184 1.014,-0.197 1.014,-0.197 0,0 0.131,-0.02 1.014,0.197 0.901,0.518 1.463,1.628 1.463,1.628 0,0 4.422,11.18 5.053,13.698 0.63,2.521 0.63,3.151 0.63,3.151 h 3.773 c 0,0 1.89,0.158 2.677,-1.732 0.788,-1.888 5.983,-18.581 1.89,-31.493 z m -36.708,17.479 c 0,0 1.667,12.645 4.89,16.691 0,0 -6.833,1.534 -4.471,8.306 0,0 -2.204,1.574 -3.307,-0.473 -1.101,-2.047 0.22,0.199 -2.93,-5.627 0,0 -1.158,-2.301 -0.315,-4.41 1.259,-3.149 2.826,-10.393 4.11,-13.788 1.066,-2.823 2.023,-0.699 2.023,-0.699 z m 40.086,0 c 0,0 -1.667,12.645 -4.89,16.691 0,0 6.833,1.534 4.471,8.306 0,0 2.204,1.574 3.307,-0.473 1.102,-2.047 -0.22,0.199 2.93,-5.627 0,0 1.158,-2.301 0.315,-4.41 -1.259,-3.149 -2.826,-10.393 -4.11,-13.788 -1.066,-2.823 -2.023,-0.699 -2.023,-0.699 z"
       id="path72"
       inkscape:connector-curvature="0"
       style="fill:none;stroke:#f2f2f2;stroke-width:0.78299999;stroke-miterlimit:10" />
    <circle
       clip-path="url(#h)"
       stroke-miterlimit="10"
       cx="247.657"
       cy="23.344"
       r="2.691"
       id="circle74"
       style="fill:none;stroke:#f2f2f2;stroke-width:0.78299999;stroke-miterlimit:10" />
    <path
       clip-path="url(#h)"
       stroke-miterlimit="10"
       d="m 238.941,37.099 c -1.109,2.715 -1.852,5.511 -2.114,8.896 m 8.74,-20.588 c -1.366,1.586 -3.745,4.135 -5.276,7.822"
       id="path76"
       inkscape:connector-curvature="0"
       style="fill:none;stroke:#f2f2f2;stroke-width:0.78299999;stroke-miterlimit:10" />
    <path
       clip-path="url(#h)"
       stroke-miterlimit="10"
       d="m 241.741,35.201 a 2.075,2.075 0 1 1 -4.15,0 2.075,2.075 0 0 1 4.15,0 z"
       id="path78"
       inkscape:connector-curvature="0"
       style="fill:none;stroke:#f2f2f2;stroke-width:0.78299999;stroke-miterlimit:10" />
    <circle
       clip-path="url(#h)"
       stroke-miterlimit="10"
       cx="236.80901"
       cy="47.626999"
       r="1.705"
       id="circle80"
       style="fill:none;stroke:#f2f2f2;stroke-width:0.78299999;stroke-miterlimit:10" />
    <path
       clip-path="url(#h)"
       d="m 281.293,54.032 0.835,-0.068 c 0.395,-0.024 0.603,-0.186 0.603,-0.648 V 42.532 l -1.321,-0.067 v -1.972 h 4.173 l 6.561,10.642 h 0.047 v -8.603 l -1.53,-0.067 v -1.972 h 5.657 v 1.877 l -0.835,0.069 c -0.348,0.025 -0.555,0.232 -0.555,0.72 V 55.91 h -2.715 l -6.697,-10.802 h -0.05 v 8.761 l 1.508,0.07 v 1.971 h -5.681 z m 28.657,1.878 h -3.755 v -1.506 c -0.813,1.159 -2.226,1.809 -3.756,1.809 -2.318,0 -3.593,-1.277 -3.593,-4.01 v -5.358 c 0,-0.486 -0.185,-0.625 -0.581,-0.648 l -0.741,-0.047 v -1.902 h 4.08 V 51.6 c 0,1.414 0.232,2.481 1.717,2.481 1.62,0 2.48,-1.091 2.48,-2.296 v -4.894 c 0,-0.511 -0.139,-0.671 -0.58,-0.694 L 304.48,46.15 v -1.902 h 4.08 v 9.091 c 0,0.509 0.139,0.626 0.58,0.672 l 0.81,0.07 z m -5.633,-18.221 1.089,0.508 c 0.952,0.439 0.764,1.184 0.096,1.832 l -2.969,2.875 -0.906,-0.767 z m 15.511,15.417 0.996,1.784 c -0.904,0.741 -2.319,1.344 -4.033,1.344 -3.408,0 -5.426,-2.154 -5.426,-6.005 0,-4.705 2.901,-6.328 5.519,-6.328 1.39,0 2.503,0.346 3.616,0.951 v 3.013 l -2.133,0.162 v -1.112 c 0,-0.439 -0.07,-0.648 -0.486,-0.789 a 2.778,2.778 0 0 0 -0.905,-0.139 c -1.853,0 -2.806,1.391 -2.806,3.966 0,2.528 0.93,4.148 2.992,4.148 0.903,10e-4 1.715,-0.301 2.666,-0.995 m 6.607,0.879 1.321,0.071 v 1.854 h -5.517 v -1.76 l 0.764,-0.07 c 0.418,-0.048 0.674,-0.185 0.674,-0.743 V 41.906 c 0,-0.417 -0.233,-0.532 -0.58,-0.556 l -0.811,-0.046 V 39.38 h 4.149 z m 12.357,-6.86 c 0,3.568 -3.874,4.172 -6.607,4.195 0.094,1.505 0.88,2.735 2.852,2.735 1.367,0 2.364,-0.624 2.918,-1.021 l 0.882,1.881 c -0.37,0.323 -1.9,1.298 -4.08,1.298 -3.941,0 -5.471,-2.412 -5.471,-5.867 0,-3.43 1.925,-6.444 5.728,-6.444 2.273,-10e-4 3.778,1.159 3.778,3.223 m -3.941,-1.254 c -1.855,0 -2.69,1.785 -2.758,3.503 1.716,-0.024 4.149,-0.418 4.149,-2.202 0,-0.86 -0.554,-1.301 -1.391,-1.301 M 345.7,43.9 c 1.715,0 5.17,0.533 5.17,5.867 0,4.45 -2.484,6.49 -5.541,6.49 -3.104,0 -5.146,-1.994 -5.146,-6.19 0,-4.82 3.13,-6.167 5.517,-6.167 m 2.341,6.239 c 0,-2.598 -0.626,-4.199 -2.479,-4.199 -1.834,0 -2.575,1.578 -2.575,3.804 0,2.155 0.301,4.475 2.527,4.475 1.805,-10e-4 2.527,-1.67 2.527,-4.08 m -66.504,23.215 0.766,-0.069 c 0.394,-0.048 0.67,-0.188 0.67,-0.65 v -10.78 l -1.319,-0.07 v -1.972 h 6.353 c 4.427,0 7.233,2.343 7.233,7.165 0,6.073 -3.386,8.254 -7.118,8.254 h -6.585 z m 4.265,-0.348 h 2.366 c 2.599,0 4.218,-1.899 4.218,-5.609 0,-4.174 -2.015,-5.334 -4.518,-5.334 h -2.066 z m 15.327,0.3 1.32,0.07 v 1.856 h -5.516 v -1.764 l 0.764,-0.067 c 0.417,-0.047 0.671,-0.186 0.671,-0.744 v -6.445 c 0,-0.509 -0.137,-0.672 -0.578,-0.672 l -0.811,-0.046 v -1.925 h 4.15 z m -1.623,-14.697 c 1.02,0 1.762,0.764 1.762,1.737 0,0.976 -0.742,1.694 -1.785,1.694 -1.067,0 -1.763,-0.719 -1.763,-1.694 0,-0.973 0.696,-1.737 1.786,-1.737 m 4.89,20.819 v -3.223 l 2.203,-0.186 v 1.113 c 0,0.44 0.115,0.671 0.532,0.834 0.442,0.163 0.953,0.232 1.648,0.232 2.13,0 2.691,-1.461 2.691,-3.409 v -1.274 c -0.789,0.929 -1.95,1.301 -3.086,1.301 -3.386,0 -4.543,-2.785 -4.543,-5.429 0,-4.196 2.526,-6.165 6.028,-6.165 1.112,0 2.92,0.277 4.289,0.856 v 8.6 c 0,0.814 0.021,1.695 -0.047,2.53 -0.279,3.407 -1.879,4.984 -5.356,4.984 -1.461,0.001 -3.384,-0.278 -4.359,-0.764 m 7.074,-13.91 c -0.536,-0.184 -1.207,-0.279 -1.859,-0.279 -1.921,0 -2.917,1.531 -2.917,3.872 0,1.578 0.253,3.666 2.409,3.666 1.299,0 2.367,-0.859 2.367,-2.274 z m 9.134,7.788 1.321,0.07 v 1.856 h -5.516 v -1.764 l 0.763,-0.067 c 0.417,-0.047 0.673,-0.186 0.673,-0.744 v -6.445 c 0,-0.509 -0.139,-0.672 -0.579,-0.672 l -0.813,-0.046 v -1.925 h 4.151 z m -1.623,-14.697 c 1.021,0 1.762,0.764 1.762,1.737 0,0.976 -0.741,1.694 -1.786,1.694 -1.067,0 -1.76,-0.719 -1.76,-1.694 0,-0.973 0.694,-1.737 1.784,-1.737 m 8.368,2.503 v 2.457 h 3.086 l -0.232,1.948 h -2.854 v 6.096 c 0,1.415 0.557,1.832 1.508,1.832 0.627,0 1.206,-0.254 1.578,-0.485 l 0.694,1.784 c -0.694,0.488 -1.853,0.812 -2.941,0.812 -3.618,0 -3.597,-2.226 -3.597,-3.849 v -6.19 h -1.646 l 0.234,-1.691 c 1.622,-0.141 2.179,-1.393 2.666,-2.714 z m 15.068,11.545 c 0,0.512 0.139,0.649 0.579,0.674 l 0.743,0.045 v 1.856 h -3.685 v -1.345 l -0.069,-0.023 a 3.852,3.852 0 0 1 -3.174,1.669 c -3.269,0 -4.637,-2.317 -4.637,-5.635 0,-4.08 1.947,-6.675 6.118,-6.675 0.767,0 2.458,0.186 4.125,0.81 z m -2.688,-7.117 c -0.347,-0.163 -1.066,-0.302 -1.783,-0.302 -2.202,0 -2.943,2.063 -2.943,4.57 0,1.923 0.464,3.753 2.41,3.753 1.436,0 2.316,-1.02 2.316,-2.015 z m 9.573,7.767 1.322,0.069 v 1.856 h -5.518 V 73.47 l 0.764,-0.068 c 0.417,-0.047 0.673,-0.186 0.673,-0.744 V 61.229 c 0,-0.418 -0.23,-0.532 -0.579,-0.557 l -0.811,-0.045 v -1.926 h 4.149 z"
       id="path82"
       inkscape:connector-curvature="0"
       style="fill:#f2f2f2" />
    <path
       clip-path="url(#h)"
       stroke-miterlimit="10"
       d="m 238.609,69.63 h -2.618 c 0,0 -1.578,-0.12 -1.227,1.229 0,0 0.568,1.968 1.001,2.738 0.276,0.492 0.866,1.95 3.105,1.95 h 2.96 c 0,0 -0.75,-1.564 -1.423,-3.085 -0.635,-1.436 -1.177,-2.832 -1.798,-2.832 z m 17.845,0 h 2.618 c 0,0 1.578,-0.12 1.227,1.229 0,0 -0.568,1.968 -1.001,2.738 -0.276,0.492 -0.866,1.95 -3.105,1.95 h -2.96 c 0,0 0.75,-1.564 1.423,-3.085 0.635,-1.436 1.177,-2.832 1.798,-2.832 z"
       id="path84"
       inkscape:connector-curvature="0"
       style="fill:none;stroke:#f2f2f2;stroke-width:0.78299999;stroke-miterlimit:10" />
  </g>
</svg>
