<?xml version="1.0" encoding="UTF-8" standalone="no"?>
<svg
   xmlns:dc="http://purl.org/dc/elements/1.1/"
   xmlns:cc="http://creativecommons.org/ns#"
   xmlns:rdf="http://www.w3.org/1999/02/22-rdf-syntax-ns#"
   xmlns:svg="http://www.w3.org/2000/svg"
   xmlns="http://www.w3.org/2000/svg"
   xmlns:sodipodi="http://sodipodi.sourceforge.net/DTD/sodipodi-0.dtd"
   xmlns:inkscape="http://www.inkscape.org/namespaces/inkscape"
   viewBox="0 0 265.39999 103.76328"
   version="1.1"
   id="svg32"
   sodipodi:docname="logo_footer1.svg"
   width="265.39999"
   height="103.76328"
   inkscape:version="0.92.3 (2405546, 2018-03-11)">
  <metadata
     id="metadata38">
    <rdf:RDF>
      <cc:Work
         rdf:about="">
        <dc:format>image/svg+xml</dc:format>
        <dc:type
           rdf:resource="http://purl.org/dc/dcmitype/StillImage" />
        <dc:title></dc:title>
      </cc:Work>
    </rdf:RDF>
  </metadata>
  <defs
     id="defs36" />
  <sodipodi:namedview
     pagecolor="#ffffff"
     bordercolor="#666666"
     borderopacity="1"
     objecttolerance="10"
     gridtolerance="10"
     guidetolerance="10"
     inkscape:pageopacity="0"
     inkscape:pageshadow="2"
     inkscape:window-width="2560"
     inkscape:window-height="1475"
     id="namedview34"
     showgrid="false"
     fit-margin-top="0"
     fit-margin-left="0"
     fit-margin-right="0"
     fit-margin-bottom="0"
     inkscape:zoom="2.2250293"
     inkscape:cx="55.487989"
     inkscape:cy="101.16742"
     inkscape:window-x="0"
     inkscape:window-y="0"
     inkscape:window-maximized="1"
     inkscape:current-layer="svg32" />
  <path
     d="m 233.3,83.963275 -0.8,-0.4 c -0.3,-0.2 -0.7,-0.3 -1.1,-0.4 -0.4,-0.1 -0.8,-0.3 -1.2,-0.5 l -2.7,-1.6 c -0.5,-0.3 -1.1,-0.5 -1.7,-0.7 -0.8,-0.3 -1.7,-0.7 -2.6,-1.2 -1,-0.6 -2.1,-1 -3.1,-1.4 -0.5,-0.2 -1.1,-0.4 -1.6,-0.7 -0.6,-0.2 -1.3,-0.6 -1.9,-1 -0.8,-0.4 -1.5,-0.9 -2.3,-1.1 -0.2,-0.1 -0.9,-0.2 -0.9,-0.7 -0.1,-0.5 0.6,-1 1.1,-1.2 1.4,-0.8 2.8,-1.8 4.2,-2.7 2,-1.4 4.1,-2.8 6.3,-3.9 l 0.3,-0.1 0.1,0.3 c 0.5,1.5 1.2,3 1.9,4.5 l 1.2,2.7 c 0.4,0.9 0.7,1.6 1,2.3 0.3,0.5 0.5,1.1 0.7,1.6 0.2,0.5 0.4,1 0.7,1.6 0.5,0.9 0.9,1.8 1.2,2.7 0.1,0.1 0.1,0.3 0.2,0.5 0.1,0.3 0.1,0.6 0.3,0.9 z m -8.3,-17 c -2.1,1.1 -4.1,2.5 -6,3.8 -1.4,0.9 -2.8,1.9 -4.3,2.8 -0.6,0.3 -0.8,0.6 -0.8,0.7 0,0 0.1,0.2 0.6,0.3 0.8,0.2 1.6,0.7 2.4,1.2 0.6,0.4 1.2,0.7 1.8,1 0.5,0.2 1.1,0.5 1.6,0.7 1,0.4 2.1,0.9 3.2,1.5 0.8,0.5 1.7,0.9 2.5,1.2 0.6,0.2 1.1,0.5 1.7,0.7 l 2.7,1.6 c 0.3,0.2 0.7,0.3 1.1,0.4 0.2,0.1 0.4,0.1 0.6,0.2 0,-0.1 -0.1,-0.3 -0.1,-0.4 0,-0.2 -0.1,-0.3 -0.1,-0.4 -0.4,-0.9 -0.7,-1.8 -1.2,-2.6 -0.3,-0.6 -0.5,-1.1 -0.7,-1.6 -0.2,-0.5 -0.4,-1 -0.7,-1.6 -0.3,-0.7 -0.7,-1.4 -1.1,-2.3 l -1.2,-2.7 c -0.8,-1.6 -1.4,-3 -2,-4.5 z m -24.2,22.8 c -0.6,0 -1.1,-0.6 -1.5,-1.2 -1.3,-1.9 -2.8,-3.6 -4.2,-5.4 -2.1,-2.5 -4.2,-5.1 -5.9,-8 l -0.1,-0.2 0.2,-0.1 c 2.7,-1.5 5.5,-3.2 8.2,-4.8 1.8,-1.1 3.7,-2.2 5.5,-3.3 0.8,-0.4 1.5,-0.9 2.3,-1.3 0.8,-0.4 1.5,-0.9 2.3,-1.3 0.8,-0.5 1.7,-1 2.5,-1.4 1.2,-0.6 2.4,-1.3 3.5,-2.1 h 0.1 l 5.2,-3.1 c 0.5,-0.5 1.1,-0.8 1.7,-1.1 0.3,-0.2 0.6,-0.3 0.9,-0.5 l 0.9,-0.5 -0.6,0.9 c -0.4,0.6 -0.7,1.2 -1,1.8 -0.3,0.7 -0.7,1.4 -1.2,2.1 -0.4,0.7 -0.9,1.3 -1.5,2 -0.7,0.9 -1.4,1.9 -2,2.9 l -1.2,2.1 c -1,1.8 -1.9,3.5 -3.1,5.2 -1.4,2.1 -2.6,4.2 -3.7,6.3 l -1.2,2.1 c -0.6,1 -1.3,2.1 -2,3.1 -1,1.5 -2.1,3 -2.7,4.5 -0.4,0.8 -0.9,1.3 -1.4,1.3 z m -11,-14.6 c 1.6,2.8 3.7,5.3 5.7,7.7 1.4,1.7 2.9,3.5 4.2,5.4 0.3,0.4 0.7,1 1.1,1 0.3,0 0.7,-0.4 1.1,-1.3 0.6,-1.5 1.7,-3 2.8,-4.5 0.7,-1 1.4,-2.1 2,-3 l 1.2,-2.1 c 1.1,-2.1 2.3,-4.2 3.8,-6.4 1.1,-1.6 2.1,-3.3 3.1,-5.1 l 1.2,-2.1 c 0.6,-1 1.4,-2 2.1,-2.9 0.5,-0.7 1,-1.3 1.5,-2 0.5,-0.7 0.8,-1.3 1.1,-2 0.2,-0.4 0.3,-0.7 0.5,-1.1 0,0 -0.1,0 -0.1,0.1 -0.6,0.3 -1.2,0.6 -1.7,1 l -5.3,3.2 c -1.2,0.8 -2.4,1.5 -3.5,2.1 -0.8,0.4 -1.7,0.9 -2.5,1.4 -0.8,0.4 -1.6,0.9 -2.3,1.3 -0.7,0.4 -1.5,0.9 -2.3,1.3 -1.8,1.1 -3.7,2.2 -5.5,3.3 -2.8,1.6 -5.5,3.3 -8.2,4.7 z m 63.3,6.1 c -0.1,0 -0.3,0 -0.5,-0.1 -0.9,-0.2 -1.8,-0.3 -2.7,-0.5 -1.2,-0.2 -2.4,-0.3 -3.7,-0.8 l -0.2,-0.1 v -0.2 c 0.2,-1.3 0.3,-2.6 0.4,-4 0,-0.6 0.1,-1.3 0.1,-2 0,-0.3 0,-0.7 0.1,-1 0,-0.3 0.1,-0.6 0.1,-0.9 0,-0.5 0,-0.9 0.1,-1.3 0,-0.4 0.1,-0.9 0.1,-1.3 0,-0.4 0,-0.8 0.1,-1.2 0,-0.4 0.1,-0.8 0.1,-1.1 v -0.2 l 0.2,-0.1 c 0.3,-0.1 0.4,-0.3 0.4,-0.6 v -2 l 0.5,2 c 0.1,0.3 0.2,0.6 0.3,0.8 0.1,0.3 0.3,0.6 0.4,0.9 l 0.1,0.4 c 0.1,0.6 0.3,1.3 0.6,1.9 0.2,0.6 0.4,1.1 0.6,1.6 0.2,0.5 0.4,1.1 0.6,1.6 0.3,1.1 0.7,2 1.1,3 0.1,0.2 0.2,0.5 0.3,0.7 0.3,0.5 0.4,1.1 0.6,1.7 0.2,0.6 0.4,1.2 0.6,1.6 0.2,0.3 0.4,0.7 0.2,0.9 -0.1,0.1 -0.2,0.3 -0.5,0.3 z m -6.5,-1.8 c 1.1,0.3 2.3,0.5 3.4,0.7 0.9,0.1 1.8,0.3 2.7,0.5 0.2,0.1 0.4,0.1 0.5,0.1 0,0 0,-0.1 -0.2,-0.4 -0.3,-0.5 -0.5,-1.1 -0.7,-1.8 -0.2,-0.6 -0.3,-1.1 -0.6,-1.6 -0.1,-0.2 -0.2,-0.5 -0.3,-0.7 -0.4,-1 -0.8,-1.9 -1.1,-3 l -0.6,-1.5 c -0.2,-0.5 -0.4,-1.1 -0.6,-1.6 -0.3,-0.6 -0.5,-1.3 -0.6,-2 l -0.1,-0.4 c -0.1,-0.3 -0.2,-0.6 -0.3,-0.8 0,-0.1 -0.1,-0.1 -0.1,-0.2 -0.1,0.1 -0.2,0.2 -0.3,0.2 0,0.3 0,0.7 -0.1,1 0,0.4 -0.1,0.8 -0.1,1.1 0,0.5 0,0.9 -0.1,1.3 0,0.4 -0.1,0.9 -0.1,1.3 0,0.4 0,0.7 -0.1,1 0,0.3 -0.1,0.6 -0.1,0.9 -0.1,0.7 -0.1,1.4 -0.1,2 -0.2,1.4 -0.2,2.7 -0.4,3.9 z"
     id="path2"
     inkscape:connector-curvature="0"
     style="fill:#f2f2f2" />
  <path
     d="m 258.9,69.863275 c -0.8,-0.1 -1.4,-0.2 -2,-0.3 -0.9,-0.2 -1.8,-0.4 -2.9,-0.4 h -4 c -1.6,0 -2.9,-0.1 -3.9,-0.2 -1.1,-0.1 -2.3,-0.2 -3.7,-0.2 -1.7,0 -3.5,0.1 -5.4,0.2 h -0.2 c -1.2,0 -2.3,-0.2 -3.4,-0.3 -1.1,-0.2 -2.1,-0.3 -3.1,-0.3 -0.5,0 -0.9,0 -1.3,0.1 -0.3,0 -0.5,0.1 -0.7,0.1 -0.3,0 -0.8,0 -0.9,-0.4 -0.2,-0.5 0.5,-1.2 3,-2.9 3.9,-2.7 7.8,-5.7 11.5,-8.5 5.2,-3.9 10.5,-7.9 15.9,-11.6 l 0.3,-0.2 v 0.4 c 0.2,2.3 0.8,4.4 1.3,6.4 0.3,1.3 0.7,2.6 1,3.9 0.2,1.3 0.4,2.3 0.7,3.5 0.2,0.6 0.2,1.3 0.3,1.9 0.1,0.9 0.2,1.9 0.5,2.7 0.3,0.8 0.5,1.7 0.7,2.5 0.1,0.4 0.2,0.9 0.3,1.3 0.2,0.2 0.2,0.5 0.3,0.9 0,0.3 0.1,0.6 0.2,0.9 l 0.2,0.4 -0.5,-0.1 c -0.7,-0.1 -1.7,0 -2.6,0.1 -0.4,0.1 -1,0.1 -1.6,0.1 z m -4.9,-1.2 c 1.2,0 2.1,0.2 3,0.4 0.6,0.1 1.2,0.3 1.9,0.3 0.5,0 1.1,-0.1 1.7,-0.1 0.8,-0.1 1.6,-0.1 2.3,-0.1 -0.1,-0.2 -0.1,-0.5 -0.1,-0.7 0,-0.3 -0.1,-0.5 -0.2,-0.6 v -0.1 c -0.1,-0.4 -0.2,-0.9 -0.3,-1.4 -0.2,-0.8 -0.4,-1.7 -0.7,-2.5 -0.3,-0.9 -0.5,-1.8 -0.6,-2.8 -0.1,-0.7 -0.2,-1.3 -0.3,-1.8 -0.3,-1.2 -0.5,-2.2 -0.7,-3.5 l -0.9,-3.9 c -0.5,-1.9 -1.1,-4 -1.3,-6.1 -5.3,3.6 -10.5,7.5 -15.6,11.3 -3.8,2.8 -7.7,5.8 -11.5,8.5 -0.7,0.5 -2.8,1.9 -2.8,2.4 h 1 c 0.5,-0.1 0.9,-0.1 1.4,-0.1 1.1,0 2.2,0.2 3.2,0.3 1.1,0.2 2.2,0.3 3.3,0.3 h 0.2 c 1.9,-0.1 3.7,-0.2 5.4,-0.2 1.4,0 2.7,0.1 3.8,0.2 1.1,0.2 2.2,0.2 3.9,0.2 z"
     id="path4"
     inkscape:connector-curvature="0"
     style="fill:#f2f2f2" />
  <path
     d="m 265.4,71.763275 -0.7,-0.1 c -0.6,-0.1 -1.4,0 -2.2,0 -0.8,0 -1.6,0.1 -2.2,0 -0.8,-0.1 -1.5,-0.2 -2.2,-0.4 -0.8,-0.2 -1.6,-0.4 -2.5,-0.5 -0.5,0 -1.1,-0.1 -1.8,-0.1 h -3.2 c -1.2,0 -2,-0.1 -2.8,-0.2 -1.1,-0.2 -2.2,-0.3 -3.7,-0.3 -0.9,0 -1.8,0 -2.6,0.1 -0.9,0 -1.8,0.1 -2.7,0.1 -1.3,0 -2.5,-0.2 -3.6,-0.4 -1.4,-0.2 -2.6,-0.4 -4.1,-0.3 h -0.7 c -0.3,0 -0.8,0 -0.9,-0.4 -0.2,-0.6 0.7,-1.3 2.8,-2.9 3.3,-2.4 6.6,-4.9 9.8,-7.3 5.5,-4.1 11.2,-8.4 16.9,-12.3 l 0.4,-0.2 v 0.4 c 0.2,2.3 0.8,4.4 1.3,6.4 0.3,1.3 0.7,2.6 1,3.9 0.2,1.3 0.4,2.3 0.7,3.5 0.1,0.5 0.2,1.1 0.3,1.7 0.2,1 0.4,2 0.7,2.9 0.3,0.8 0.5,1.7 0.7,2.5 0.1,0.5 0.2,0.9 0.3,1.4 0.1,0.2 0.1,0.4 0.1,0.7 0,0.4 0.1,0.9 0.4,1.1 z m -11.6,-1.6 c 0.7,0 1.3,0 1.8,0.1 0.9,0.1 1.8,0.3 2.6,0.5 0.7,0.2 1.4,0.3 2.2,0.4 0.6,0.1 1.4,0 2.2,0 0.6,0 1.2,-0.1 1.7,0 -0.1,-0.3 -0.2,-0.7 -0.2,-1 0,-0.2 0,-0.4 -0.1,-0.6 -0.1,-0.5 -0.2,-0.9 -0.3,-1.4 -0.2,-0.8 -0.4,-1.7 -0.7,-2.5 -0.3,-0.9 -0.5,-2 -0.7,-3 -0.1,-0.6 -0.2,-1.1 -0.3,-1.6 -0.3,-1.2 -0.5,-2.2 -0.7,-3.5 l -0.9,-3.9 c -0.5,-1.9 -1.1,-4 -1.3,-6.1 -5.6,3.8 -11.2,8 -16.6,12 -3.2,2.4 -6.5,4.9 -9.8,7.3 -1,0.8 -2.7,2 -2.7,2.4 0,0 0.1,0.1 0.4,0.1 h 1.4 c 1.2,0 2.4,0.2 3.5,0.4 1.1,0.2 2.3,0.4 3.5,0.4 0.9,0 1.8,0 2.7,-0.1 0.9,0 1.8,-0.1 2.6,-0.1 1.5,0 2.8,0.1 3.8,0.3 0.7,0.1 1.5,0.2 2.7,0.2 h 1.6 c 0.5,-0.2 1,-0.3 1.6,-0.3 z"
     id="path6"
     inkscape:connector-curvature="0"
     style="fill:#f2f2f2" />
  <path
     d="m 251.3,81.763275 c -0.1,0 -0.3,0 -0.5,-0.1 -0.9,-0.2 -1.8,-0.3 -2.7,-0.5 -1.2,-0.2 -2.4,-0.3 -3.7,-0.8 l -0.2,-0.1 v -0.2 c 0.2,-1.3 0.3,-2.6 0.4,-4 0,-0.6 0.1,-1.3 0.1,-2 0,-0.3 0,-0.7 0.1,-1 0,-0.3 0.1,-0.6 0.1,-0.9 0,-0.5 0,-0.9 0.1,-1.3 0,-0.4 0.1,-0.9 0.1,-1.3 0,-0.4 0,-0.8 0.1,-1.2 0,-0.4 0.1,-0.8 0.1,-1.1 v -0.2 h 0.2 c 0.3,0 0.3,-0.5 0.3,-0.6 v -2 l 0.5,2 c 0.1,0.3 0.2,0.6 0.3,0.8 0.1,0.3 0.3,0.6 0.4,0.9 l 0.1,0.4 c 0.1,0.6 0.3,1.3 0.6,1.9 0.2,0.6 0.4,1.1 0.6,1.6 0.2,0.5 0.4,1.1 0.6,1.6 0.3,1.1 0.7,2 1.1,3 0.1,0.2 0.2,0.5 0.3,0.7 0.3,0.5 0.4,1.1 0.6,1.7 0.2,0.6 0.4,1.2 0.6,1.6 0.2,0.3 0.4,0.7 0.2,0.9 0,0.1 -0.1,0.2 -0.4,0.2 z m -6.5,-1.7 c 1.1,0.3 2.3,0.5 3.4,0.7 0.9,0.1 1.8,0.3 2.7,0.5 0.2,0.1 0.4,0.1 0.5,0.1 0,0 0,-0.1 -0.2,-0.4 -0.3,-0.5 -0.5,-1.1 -0.7,-1.8 -0.2,-0.6 -0.3,-1.1 -0.6,-1.6 -0.1,-0.2 -0.2,-0.5 -0.3,-0.7 -0.4,-1 -0.8,-1.9 -1.1,-3 l -0.6,-1.5 c -0.2,-0.5 -0.4,-1.1 -0.6,-1.6 -0.3,-0.6 -0.5,-1.3 -0.6,-2 l -0.1,-0.3 c -0.1,-0.3 -0.2,-0.6 -0.3,-0.8 0,-0.1 -0.1,-0.1 -0.1,-0.2 l -0.3,0.3 c 0,0.3 0,0.6 -0.1,1 0,0.4 -0.1,0.8 -0.1,1.1 0,0.5 0,0.9 -0.1,1.3 0,0.4 -0.1,0.9 -0.1,1.3 0,0.4 0,0.7 -0.1,1 0,0.3 -0.1,0.6 -0.1,0.9 -0.1,0.7 -0.1,1.4 -0.1,2 -0.1,1.1 -0.2,2.4 -0.4,3.7 z m -87.3,2.8 -0.2,-0.2 c -1.9,-1.5 -4,-3 -6,-4.4 -1.2,-0.8 -2.4,-1.6 -3.6,-2.5 -0.5,-0.4 -1.1,-0.8 -1.6,-1.1 -0.5,-0.4 -1,-0.8 -1.6,-1.1 -0.6,-0.4 -1.2,-0.8 -1.8,-1.3 -0.7,-0.6 -1.5,-1.2 -2.4,-1.7 -0.8,-0.4 -1.5,-0.9 -2.3,-1.4 -0.5,-0.3 -1,-0.7 -1.6,-1 -0.2,-0.2 -0.4,-0.3 -0.6,-0.5 -0.3,-0.3 -0.6,-0.6 -1.1,-0.8 l -0.7,-0.3 0.8,-0.2 c 0.6,-0.1 1.1,-0.4 1.6,-0.6 0.7,-0.3 1.4,-0.6 2.3,-0.7 0.6,-0.1 1.3,-0.2 2,-0.3 1,-0.1 2,-0.2 2.9,-0.6 0.9,-0.2 1.7,-0.5 2.5,-0.8 1.5,-0.5 3.1,-1.1 4.7,-1.3 2.1,-0.4 4.2,-1.1 6.3,-1.8 0.7,-0.2 1.4,-0.5 2.1,-0.7 1.1,-0.4 2.4,-0.6 3.6,-0.8 1.4,-0.2 2.8,-0.4 4,-1 0.5,-0.2 0.9,-0.3 1.2,-0.3 0.4,0 0.5,0.2 0.6,0.3 0.3,0.5 -0.1,1.5 -0.8,2.8 -1.6,3.3 -3.1,6.7 -4.5,10 -1.7,4 -3.5,8.1 -5.5,12 z m -22.1,-16.3 c 0.3,0.2 0.5,0.4 0.7,0.7 0.2,0.2 0.3,0.4 0.5,0.5 0.6,0.3 1.1,0.7 1.6,1 0.8,0.5 1.5,1 2.3,1.4 0.9,0.5 1.7,1.1 2.5,1.7 0.6,0.5 1.2,0.9 1.8,1.3 0.5,0.4 1.1,0.8 1.6,1.2 0.5,0.4 1.1,0.8 1.6,1.1 1.2,0.8 2.4,1.7 3.6,2.5 2,1.3 4,2.7 5.8,4.2 2,-3.8 3.7,-7.9 5.4,-11.7 1.4,-3.3 2.9,-6.7 4.5,-10 0.7,-1.3 0.9,-2.1 0.8,-2.4 0,0 -0.1,-0.3 -1.1,0.2 -1.3,0.6 -2.7,0.8 -4.1,1 -1.2,0.2 -2.4,0.4 -3.5,0.8 -0.7,0.2 -1.4,0.5 -2.1,0.7 -2.1,0.7 -4.2,1.4 -6.4,1.8 -1.6,0.2 -3.1,0.7 -4.6,1.3 -0.8,0.3 -1.7,0.6 -2.6,0.8 -1,0.3 -2,0.4 -3,0.6 -0.7,0.1 -1.3,0.2 -2,0.3 -0.8,0.1 -1.5,0.4 -2.2,0.6 -0.4,0.1 -0.7,0.2 -1.1,0.4 z M 46,101.16328 c -0.2,0 -0.4,-0.1 -0.8,-0.3 -0.9,-0.4 -1.9,-0.7 -2.9,-1.100005 -1.5,-0.6 -3.1,-1.1 -4.5,-1.9 l -0.2,-0.1 0.1,-0.2 c 0.5,-0.9 1.1,-1.8 1.6,-2.7 0.5,-0.9 1.1,-1.8 1.6,-2.7 0.2,-0.3 0.4,-0.6 0.5,-0.9 0.2,-0.3 0.4,-0.6 0.5,-0.9 0.3,-0.9 0.9,-1.6 1.4,-2.3 0.3,-0.6 0.7,-1.3 1.2,-2 0,-0.4 0.1,-0.6 0.2,-0.8 0,-0.1 0.1,-0.2 0.2,-0.4 l 0.5,-1.5 v 1.5 c 0,0.4 0,0.7 0.1,1 0,0.3 0.1,0.5 0.1,0.8 v 0.9 c 0,0.5 -0.1,1 0,1.5 0,0.6 0.1,1.2 0.2,1.8 0.1,0.6 0.2,1.2 0.2,1.8 0,1.3 0.1,2.3 0.3,3.6 l 0.1,0.4 c 0.1,0.6 0.1,1.3 0.1,1.9 0,0.6 0,1.1 0.1,1.700005 0.1,0.4 0,0.7 -0.1,0.9 -0.2,-0.1 -0.4,0 -0.5,0 z m -7.7,-3.700005 c 1.3,0.7 2.8,1.2 4.2,1.7 1,0.4 2,0.7 2.9,1.100005 0.4,0.3 0.5,0.3 0.5,0.3 0,0 0.1,-0.1 0,-0.5 -0.1,-0.500005 -0.1,-1.100005 -0.1,-1.700005 0,-0.6 0,-1.2 -0.1,-1.8 l -0.1,-0.4 c -0.2,-1.2 -0.3,-2.4 -0.3,-3.7 0,-0.6 -0.1,-1.1 -0.2,-1.7 -0.1,-0.6 -0.2,-1.2 -0.2,-1.8 -0.1,-0.6 -0.1,-1.1 0,-1.6 v -1.2 0.1 c -0.5,0.7 -0.9,1.4 -1.2,2.1 -0.5,0.7 -1.1,1.4 -1.4,2.3 -0.2,0.3 -0.4,0.6 -0.5,0.9 -0.2,0.3 -0.4,0.6 -0.5,0.9 -0.5,0.9 -1,1.8 -1.6,2.7 -0.4,0.7 -0.9,1.5 -1.4,2.3 z m 70.4,-11.5 0.5,-0.9 c 0.3,-0.6 0.4,-1.3 0.6,-2 0.1,-0.4 0.2,-0.9 0.3,-1.3 0.3,-0.7 0.6,-1.4 0.9,-2 0.3,-0.6 0.6,-1.2 0.9,-1.9 0.3,-0.8 0.5,-1.6 0.7,-2.4 0.3,-1.2 0.7,-2.4 1.2,-3.6 0.7,-1.6 1.1,-3.1 1.5,-4.8 0.2,-0.7 0.4,-1.5 0.6,-2.2 0.2,-1 0.7,-1.9 1.1,-2.9 0.5,-1.1 1,-2.2 1.2,-3.3 0.1,-0.6 0.3,-1.4 0.9,-1.4 0.5,0 1.1,0.7 1.7,1.6 1.5,2.1 3.2,4.2 4.8,6.2 2.2,2.7 4.4,5.5 6.3,8.4 l 0.2,0.2 -0.3,0.1 c -1.8,0.8 -3.6,1.8 -5.4,2.8 l -3.9,2.1 -3.2,1.6 -1.2,0.6 c -1,0.5 -1.9,0.9 -2.8,1.5 l -2.1,1.2 c -0.5,0.2 -1,0.5 -1.5,0.8 -0.3,0.1 -0.6,0.2 -0.8,0.3 -0.5,0.1 -0.8,0.2 -1.2,0.6 z m 10.3,-28.1 c -0.1,0 -0.3,0.2 -0.4,0.9 -0.2,1.2 -0.7,2.3 -1.2,3.4 -0.4,0.9 -0.8,1.8 -1.1,2.8 -0.2,0.8 -0.4,1.5 -0.6,2.2 -0.4,1.7 -0.8,3.3 -1.6,4.9 -0.5,1.1 -0.8,2.3 -1.2,3.5 -0.2,0.8 -0.5,1.7 -0.8,2.5 -0.3,0.7 -0.6,1.4 -0.9,2 -0.3,0.6 -0.6,1.2 -0.9,1.9 -0.1,0.4 -0.2,0.9 -0.3,1.3 -0.1,0.5 -0.2,0.9 -0.3,1.4 0.2,-0.1 0.5,-0.2 0.7,-0.3 0.2,-0.1 0.5,-0.1 0.8,-0.3 0.5,-0.3 1,-0.5 1.4,-0.8 0.7,-0.4 1.4,-0.7 2,-1.1 0.9,-0.6 1.8,-1.1 2.9,-1.6 l 1.2,-0.6 3.2,-1.6 3.9,-2.1 c 1.7,-0.9 3.4,-1.9 5.2,-2.7 -1.9,-2.8 -4,-5.5 -6.1,-8.1 -1.6,-2 -3.3,-4.1 -4.8,-6.3 -0.2,-0.5 -0.8,-1.3 -1.1,-1.3 z"
     id="path8"
     inkscape:connector-curvature="0"
     style="fill:#f2f2f2" />
  <path
     d="m 141,87.463275 c -0.3,0 -0.5,-0.4 -0.8,-0.8 -0.5,-0.8 -1,-1.5 -1.4,-2.2 -1,-1.5 -2,-3 -2.8,-4.6 l -0.1,-0.2 0.3,-0.1 c 1.4,-0.5 2.8,-1 4,-1.7 0.3,-0.1 0.5,-0.2 0.7,-0.3 0.2,-0.1 0.4,-0.2 0.7,-0.3 0.3,-0.2 0.6,-0.3 0.9,-0.4 0.3,-0.1 0.6,-0.2 0.8,-0.3 h 0.1 c 0.2,-0.1 0.5,-0.2 0.8,-0.3 0.3,-0.1 0.5,-0.3 0.8,-0.4 0.1,-0.1 0.3,-0.1 0.5,-0.2 0.1,0 0.3,-0.1 0.3,-0.1 l 0.7,-0.7 -0.3,1 c -0.1,0.2 -0.1,0.3 -0.1,0.4 -0.1,0.3 -0.2,0.6 -0.4,1 -0.1,0.3 -0.3,0.6 -0.5,0.8 -0.2,0.3 -0.3,0.5 -0.4,0.7 -0.1,0.3 -0.2,0.5 -0.3,0.8 -0.2,0.6 -0.4,1.2 -0.8,1.7 -0.3,0.6 -0.5,1.2 -0.7,2 -0.1,0.3 -0.2,0.6 -0.3,1 -0.1,0.3 -0.3,0.6 -0.4,0.9 -0.3,0.6 -0.5,1.1 -0.6,1.7 -0.3,0.1 -0.4,0.6 -0.7,0.6 z m -4.5,-7.7 c 0.8,1.5 1.7,3 2.6,4.3 0.5,0.7 1,1.5 1.4,2.2 0.1,0.1 0.3,0.4 0.4,0.5 0,0 0,-0.1 0.1,-0.2 0.1,-0.6 0.4,-1.2 0.7,-1.8 0.1,-0.3 0.3,-0.6 0.4,-0.9 l 0.3,-0.9 c 0.2,-0.7 0.4,-1.5 0.8,-2.1 0.4,-0.5 0.5,-1 0.7,-1.6 0.1,-0.3 0.2,-0.5 0.3,-0.8 0.1,-0.3 0.3,-0.6 0.5,-0.8 0.2,-0.3 0.3,-0.5 0.4,-0.7 v -0.1 c 0.2,-0.3 0.3,-0.5 0.4,-0.8 -0.1,0 -0.3,0.1 -0.4,0.1 -0.3,0.1 -0.5,0.2 -0.8,0.4 -0.3,0.1 -0.5,0.3 -0.8,0.4 -0.3,0.2 -0.6,0.3 -0.9,0.4 -0.3,0.1 -0.6,0.2 -0.8,0.3 h -0.1 c -0.3,0.1 -0.5,0.2 -0.7,0.3 -0.2,0.1 -0.4,0.2 -0.7,0.3 -1.2,0.5 -2.5,1 -3.8,1.5 z m -49.2,14.4 v -0.6 c 0,-0.9 -0.2,-1.7 -0.4,-2.6 l -0.3,-1.5 c -0.1,-0.8 0,-1.6 0,-2.3 0,-0.8 0.1,-1.6 0,-2.4 -0.1,-0.8 -0.2,-1.5 -0.4,-2.3 -0.3,-1.7 -0.6,-3.5 -0.7,-5.2 0,-2.2 -0.4,-4.5 -0.9,-6.9 -0.1,-0.6 -0.2,-1.2 -0.3,-1.9 -0.3,-1.3 -0.3,-2.6 -0.3,-3.8 0,-1.2 0,-2.4 -0.3,-3.7 -0.2,-0.8 -0.2,-1.2 -0.1,-1.5 0.1,-0.1 0.2,-0.2 0.4,-0.2 0.4,0 1,0.5 2.1,1.5 0.2,0.2 0.4,0.4 0.7,0.6 3.1,3.3 6.2,6.5 9.3,9.7 3.7,3.8 7.5,7.7 11.1,11.6 l 0.2,0.3 -0.3,0.1 c -1.8,0.7 -3.4,1.7 -5,2.6 -1.1,0.6 -2.1,1.2 -3.3,1.8 -0.4,0.3 -0.9,0.5 -1.4,0.7 -0.5,0.2 -1,0.4 -1.4,0.7 -0.5,0.3 -1,0.5 -1.5,0.7 -0.7,0.3 -1.5,0.7 -2.2,1.2 -0.4,0.4 -1,0.7 -1.5,1 l -1.5,0.9 c -0.3,0.3 -0.6,0.4 -0.9,0.6 -0.3,0.1 -0.6,0.2 -0.8,0.5 z m -3.2,-34.4 c 0,0 0,0.2 0.2,1 0.3,1.4 0.3,2.6 0.3,3.8 0,1.2 0,2.4 0.3,3.7 0.1,0.6 0.2,1.2 0.3,1.9 0.4,2.3 0.9,4.7 0.9,7 0.1,1.7 0.4,3.4 0.7,5.2 0.1,0.8 0.3,1.6 0.4,2.4 0.1,0.9 0,1.7 0,2.5 0,0.8 -0.1,1.5 0,2.2 0.1,0.4 0.2,0.9 0.3,1.4 0.2,0.7 0.3,1.4 0.4,2.2 0.2,-0.1 0.4,-0.2 0.5,-0.3 0.3,-0.1 0.6,-0.2 0.8,-0.5 0.5,-0.4 1,-0.7 1.5,-1 l 1.5,-0.9 c 0.8,-0.5 1.5,-0.9 2.3,-1.2 0.5,-0.2 1,-0.4 1.5,-0.7 0.4,-0.3 0.9,-0.5 1.4,-0.7 0.5,-0.2 1,-0.4 1.4,-0.7 l 3.3,-1.8 c 1.5,-0.9 3,-1.8 4.7,-2.5 -3.5,-3.8 -7.2,-7.7 -10.8,-11.3 -3.1,-3.1 -6.3,-6.4 -9.3,-9.7 -0.2,-0.2 -0.4,-0.4 -0.7,-0.6 -0.8,-0.7 -1.6,-1.4 -1.9,-1.4 z"
     id="path10"
     inkscape:connector-curvature="0"
     style="fill:#f2f2f2" />
  <path
     d="m 67.6,83.063275 c -0.1,0 -0.3,-0.1 -0.3,-0.2 -0.2,-0.3 -0.1,-0.8 0.2,-1.7 v -0.2 c 0.6,-2 1.1,-4.2 1.6,-6.3 0.7,-2.9 1.5,-6 2.4,-8.9 l 0.1,-0.3 0.3,0.2 c 1.1,0.7 2.3,1.3 3.5,1.8 0.8,0.4 1.7,0.8 2.5,1.2 0.4,0.2 0.7,0.4 1,0.5 0.3,0.2 0.6,0.3 1,0.5 0.4,0.2 0.9,0.4 1.3,0.7 0.4,0.3 0.9,0.5 1.3,0.7 0.9,0.4 1.6,0.7 2.3,1 0.2,0.1 0.3,0.2 0.4,0.2 0.2,0.1 0.4,0.3 0.6,0.3 h 1.1 l -0.9,0.5 c -0.3,0.2 -0.7,0.4 -1,0.6 -0.3,0.2 -0.7,0.4 -1.1,0.6 -0.9,0.4 -1.8,0.7 -2.8,1.2 -0.4,0.2 -0.9,0.5 -1.4,0.9 -0.8,0.5 -1.7,1.1 -2.5,1.4 -1,0.4 -1.8,1 -2.8,1.6 -0.6,0.4 -1.2,0.7 -1.8,1.1 -0.6,0.4 -1.2,0.6 -1.8,0.9 -0.8,0.3 -1.5,0.6 -2.2,1.2 -0.6,0.4 -0.9,0.5 -1,0.5 z m 4.3,-16.7 c -0.9,2.8 -1.6,5.7 -2.3,8.5 -0.5,2.1 -1.1,4.2 -1.6,6.3 v 0.2 c -0.1,0.4 -0.3,1 -0.3,1.2 0.1,0 0.2,-0.1 0.5,-0.3 0.7,-0.6 1.5,-1 2.3,-1.3 0.6,-0.2 1.2,-0.5 1.7,-0.8 0.6,-0.3 1.2,-0.7 1.8,-1.1 0.9,-0.6 1.9,-1.2 2.8,-1.6 0.8,-0.3 1.6,-0.9 2.4,-1.4 0.5,-0.3 1,-0.6 1.4,-0.9 1.1,-0.5 2,-0.9 2.8,-1.2 0.3,-0.2 0.7,-0.4 1,-0.6 0.2,-0.1 0.4,-0.2 0.6,-0.4 -0.1,0 -0.2,-0.1 -0.2,-0.2 -0.1,-0.1 -0.2,-0.1 -0.3,-0.2 -0.7,-0.4 -1.4,-0.7 -2.3,-1 -0.5,-0.2 -0.9,-0.5 -1.4,-0.7 -0.4,-0.3 -0.9,-0.5 -1.3,-0.7 -0.4,-0.2 -0.7,-0.4 -1,-0.5 -0.3,-0.2 -0.6,-0.3 -1,-0.5 -0.8,-0.4 -1.7,-0.8 -2.5,-1.2 -0.9,-0.5 -2.1,-1 -3.1,-1.6 z m 106.7,26.3 -0.1,-0.2 c -1.3,-2.1 -2.8,-4.2 -4.3,-6.3 -1.1,-1.5 -2.2,-3.1 -3.2,-4.6 l -1.2,-1.8 -1.2,-1.8 c -0.6,-0.8 -1.2,-1.6 -1.7,-2.4 -0.5,-0.8 -1,-1.6 -1.7,-2.4 -0.4,-0.5 -0.8,-1 -1.1,-1.6 -0.6,-0.9 -1.2,-1.7 -1.9,-2.5 v -0.1 c -0.3,-0.8 -0.7,-1.7 -1.2,-2.2 l -0.8,-0.8 1.1,0.4 c 0.6,0.2 1.2,0.4 1.7,0.6 0.7,0.2 1.3,0.4 2,0.7 0.8,0.4 1.6,0.8 2.3,1.2 0.7,0.4 1.5,0.8 2.3,1.1 l 2.7,0.9 c 1.4,0.4 2.8,0.9 4.1,1.5 2.1,1 4.2,1.6 6.5,2.3 0.5,0.2 1,0.3 1.6,0.5 1.1,0.3 2.2,0.9 3.3,1.4 1.3,0.6 2.5,1.2 3.7,1.4 0.9,0.2 1.4,0.5 1.5,0.9 0.2,0.6 -0.4,1.1 -1.1,1.8 l -0.2,0.2 c -1.9,1.6 -3.6,3.3 -5.3,4.9 -2.4,2.3 -4.8,4.7 -7.6,6.7 z m -16,-23.9 c 0.7,0.8 1.2,1.6 1.9,2.5 0.4,0.5 0.7,1 1.1,1.5 0.6,0.8 1.2,1.6 1.7,2.4 0.5,0.8 1.1,1.6 1.7,2.4 0.5,0.6 0.9,1.3 1.2,1.9 l 1.2,1.8 c 1,1.6 2.2,3.1 3.2,4.6 1.4,2 2.9,4 4.2,6.1 2.6,-2 5,-4.3 7.3,-6.5 1.7,-1.7 3.5,-3.4 5.3,-4.9 l 0.2,-0.2 c 0.5,-0.5 1,-1 0.9,-1.3 0,-0.1 -0.2,-0.4 -1.2,-0.6 -1.3,-0.2 -2.5,-0.8 -3.9,-1.5 -1,-0.5 -2.1,-1 -3.2,-1.3 -0.5,-0.2 -1.1,-0.3 -1.6,-0.5 -2.3,-0.7 -4.4,-1.3 -6.6,-2.3 -1.4,-0.6 -2.7,-1.1 -4.1,-1.5 -0.9,-0.3 -1.8,-0.6 -2.8,-0.9 -0.8,-0.4 -1.6,-0.8 -2.3,-1.2 -0.7,-0.4 -1.5,-0.8 -2.3,-1.1 -0.7,-0.3 -1.3,-0.5 -1.9,-0.7 -0.3,-0.1 -0.6,-0.2 -1,-0.3 0.5,0.5 0.7,1.1 1,1.6 z m 31.8,-7.8 c -0.3,0 -0.5,-0.1 -0.5,-0.3 -0.2,-0.3 0.1,-0.7 0.5,-1.2 0.8,-1 1.4,-2.1 2.1,-3.2 0.9,-1.4 1.8,-2.8 2.8,-4.1 l 0.2,-0.2 0.2,0.2 c 0.6,0.6 1.2,1.2 1.8,1.7 0.6,0.6 1.2,1.2 1.9,1.8 l 2.8,2.8 c 0.5,0.3 1,0.8 1.4,1.2 0.4,0.2 0.6,0.4 0.7,0.6 l 0.4,0.4 h -0.6 c -0.2,0 -0.5,0 -0.8,0.1 -0.6,0.1 -1.3,0.1 -1.9,0 -0.7,-0.1 -1.4,-0.1 -2.1,0 -0.8,0 -1.5,0.1 -2,0 -0.3,0 -0.6,-0.1 -1,-0.1 -0.7,0 -1.4,0.1 -2.2,0.2 h -1.3 c -0.7,0 -1.5,-0.1 -2.1,0 -0.1,0.1 -0.2,0.1 -0.3,0.1 z m -0.1,-0.5 h 0.4 c 0.6,-0.1 1.4,-0.1 2.2,0 h 1.2 c 1.2,-0.2 2.3,-0.3 3.4,-0.1 0.5,0.1 1.2,0.1 1.9,0 h 2.2 c 0.6,0.1 1.2,0.1 1.8,0 h 0.2 c -0.1,0 -0.1,-0.1 -0.2,-0.1 h -0.1 c -0.3,-0.3 -0.9,-0.9 -1.4,-1.2 l -2.9,-2.8 -1.8,-1.8 c -0.5,-0.5 -1.1,-1 -1.6,-1.6 -0.9,1.2 -1.7,2.5 -2.6,3.8 -0.7,1 -1.4,2.1 -2.1,3.2 -0.3,0 -0.5,0.4 -0.6,0.6 z m -80.2,2.6 h -2.5 c -0.6,-0.2 -1.3,-0.3 -1.7,-0.3 -0.9,-0.2 -1.8,0 -2.7,-0.2 -1.2,-0.3 -2.2,-0.3 -3.3,-0.3 -0.5,0 -1,-0.1 -1.5,-0.2 -0.5,-0.1 -0.9,-0.2 -1.4,-0.2 -0.3,0 -0.6,0 -0.8,-0.3 -0.1,-0.3 0.2,-0.6 0.6,-1 0.9,-1 1.8,-2 2.6,-3 0.9,-1 1.8,-2 2.6,-3 l 0.2,-0.2 0.2,0.3 c 0.4,0.6 0.9,1.2 1.4,1.7 0.5,0.6 1,1.2 1.4,1.8 0.2,0.2 0.4,0.5 0.6,0.9 0.1,0.1 0.2,0.2 0.3,0.4 0.3,0.5 0.7,1 1.2,1.5 0.2,0.2 0.4,0.4 0.5,0.6 0.2,0.2 0.3,0.4 0.5,0.6 0.2,0.1 0.3,0.2 0.4,0.3 0.1,0.1 0.1,0.1 0.3,0.2 z m -2.4,-0.5 h 0.6 c 0,0 -0.1,0 -0.1,-0.1 h -0.1 c -0.2,-0.2 -0.4,-0.4 -0.5,-0.6 -0.2,-0.2 -0.3,-0.4 -0.5,-0.6 -0.5,-0.5 -0.9,-1.1 -1.3,-1.6 -0.1,-0.1 -0.2,-0.3 -0.3,-0.4 -0.2,-0.3 -0.4,-0.6 -0.6,-0.8 -0.5,-0.6 -0.9,-1.2 -1.4,-1.8 l -1.2,-1.5 c -0.8,0.9 -1.6,1.8 -2.4,2.8 -0.9,1 -1.8,2 -2.6,3 l -0.4,0.4 h 0.2 c 0.5,0 1,0.1 1.5,0.2 0.5,0.1 0.9,0.2 1.4,0.2 1.1,0 2.1,0 3.4,0.4 0.8,0.2 1.7,0 2.6,0.2 0.6,-0.2 1.4,0 1.7,0.2 z"
     id="path12"
     inkscape:connector-curvature="0"
     style="fill:#f2f2f2" />
  <path
     d="m 86.9,103.76328 -0.1,-0.6 c -0.1,-0.9 -0.3,-1.8 -0.5,-2.6 -0.2,-0.800005 -0.3,-1.500005 -0.4,-2.300005 -0.1,-1 0,-1.9 0,-2.9 0,-0.9 0.1,-1.9 0,-3 -0.1,-1.1 -0.3,-2.3 -0.5,-3.4 -0.3,-1.9 -0.7,-3.8 -0.7,-5.6 0,-2.6 -0.6,-5.4 -1.1,-8.3 -0.1,-0.7 -0.3,-1.5 -0.4,-2.2 -0.2,-1.4 -0.3,-2.7 -0.3,-4 0,-1.7 -0.1,-3.4 -0.6,-5.2 -0.3,-1 -0.3,-1.5 -0.1,-1.8 0.1,-0.1 0.2,-0.2 0.4,-0.2 0.5,0 1.4,0.8 2.9,2.3 l 0.4,0.4 c 3.7,4.1 7.6,8.1 11.4,11.9 4.4,4.5 9,9.2 13.2,13.9 l 0.2,0.3 -0.3,0.1 c -2.3,0.9 -4.5,2.2 -6.7,3.4 -1.1,0.6 -2.2,1.3 -3.3,1.8 -0.3,0.1 -0.5,0.3 -0.8,0.4 -0.8,0.4 -1.7,0.8 -2.5,1.3 -0.6,0.4 -1.3,0.7 -2,1 -0.8,0.4 -1.7,0.7 -2.4,1.3 -0.6,0.500005 -1.3,0.900005 -2,1.300005 -0.6,0.3 -1.2,0.6 -1.7,1 -0.2,0.1 -0.3,0.1 -0.5,0.2 -0.4,0.1 -0.9,0.2 -1.2,0.7 z M 82.5,62.263275 c 0,0 -0.1,0.2 0.2,1.3 0.5,1.8 0.6,3.6 0.6,5.3 0,1.3 0.1,2.6 0.3,3.9 0.1,0.7 0.3,1.5 0.4,2.2 0.6,2.9 1.2,5.7 1.2,8.4 0,1.7 0.3,3.6 0.7,5.5 0.2,1.1 0.4,2.3 0.6,3.5 0.1,1.1 0,2.1 0,3 0,0.9 -0.1,1.8 0,2.8 0.1,0.7 0.2,1.5 0.4,2.200005 0.2,0.7 0.3,1.4 0.4,2.2 0.4,-0.3 0.8,-0.4 1.1,-0.5 0.1,0 0.3,-0.1 0.4,-0.1 0.5,-0.4 1.1,-0.7 1.7,-1 0.7,-0.4 1.4,-0.8 1.9,-1.200005 0.8,-0.6 1.7,-1 2.5,-1.4 0.7,-0.3 1.3,-0.6 1.9,-0.9 0.8,-0.5 1.7,-1 2.6,-1.4 0.3,-0.1 0.5,-0.3 0.8,-0.4 l 3.3,-1.8 c 2.1,-1.2 4.2,-2.4 6.4,-3.3 -4.2,-4.6 -8.7,-9.2 -13,-13.7 -3.8,-3.9 -7.7,-7.9 -11.4,-11.9 l -0.4,-0.4 c -1,-1.1 -2.2,-2.3 -2.6,-2.3 z"
     id="path14"
     inkscape:connector-curvature="0"
     style="fill:#f2f2f2" />
  <path
     d="m 65.4,88.263275 c -0.1,0 -0.2,-0.1 -0.3,-0.2 -0.2,-0.3 -0.1,-1 0.2,-2.2 0.6,-2.1 1.1,-4.2 1.7,-6.3 1,-3.7 2,-7.6 3.1,-11.3 l 0.1,-0.3 0.3,0.2 c 1.5,1 3.1,1.7 4.7,2.5 0.4,0.2 0.8,0.4 1.3,0.6 0.4,0.2 0.7,0.4 1,0.5 0.3,0.2 0.6,0.3 1,0.5 0.4,0.2 0.8,0.4 1.1,0.6 0.4,0.3 0.9,0.6 1.5,0.8 0.9,0.4 1.6,0.7 2.3,1.1 h 0.1 v 0.1 c 0.2,0.4 0.3,0.6 0.7,0.6 h 0.9 l -0.8,0.5 c -0.4,0.2 -0.7,0.5 -1.1,0.8 -0.3,0.3 -0.7,0.6 -1.1,0.8 -0.4,0.3 -0.9,0.5 -1.4,0.7 -0.5,0.2 -1,0.4 -1.4,0.7 -0.6,0.4 -1.1,0.8 -1.7,1.2 -0.8,0.6 -1.5,1.2 -2.4,1.6 -1.6,0.9 -3.2,2.1 -4.7,3.3 -0.6,0.5 -1.3,0.8 -1.9,1.1 -0.8,0.4 -1.6,0.8 -2.3,1.5 -0.4,0.5 -0.7,0.6 -0.9,0.6 z m 5.1,-19.5 c -1.1,3.6 -2.1,7.4 -3,11 -0.5,2.1 -1.1,4.2 -1.7,6.3 -0.1,0.5 -0.3,1.4 -0.3,1.7 0.1,0 0.2,-0.1 0.4,-0.4 0.7,-0.7 1.6,-1.2 2.4,-1.6 0.6,-0.3 1.2,-0.6 1.8,-1.1 1.6,-1.2 3.2,-2.5 4.8,-3.4 0.8,-0.4 1.5,-1 2.3,-1.6 0.6,-0.4 1.1,-0.9 1.7,-1.3 0.5,-0.3 1,-0.5 1.4,-0.7 0.5,-0.2 1,-0.4 1.4,-0.7 0.3,-0.2 0.7,-0.4 1,-0.7 0.2,-0.2 0.4,-0.4 0.7,-0.6 -0.2,-0.2 -0.4,-0.4 -0.5,-0.6 -0.7,-0.3 -1.3,-0.7 -2.2,-1 -0.6,-0.2 -1.1,-0.5 -1.6,-0.8 -0.4,-0.2 -0.7,-0.4 -1.1,-0.6 -0.4,-0.2 -0.7,-0.4 -1,-0.5 -0.3,-0.2 -0.6,-0.3 -1,-0.5 -0.4,-0.2 -0.8,-0.4 -1.3,-0.6 -1.3,-0.7 -2.8,-1.4 -4.2,-2.3 z m 108.5,24.5 -0.1,-0.2 c -1.9,-2.9 -4,-5.9 -6,-8.7 l -0.8,-1.1 -0.6,-0.9 c -0.5,-0.8 -1.1,-1.7 -1.7,-2.4 -0.5,-0.7 -1,-1.5 -1.5,-2.2 -0.5,-0.7 -1,-1.5 -1.5,-2.2 -0.9,-1.2 -1.8,-2.5 -2.8,-3.7 -0.1,-0.2 -0.2,-0.3 -0.3,-0.5 -0.3,-0.4 -0.5,-0.9 -0.9,-1.2 l -0.9,-0.9 1.2,0.5 c 0.6,0.3 1.1,0.4 1.6,0.5 0.5,0.1 1.1,0.3 1.7,0.5 0.5,0.2 0.9,0.5 1.4,0.7 0.9,0.5 1.8,0.9 2.8,1.4 0.8,0.4 1.7,0.6 2.6,0.9 1.3,0.4 2.5,0.8 3.6,1.4 1.7,0.8 3.2,1.3 4.9,1.9 0.8,0.2 1.5,0.5 2.3,0.8 0.9,0.3 1.9,0.8 2.8,1.2 1.2,0.6 2.4,1.2 3.5,1.4 0.9,0.2 1.4,0.6 1.5,1 0.1,0.6 -0.6,1.2 -1.2,1.6 -1.5,1.3 -3,2.7 -4.4,4.1 -2.2,2.1 -4.4,4.3 -6.8,6.1 z m -15.4,-22.9 c 0.1,0.2 0.3,0.4 0.4,0.6 0.1,0.2 0.2,0.3 0.3,0.5 1,1.2 1.9,2.5 2.8,3.7 0.5,0.7 1,1.5 1.5,2.2 0.5,0.7 1,1.5 1.5,2.2 0.6,0.8 1.2,1.6 1.7,2.4 l 0.6,0.9 0.8,1.1 c 2,2.8 4.1,5.6 5.9,8.5 2.3,-1.8 4.5,-3.8 6.6,-5.9 1.4,-1.4 2.9,-2.8 4.5,-4.2 0.9,-0.6 1,-1 1,-1.1 0,-0.1 -0.2,-0.4 -1.1,-0.6 -1.1,-0.2 -2.4,-0.8 -3.6,-1.4 -0.9,-0.4 -1.9,-0.9 -2.7,-1.2 -0.8,-0.3 -1.5,-0.5 -2.3,-0.8 -1.7,-0.5 -3.3,-1 -5,-1.9 -1.1,-0.6 -2.3,-1 -3.5,-1.4 -0.8,-0.3 -1.7,-0.5 -2.6,-0.9 -1.1,-0.5 -2,-1 -2.9,-1.4 -0.4,-0.2 -0.9,-0.5 -1.4,-0.7 -0.6,-0.2 -1.1,-0.4 -1.6,-0.5 -0.3,0 -0.6,0 -0.9,-0.1 z m 33.7,19.1 c -0.8,0 -1.3,-1 -1.9,-2.1 -1.5,-2.8 -3.1,-5.5 -4.7,-8.2 -2.2,-3.7 -4.5,-7.5 -6.4,-11.5 l -0.1,-0.3 0.3,-0.1 c 3.1,-1.1 6.2,-2.3 9.2,-3.5 2,-0.8 4.1,-1.7 6.1,-2.4 0.9,-0.4 1.7,-0.7 2.6,-1 0.8,-0.3 1.7,-0.6 2.5,-1 0.9,-0.4 1.7,-0.7 2.7,-1 1.3,-0.5 2.7,-1 4,-1.6 1,-0.4 2,-0.8 2.9,-1.2 0.9,-0.4 1.9,-0.8 2.9,-1.2 0.3,-0.1 0.7,-0.2 1,-0.4 0.6,-0.2 1.1,-0.4 1.8,-0.7 l 0.9,-0.5 -0.6,0.8 c -0.6,0.8 -0.9,1.6 -1.3,2.4 -0.3,0.6 -0.6,1.2 -1,1.8 -0.6,0.9 -1.3,1.8 -2,2.6 -0.6,0.8 -1.3,1.7 -1.9,2.5 -0.5,0.9 -1,1.8 -1.5,2.6 -1,1.7 -2,3.5 -3.3,5.3 -1.8,2.6 -3.3,5.2 -4.8,7.9 l -0.7,1.2 c -0.7,1.3 -1.6,2.5 -2.5,3.7 -1.1,1.4 -2.1,2.8 -2.7,4.2 -0.5,1.2 -1,1.7 -1.5,1.7 z m -12.4,-21.8 c 1.8,3.9 4.1,7.6 6.2,11.2 1.6,2.7 3.3,5.4 4.7,8.2 0.3,0.7 0.9,1.9 1.4,1.9 0.2,0 0.6,-0.2 1.1,-1.3 0.7,-1.5 1.7,-2.8 2.8,-4.3 0.9,-1.2 1.8,-2.4 2.5,-3.7 l 0.7,-1.2 c 1.5,-2.7 2.9,-5.3 4.8,-7.9 1.3,-1.8 2.3,-3.5 3.2,-5.3 0.5,-0.9 1,-1.8 1.5,-2.6 0.6,-0.9 1.3,-1.7 1.9,-2.6 0.6,-0.8 1.3,-1.7 1.9,-2.5 0.4,-0.6 0.6,-1.2 0.9,-1.8 0.3,-0.6 0.5,-1.1 0.9,-1.7 -0.4,0.1 -0.7,0.3 -1.1,0.4 -0.3,0.1 -0.7,0.2 -1,0.3 -1,0.4 -1.9,0.8 -2.9,1.2 -0.9,0.4 -1.9,0.8 -2.9,1.2 -1.4,0.6 -2.7,1.1 -4,1.6 -0.9,0.3 -1.8,0.7 -2.6,1 -0.9,0.4 -1.7,0.7 -2.6,1 -0.8,0.3 -1.7,0.6 -2.5,1 -2,0.8 -4.1,1.6 -6.1,2.4 -2.8,1.2 -5.9,2.5 -8.8,3.5 z"
     id="path16"
     inkscape:connector-curvature="0"
     style="fill:#f2f2f2" />
  <path
     d="m 233,80.663275 -0.5,-0.3 c -0.6,-0.3 -1.2,-0.5 -1.8,-0.7 -0.4,-0.1 -0.8,-0.2 -1.1,-0.4 -0.6,-0.3 -1.2,-0.6 -1.7,-1 -0.5,-0.4 -1,-0.7 -1.6,-0.9 -0.4,-0.2 -0.8,-0.3 -1.2,-0.5 -1.4,-0.6 -2.9,-1.1 -4.3,-1.8 -1.3,-0.7 -2.7,-1.3 -4.2,-1.8 -0.7,-0.3 -1.5,-0.5 -2.2,-0.8 -0.9,-0.3 -1.7,-0.8 -2.5,-1.3 -1,-0.6 -1.9,-1.1 -2.9,-1.4 -0.5,-0.1 -1.1,-0.4 -1.1,-0.8 0,-0.5 0.6,-0.9 2,-1.4 2.7,-1.1 5.3,-2.3 7.9,-3.5 3.4,-1.5 6.8,-3.1 10.4,-4.4 l 0.3,-0.1 v 0.3 c 0.2,1.8 0.6,3.6 1,5.4 0.3,1.1 0.5,2.2 0.7,3.3 0.1,0.4 0.2,0.9 0.3,1.4 0.1,0.5 0.2,1 0.3,1.4 0.2,0.6 0.3,1.2 0.4,1.9 l 0.3,1.8 c 0.2,0.6 0.3,1.2 0.5,1.8 0.1,0.5 0.2,1 0.4,1.5 0.2,0.4 0.3,0.8 0.4,1.2 0,0.2 0.1,0.4 0.1,0.5 z m -5.1,-20.4 c -3.5,1.3 -6.8,2.8 -10.1,4.3 -2.6,1.2 -5.2,2.4 -7.9,3.5 -1.7,0.6 -1.7,0.9 -1.7,0.9 0,0 0.1,0.2 0.8,0.4 1.1,0.3 2.1,0.9 3,1.4 0.8,0.5 1.6,0.9 2.5,1.2 0.7,0.3 1.4,0.6 2.2,0.8 1.4,0.5 2.9,1.1 4.2,1.8 1.4,0.7 2.8,1.3 4.2,1.8 0.4,0.2 0.8,0.3 1.2,0.5 0.6,0.3 1.2,0.6 1.7,1 0.5,0.4 1,0.7 1.6,0.9 0.3,0.1 0.7,0.2 1.1,0.4 0.5,0.1 0.9,0.3 1.4,0.5 v -0.1 c -0.1,-0.3 -0.2,-0.7 -0.4,-1.1 -0.2,-0.6 -0.3,-1.1 -0.4,-1.6 -0.2,-0.6 -0.3,-1.2 -0.5,-1.8 -0.2,-0.6 -0.3,-1.3 -0.4,-1.9 l -0.3,-1.8 c -0.1,-0.5 -0.2,-0.9 -0.3,-1.4 -0.1,-0.5 -0.2,-1 -0.3,-1.4 -0.2,-1.1 -0.5,-2.2 -0.7,-3.2 -0.2,-1.6 -0.6,-3.3 -0.9,-5.1 z m -21.4,1.5 h -2.6 c -0.4,0 -0.7,0 -1.1,-0.1 -0.4,-0.1 -0.7,-0.1 -1,-0.1 h -3 c -0.4,-0.1 -0.8,-0.1 -1.2,-0.1 h -1.1 c -0.8,0 -1.7,0 -2.5,-0.1 -0.7,-0.1 -1.3,-0.2 -1.8,-0.1 -0.6,0.1 -0.8,-0.1 -0.9,-0.2 -0.1,-0.3 0.2,-0.8 0.5,-1.1 0.5,-0.8 1.1,-1.6 1.6,-2.4 1,-1.5 1.9,-2.9 3,-4.3 l 0.2,-0.2 0.2,0.2 c 1.1,1.1 2.2,2 3.4,3.1 l 0.4,0.4 2.8,2.8 c 0.5,0.3 1,0.8 1.3,1.2 0.3,0 0.4,0.1 0.6,0.2 0.1,0 0.1,0.1 0.2,0.1 z m -4.7,-0.7 c 0.4,0 0.7,0 1.1,0.1 0.4,0.1 0.7,0.1 1,0.1 h 0.5 c -0.3,-0.3 -0.8,-0.8 -1.3,-1.1 l -2.9,-2.8 -0.4,-0.4 c -1.2,-1 -2.2,-1.9 -3.2,-3 -1,1.3 -1.9,2.6 -2.8,4 -0.5,0.8 -1,1.6 -1.6,2.4 -0.3,0.3 -0.4,0.4 -0.4,0.5 h 0.3 c 0.6,-0.1 1.3,0 2,0.1 0.9,0.1 1.7,0.1 2.4,0.1 0.8,0 1.6,-0.1 2.4,0 z m -87.7,5.1 h -2.5 c -0.6,-0.2 -1.3,-0.3 -1.7,-0.3 -0.9,-0.2 -1.8,0 -2.7,-0.2 -1,-0.2 -2.1,-0.2 -3.1,-0.2 -0.5,0 -1,-0.1 -1.5,-0.2 -0.5,-0.1 -0.9,-0.2 -1.4,-0.2 -0.3,0 -0.6,0 -0.8,-0.3 -0.1,-0.3 0.2,-0.6 0.6,-1 0.9,-1 1.8,-2 2.6,-3 0.9,-1 1.8,-2 2.6,-3 l 0.2,-0.2 0.2,0.3 c 0.4,0.6 0.9,1.2 1.4,1.7 0.5,0.6 1,1.2 1.4,1.8 0.2,0.2 0.4,0.5 0.6,0.9 0.1,0.1 0.2,0.2 0.2,0.4 0.3,0.5 0.7,1 1.2,1.5 0.2,0.2 0.4,0.4 0.5,0.6 0.1,0.2 0.3,0.3 0.4,0.5 0.2,0 0.3,0.1 0.4,0.2 0.1,0.1 0.1,0.2 0.2,0.2 z m -2.4,-0.5 h 0.6 c -0.2,-0.2 -0.3,-0.4 -0.5,-0.6 -0.2,-0.2 -0.3,-0.4 -0.5,-0.6 -0.5,-0.5 -0.9,-1.1 -1.3,-1.6 -0.1,-0.1 -0.2,-0.3 -0.3,-0.4 -0.2,-0.3 -0.4,-0.6 -0.6,-0.8 -0.5,-0.6 -0.9,-1.2 -1.4,-1.8 l -1.2,-1.5 c -0.8,0.9 -1.6,1.8 -2.4,2.8 -0.9,1 -1.8,2 -2.6,3 l -0.4,0.4 h 0.2 c 0.5,0 1,0.1 1.5,0.2 0.5,0.1 0.9,0.2 1.4,0.2 1,0 2.1,0 3.2,0.2 0.9,0.2 1.7,0 2.6,0.2 0.6,-0.1 1.4,0.2 1.7,0.3 z m -48.7,27.4 c -0.9,-0.3 -1.8,-0.4 -2.8,-0.6 -1,-0.2 -2,-0.4 -2.8,-0.6 -1,-0.3 -1.8,-0.7 -2.7,-1.1 -0.9,-0.4 -1.9,-0.8 -3.1,-1.2 -1.1,-0.3 -2.3,-0.5 -3.4,-0.8 -2.3,-0.5 -4.6,-1 -6.6,-1.9 -2.1,-0.8 -4.7,-1.4 -7.3,-2 -1.4,-0.3 -2.9,-0.6 -4.3,-1 -1.6,-0.4 -3,-0.9 -4.3,-1.4 -1.7,-0.7 -3.3,-1.3 -5.3,-1.6 -1.3,-0.2 -1.8,-0.4 -1.8,-0.8 0,-0.6 1.4,-1.1 4.8,-2 6.3,-1.5 12.8,-3.1 19,-4.7 7.8,-2 15.8,-4.1 23.7,-5.8 l 0.4,-0.1 -0.1,0.4 c -0.7,2.3 -0.8,4.6 -1,6.7 -0.1,1.2 -0.2,2.5 -0.4,3.8 -0.1,0.4 -0.1,0.9 -0.2,1.3 -0.2,0.7 -0.3,1.4 -0.3,2.2 0,0.8 -0.2,1.7 -0.4,2.5 -0.2,0.7 -0.3,1.4 -0.3,2.1 0,0.6 0,1.2 -0.1,1.9 0,0.7 -0.1,1.4 -0.1,2.1 0,0.4 -0.1,0.8 -0.3,1.1 -0.1,0.3 -0.2,0.6 -0.2,0.9 h 0.2 z m -44,-12.9 c 0.1,0.1 0.4,0.2 1.4,0.3 2.1,0.3 3.7,0.9 5.4,1.6 1.3,0.5 2.6,1 4.3,1.4 1.4,0.4 2.9,0.7 4.3,1 2.7,0.6 5.2,1.2 7.4,2 2,0.8 4.3,1.3 6.6,1.8 1.1,0.3 2.3,0.5 3.4,0.8 1.3,0.4 2.2,0.8 3.2,1.2 0.8,0.4 1.7,0.7 2.6,1 0.9,0.3 1.8,0.4 2.8,0.6 0.7,0.1 1.5,0.3 2.2,0.4 0,-0.3 0.2,-0.6 0.3,-0.9 0.1,-0.3 0.2,-0.7 0.2,-1 0,-0.7 0,-1.5 0.1,-2.2 0,-0.7 0.1,-1.3 0.1,-1.9 0,-0.7 0.2,-1.4 0.3,-2.2 0.2,-0.8 0.4,-1.6 0.4,-2.4 0,-0.8 0.1,-1.5 0.3,-2.3 0.1,-0.4 0.2,-0.8 0.2,-1.2 0.2,-1.3 0.3,-2.6 0.4,-3.8 0.2,-2.1 0.3,-4.2 0.9,-6.4 -7.8,1.7 -15.7,3.8 -23.3,5.7 -6.2,1.6 -12.7,3.3 -19,4.7 -1.7,0.7 -4.2,1.4 -4.5,1.8 z"
     id="path18"
     inkscape:connector-curvature="0"
     style="fill:#f2f2f2" />
  <path
     d="m 63.9,95.363275 c -0.8,-0.2 -1.8,-0.4 -2.7,-0.6 -1,-0.2 -2,-0.4 -2.8,-0.6 -1,-0.3 -1.8,-0.7 -2.7,-1.1 -0.9,-0.4 -1.9,-0.8 -3.1,-1.2 -1.1,-0.3 -2.3,-0.6 -3.4,-0.9 -2.2,-0.5 -4.4,-1.1 -6.2,-1.8 -3.3,-1.2 -7.4,-2.1 -11.4,-3 -1.5,-0.4 -2.8,-0.9 -4.1,-1.4 -1.7,-0.7 -3.3,-1.3 -5.4,-1.6 -1.3,-0.2 -1.8,-0.4 -1.8,-0.8 0,-0.6 1.4,-1.1 4.8,-2 6,-1.4 12,-3 17.9,-4.5 7.8,-2 15.9,-4.1 23.8,-5.9 l 0.4,-0.1 -0.1,0.4 c -0.6,2.6 -0.8,5.1 -1,7.6 -0.1,1 -0.1,2 -0.2,3 l -0.3,1.8 -0.3,1.8 c 0,0.7 -0.1,1.4 -0.3,2.2 -0.2,0.8 -0.3,1.6 -0.2,2.4 0.1,0.8 0,1.5 -0.1,2.4 -0.1,0.6 -0.1,1.1 -0.1,1.7 0,0.4 -0.1,0.8 -0.3,1.1 -0.1,0.3 -0.2,0.7 -0.2,1 H 64 Z m -43.1,-13 c 0.1,0.1 0.4,0.2 1.4,0.3 2.2,0.3 3.8,1 5.5,1.6 1.2,0.5 2.5,1 4,1.4 4,0.9 8.1,1.8 11.5,3 1.8,0.7 4,1.2 6.2,1.7 1.2,0.3 2.4,0.6 3.5,0.9 1.2,0.4 2.2,0.8 3.2,1.2 0.8,0.4 1.6,0.7 2.6,1 0.8,0.3 1.7,0.4 2.7,0.6 0.8,0.1 1.5,0.3 2.3,0.5 0.1,-0.3 0.1,-0.5 0.2,-0.8 0.1,-0.3 0.2,-0.7 0.2,-1 0,-0.6 0.1,-1.2 0.1,-1.7 0.1,-0.8 0.2,-1.6 0.1,-2.3 -0.1,-0.8 0.1,-1.6 0.2,-2.5 0.1,-0.7 0.3,-1.4 0.3,-2.1 0.1,-0.7 0.2,-1.2 0.3,-1.8 0.1,-0.6 0.2,-1.1 0.3,-1.7 0.1,-1 0.2,-2 0.2,-3 0.2,-2.3 0.3,-4.7 0.9,-7.2 -7.8,1.8 -15.7,3.8 -23.4,5.8 -5.9,1.5 -11.9,3.1 -17.9,4.5 -1.7,0.6 -4.1,1.3 -4.4,1.6 z m 139.9,4.9 -0.2,-0.1 c -3.1,-1.6 -6.3,-3 -9.7,-4.4 -1.7,-0.7 -3.5,-1.5 -5.2,-2.3 -0.6,-0.3 -1.3,-0.6 -1.9,-0.9 -1,-0.5 -1.9,-1 -3,-1.4 -1.2,-0.4 -2.2,-1 -3.3,-1.5 -1,-0.5 -2.1,-1.1 -3.2,-1.5 -1.9,-0.7 -3.9,-1.6 -5.8,-2.5 -0.3,-0.1 -0.7,-0.3 -1.1,-0.5 -0.5,-0.3 -1.1,-0.5 -1.7,-0.7 l -0.9,-0.3 0.9,-0.2 c 0.9,-0.2 1.6,-0.4 2.3,-0.7 0.7,-0.3 1.5,-0.5 2.4,-0.7 0.9,-0.1 1.7,-0.2 2.6,-0.3 1.2,-0.1 2.5,-0.3 3.8,-0.6 1.2,-0.3 2.3,-0.6 3.4,-0.9 1.8,-0.5 3.6,-1 5.5,-1.4 2.8,-0.4 5.2,-1.2 7.8,-2 0.8,-0.3 1.7,-0.5 2.6,-0.8 1.4,-0.4 2.9,-0.6 4.3,-0.8 1.8,-0.3 3.6,-0.5 5,-1.1 1.2,-0.5 1.9,-0.4 2.2,0 0.4,0.5 0.2,1.4 -0.2,2.7 -0.9,2.9 -1.7,5.9 -2.4,8.8 -1.2,4.5 -2.4,9.2 -4.1,13.7 z m -34.3,-16 c 0.3,0.1 0.7,0.3 1,0.5 0.4,0.2 0.7,0.3 1.1,0.5 1.9,0.9 3.9,1.8 5.8,2.5 1.2,0.4 2.2,1 3.3,1.5 1,0.5 2.1,1 3.2,1.5 1.1,0.4 2.1,0.9 3,1.4 0.6,0.3 1.3,0.6 1.9,0.9 1.7,0.8 3.5,1.5 5.2,2.3 3.3,1.4 6.5,2.7 9.5,4.3 1.7,-4.4 2.8,-9 4,-13.4 0.8,-2.9 1.5,-5.9 2.4,-8.8 0.2,-0.6 0.6,-1.9 0.2,-2.3 0,0 -0.1,-0.2 -0.5,-0.2 -0.3,0 -0.7,0.1 -1.2,0.3 -1.5,0.6 -3.3,0.9 -5.1,1.1 -1.4,0.2 -2.9,0.4 -4.3,0.8 -0.9,0.3 -1.7,0.5 -2.6,0.8 -2.6,0.8 -5.1,1.6 -7.9,2 -1.9,0.3 -3.7,0.8 -5.5,1.3 -1.1,0.3 -2.3,0.7 -3.5,0.9 -1.3,0.3 -2.6,0.5 -3.8,0.6 -0.8,0.1 -1.7,0.2 -2.5,0.3 -0.9,0.2 -1.6,0.4 -2.3,0.7 -0.3,0.2 -0.8,0.3 -1.4,0.5 z"
     id="path20"
     inkscape:connector-curvature="0"
     style="fill:#f2f2f2" />
  <path
     d="m 100.6,87.563275 0.5,-1 c 0.4,-0.8 0.6,-1.5 0.7,-2.3 0.1,-0.6 0.3,-1.1 0.5,-1.8 0.3,-0.7 0.7,-1.4 1.1,-2.1 0.5,-0.9 1,-1.8 1.4,-2.8 0.3,-0.8 0.6,-1.6 0.8,-2.5 0.5,-1.7 1.1,-3.4 1.8,-4.9 1.2,-2.4 1.9,-4.7 2.6,-7.2 0.1,-0.4 0.3,-0.9 0.4,-1.3 0.4,-1.2 1,-2.3 1.5,-3.4 0.7,-1.4 1.4,-2.8 1.7,-4.1 0.1,-0.7 0.4,-1.6 1.1,-1.6 0.6,0 1.3,0.8 1.9,1.7 1.8,2.5 3.7,4.9 5.6,7.3 2.5,3.1 5.1,6.4 7.4,9.8 l 0.2,0.2 -0.3,0.1 c -2.3,1.1 -4.7,2.5 -6.9,3.7 -1.6,0.9 -3.3,1.9 -5,2.8 -0.7,0.4 -1.4,0.7 -2,1.1 -0.7,0.4 -1.3,0.7 -2,1.1 -0.9,0.5 -1.8,1 -2.6,1.4 -0.9,0.4 -1.8,0.9 -2.6,1.4 -1.4,0.9 -3,1.8 -4.6,2.6 l -0.6,0.3 c -0.5,0.2 -1,0.4 -1.6,0.9 z m 14.1,-34.6 c -0.3,0 -0.5,0.4 -0.6,1.2 -0.3,1.4 -1,2.8 -1.7,4.2 -0.5,1.1 -1.1,2.2 -1.5,3.4 -0.1,0.4 -0.3,0.9 -0.4,1.3 -0.7,2.5 -1.4,4.9 -2.6,7.3 -0.7,1.5 -1.2,3.2 -1.8,4.9 -0.3,0.8 -0.5,1.7 -0.8,2.5 -0.4,1 -0.9,1.9 -1.4,2.9 -0.4,0.7 -0.8,1.4 -1.1,2.1 -0.2,0.6 -0.3,1.1 -0.5,1.7 -0.1,0.5 -0.2,1 -0.4,1.6 0.4,-0.2 0.7,-0.4 1,-0.5 l 0.6,-0.3 c 1.5,-0.9 3.2,-1.8 4.6,-2.6 0.9,-0.5 1.8,-1 2.7,-1.4 0.9,-0.4 1.8,-0.9 2.6,-1.4 0.7,-0.4 1.4,-0.7 2,-1.1 0.7,-0.4 1.3,-0.7 2,-1.1 1.7,-0.9 3.4,-1.8 5,-2.8 2.2,-1.2 4.4,-2.5 6.7,-3.6 -2.3,-3.3 -4.8,-6.5 -7.2,-9.5 -1.9,-2.4 -3.8,-4.8 -5.6,-7.3 -0.5,-0.5 -1.2,-1.5 -1.6,-1.5 z m -98.7,30.4 -0.1,-0.3 c -1.8,-4.2 -3.9,-8.3 -6,-12.3 -0.3,-0.6 -0.6,-1.2 -0.8,-1.7 -0.4,-0.8 -0.7,-1.6 -1.1,-2.3 -0.4,-0.8 -0.7,-1.6 -1.1,-2.4 -0.5,-1 -0.9,-2 -1.4,-2.9 -0.4,-0.6 -0.7,-1.3 -1,-1.9 -0.5,-0.9 -0.9,-1.8 -1.5,-2.7 -0.2,-0.3 -0.3,-0.6 -0.5,-1 -0.2,-0.4 -0.3,-0.9 -0.6,-1.3 l -0.4,-0.7 0.8,0.4 c 0.8,0.4 1.5,0.6 2.4,0.7 0.6,0.1 1.2,0.3 1.8,0.5 0.9,0.4 1.7,0.8 2.5,1.2 0.8,0.4 1.6,0.9 2.4,1.2 0.9,0.3 1.9,0.6 2.9,1 1.6,0.5 3.3,1 4.8,1.7 2.2,1.1 4.6,1.8 7,2.4 0.7,0.2 1.3,0.4 2,0.6 1.1,0.4 2.2,0.9 3.3,1.4 1.5,0.7 2.9,1.4 4.4,1.7 1,0.2 1.5,0.5 1.6,0.9 0.1,0.7 -0.7,1.3 -1.7,2 l -0.2,0.2 c -2.4,1.7 -4.9,3.4 -7.2,5.1 -3.9,2.8 -7.9,5.8 -12.2,8.3 z m -13.2,-28.4 c 0.1,0.3 0.2,0.5 0.3,0.7 0.1,0.4 0.3,0.7 0.4,0.9 l 1.5,2.7 c 0.3,0.6 0.6,1.2 1,1.9 0.5,0.9 0.9,1.9 1.4,3 0.3,0.8 0.7,1.6 1.1,2.3 0.4,0.7 0.8,1.5 1.1,2.3 0.3,0.6 0.5,1.1 0.8,1.7 2,3.9 4.1,7.9 5.9,12.1 4.2,-2.5 8.1,-5.4 11.9,-8.1 2.3,-1.7 4.7,-3.4 7.2,-5.1 l 0.2,-0.1 c 0.7,-0.5 1.5,-1.2 1.5,-1.5 0,-0.1 -0.2,-0.3 -1.2,-0.6 -1.6,-0.3 -3.1,-1 -4.5,-1.8 -1.1,-0.5 -2.2,-1 -3.3,-1.4 -0.6,-0.2 -1.3,-0.4 -2,-0.6 -2.4,-0.7 -4.8,-1.3 -7,-2.4 -1.5,-0.6 -3.2,-1.2 -4.8,-1.7 -1,-0.3 -2,-0.6 -3,-1 -0.9,-0.4 -1.7,-0.8 -2.5,-1.2 -0.8,-0.4 -1.6,-0.9 -2.4,-1.2 -0.6,-0.2 -1.2,-0.3 -1.8,-0.5 -0.6,0 -1.2,-0.1 -1.8,-0.4 z"
     id="path22"
     inkscape:connector-curvature="0"
     style="fill:#f2f2f2" />
  <path
     d="m 2,77.763275 c -0.4,0 -0.6,-0.4 -0.6,-1.1 -0.1,-0.6 -0.2,-1.3 -0.3,-1.9 -0.3,-2 -0.6,-4 -0.6,-6 v -0.3 h 0.3 c 1.4,0.2 3,0.2 4.4,0.2 h 1.4 c 0.4,0 0.7,0 1,0.1 0.3,0 0.6,0.1 0.9,0.1 h 3.2 l -1.5,1.5 c -0.5,0.4 -1.1,0.7 -1.4,1.1 -0.4,0.3 -0.6,0.6 -1,1 -0.3,0.4 -0.6,0.7 -1,1 -0.9,0.7 -1.5,1.4 -2.2,2.2 -0.3,0.3 -0.7,0.6 -1,0.8 -0.4,0.3 -0.8,0.6 -1.1,0.9 0,0.2 -0.2,0.4 -0.5,0.4 z m -0.9,-8.7 c 0,1.9 0.3,3.8 0.6,5.6 0.1,0.7 0.2,1.3 0.3,2 0,0.3 0.1,0.5 0.1,0.6 l 0.2,-0.2 c 0.3,-0.4 0.7,-0.7 1.2,-1 0.3,-0.2 0.7,-0.5 1,-0.8 0.7,-0.9 1.4,-1.6 2.3,-2.3 l 0.9,-0.9 c 0.3,-0.4 0.6,-0.7 1,-1 0.3,-0.3 0.9,-0.7 1.4,-1.1 l 0.6,-0.6 h -2 c -0.4,0 -0.7,0 -1,-0.1 -0.3,0 -0.6,-0.1 -0.9,-0.1 H 5.4 c -1.5,0 -3,0 -4.3,-0.1 z"
     id="path24"
     inkscape:connector-curvature="0"
     style="fill:#f2f2f2" />
  <path
     d="m 14.4,85.863275 -0.1,-0.3 c -1.8,-4.2 -3.9,-8.3 -6,-12.3 -0.3,-0.6 -0.6,-1.2 -0.8,-1.7 -0.4,-0.8 -0.7,-1.6 -1.1,-2.3 -0.4,-0.8 -0.7,-1.6 -1.1,-2.4 -0.5,-1 -0.9,-2 -1.4,-2.9 -0.4,-0.6 -0.7,-1.3 -1,-1.9 -0.5,-0.9 -0.9,-1.8 -1.5,-2.7 -0.2,-0.3 -0.3,-0.7 -0.3,-1 -0.1,-0.5 -0.2,-0.9 -0.5,-1.3 l -0.6,-0.8 0.9,0.5 c 0.8,0.4 1.5,0.6 2.4,0.7 0.6,0.1 1.2,0.3 1.8,0.5 0.9,0.4 1.7,0.8 2.5,1.2 0.8,0.4 1.6,0.9 2.4,1.2 0.9,0.3 1.9,0.6 2.9,1 1.6,0.5 3.3,1 4.8,1.7 2.2,1.1 4.6,1.8 7,2.4 0.7,0.2 1.3,0.4 2,0.6 1.1,0.4 2.2,0.9 3.3,1.4 1.5,0.7 2.9,1.4 4.4,1.7 1,0.2 1.5,0.5 1.6,0.9 0.1,0.7 -0.9,1.4 -2,2.2 -2.4,1.6 -4.8,3.4 -7.2,5.1 -3.9,2.8 -7.9,5.8 -12.2,8.3 z m -13,-28.4 c 0.1,0.3 0.2,0.5 0.2,0.8 l 0.3,0.9 c 0.5,0.8 1,1.7 1.5,2.7 0.3,0.6 0.6,1.2 1,1.9 0.5,0.9 0.9,1.9 1.4,3 0.3,0.8 0.7,1.6 1.1,2.3 0.4,0.7 0.8,1.5 1.1,2.3 0.3,0.6 0.5,1.1 0.8,1.7 2,3.9 4.1,7.9 5.9,12.1 4.2,-2.5 8.1,-5.3 11.9,-8.1 2.3,-1.7 4.7,-3.5 7.2,-5.1 0.8,-0.5 1.9,-1.3 1.8,-1.6 0,-0.1 -0.1,-0.3 -1.2,-0.5 -1.6,-0.3 -3.1,-1 -4.5,-1.8 -1.1,-0.5 -2.1,-1 -3.2,-1.4 -0.6,-0.2 -1.3,-0.4 -2,-0.6 -2.4,-0.7 -4.8,-1.3 -7,-2.4 -1.5,-0.6 -3.2,-1.2 -4.8,-1.7 -1,-0.3 -2,-0.6 -3,-1 -0.9,-0.4 -1.7,-0.8 -2.5,-1.2 -0.8,-0.4 -1.6,-0.9 -2.4,-1.2 -0.6,-0.2 -1.2,-0.3 -1.8,-0.5 z"
     id="path26"
     inkscape:connector-curvature="0"
     style="fill:#f2f2f2" />
  <path
     d="m 4.1,80.163275 c -0.4,0 -0.6,-0.4 -0.6,-1.1 -0.1,-0.6 -0.2,-1.3 -0.3,-1.9 -0.3,-2 -0.6,-4 -0.6,-6 v -0.3 h 0.3 c 1.4,0.2 3,0.2 4.4,0.2 h 1.4 c 0.4,0 0.7,0 1,0.1 0.3,0 0.6,0.1 0.9,0.1 h 3.2 l -1.5,1.5 c -0.5,0.3 -1,0.7 -1.4,1 -0.4,0.3 -0.6,0.6 -1,1 -0.3,0.4 -0.6,0.7 -1,1 -0.9,0.7 -1.6,1.4 -2.2,2.2 -0.3,0.3 -0.7,0.6 -1,0.8 -0.4,0.3 -0.8,0.6 -1.1,0.9 0,0.3 -0.2,0.5 -0.5,0.5 z m -0.9,-8.7 c 0,1.9 0.3,3.8 0.6,5.6 0.1,0.7 0.2,1.3 0.3,2 0,0.3 0.1,0.5 0.1,0.6 l 0.2,-0.2 c 0.3,-0.4 0.7,-0.7 1.2,-1 0.3,-0.2 0.7,-0.5 1,-0.8 0.7,-0.9 1.4,-1.6 2.3,-2.3 l 0.9,-0.9 c 0.3,-0.4 0.6,-0.7 1,-1 0.3,-0.3 0.9,-0.7 1.4,-1.1 l 0.6,-0.6 h -2 c -0.4,0 -0.7,0 -1,-0.1 -0.3,0 -0.6,-0.1 -0.9,-0.1 H 7.5 c -1.5,0.1 -3,0.1 -4.3,-0.1 z m 40.1,29.800005 c -0.2,0 -0.4,-0.1 -0.8,-0.3 -0.9,-0.4 -1.9,-0.7 -2.9,-1.100005 -1.5,-0.6 -3.1,-1.1 -4.5,-1.9 l -0.2,-0.1 0.1,-0.2 c 0.5,-0.9 1.1,-1.8 1.6,-2.7 0.5,-0.9 1.1,-1.8 1.6,-2.7 0.2,-0.3 0.4,-0.6 0.5,-0.9 0.2,-0.3 0.4,-0.6 0.5,-0.9 0.3,-0.9 0.9,-1.6 1.4,-2.3 0.3,-0.6 0.7,-1.3 1.2,-2.1 0,-0.5 0.2,-0.9 0.4,-1.3 l 0.5,-0.9 v 1.1 c 0,0.4 0,0.7 0.1,1 0,0.3 0.1,0.5 0.1,0.8 v 0.9 c 0,0.5 -0.1,1 0,1.5 0,0.6 0.1,1.2 0.2,1.8 0.1,0.6 0.2,1.2 0.2,1.8 0,1.2 0.1,2.3 0.3,3.6 l 0.1,0.4 c 0.1,0.6 0.1,1.3 0.1,1.9 0,0.6 0,1.1 0.1,1.700005 0.1,0.4 0,0.7 -0.1,0.9 z m -7.6,-3.600005 c 1.3,0.7 2.8,1.2 4.2,1.7 1,0.4 2,0.700005 2.9,1.100005 0.4,0.3 0.5,0.3 0.5,0.3 0,0 0.1,-0.1 0,-0.5 -0.1,-0.500005 -0.1,-1.100005 -0.1,-1.700005 0,-0.6 0,-1.2 -0.1,-1.8 l -0.1,-0.4 c -0.2,-1.2 -0.3,-2.4 -0.3,-3.7 0,-0.6 -0.1,-1.1 -0.2,-1.7 -0.1,-0.6 -0.2,-1.2 -0.2,-1.8 -0.1,-0.6 -0.1,-1.1 0,-1.6 v -1.2 0.1 c -0.5,0.7 -0.9,1.4 -1.2,2.1 -0.6,0.8 -1.1,1.4 -1.4,2.3 -0.2,0.3 -0.4,0.6 -0.5,0.9 -0.2,0.3 -0.4,0.6 -0.5,0.9 -0.5,0.9 -1,1.8 -1.6,2.7 -0.5,0.7 -1,1.5 -1.4,2.3 z m 108.4,-8.8 c -0.3,0 -0.5,-0.4 -0.8,-0.8 -0.5,-0.8 -1,-1.5 -1.4,-2.2 -1,-1.5 -2,-3 -2.8,-4.6 l -0.1,-0.2 0.3,-0.1 c 1.4,-0.5 2.8,-1.1 4,-1.7 0.3,-0.1 0.5,-0.2 0.7,-0.3 0.2,-0.1 0.4,-0.2 0.7,-0.3 0.3,-0.2 0.6,-0.3 0.9,-0.4 0.3,-0.1 0.6,-0.2 0.8,-0.3 h 0.1 c 0.2,-0.1 0.5,-0.2 0.8,-0.3 0.3,-0.1 0.5,-0.3 0.8,-0.4 0.1,-0.1 0.3,-0.1 0.5,-0.2 0.1,0 0.3,-0.1 0.3,-0.1 l 0.7,-0.7 -0.3,1 c -0.1,0.2 -0.1,0.3 -0.1,0.4 -0.1,0.3 -0.2,0.6 -0.4,1 -0.1,0.3 -0.3,0.6 -0.5,0.8 -0.2,0.3 -0.3,0.5 -0.4,0.7 -0.1,0.3 -0.2,0.5 -0.3,0.8 -0.2,0.6 -0.4,1.2 -0.8,1.7 -0.3,0.6 -0.5,1.2 -0.7,2 -0.1,0.3 -0.2,0.6 -0.3,1 -0.1,0.3 -0.3,0.6 -0.4,0.9 -0.3,0.6 -0.5,1.1 -0.6,1.7 -0.2,0.1 -0.3,0.6 -0.7,0.6 z m -4.5,-7.7 c 0.8,1.5 1.7,3 2.6,4.3 0.5,0.7 1,1.5 1.5,2.3 0.1,0.1 0.3,0.4 0.4,0.5 0,0 0,-0.1 0.1,-0.2 0.1,-0.6 0.4,-1.2 0.7,-1.8 0.1,-0.3 0.3,-0.6 0.4,-0.9 l 0.3,-0.9 c 0.2,-0.7 0.4,-1.5 0.8,-2.1 0.4,-0.5 0.5,-1 0.8,-1.6 0.1,-0.3 0.2,-0.5 0.3,-0.8 0.1,-0.3 0.3,-0.6 0.5,-0.8 0.2,-0.3 0.3,-0.5 0.4,-0.7 v -0.1 c 0.2,-0.3 0.3,-0.5 0.4,-0.8 -0.1,0 -0.3,0.1 -0.4,0.1 -0.3,0.1 -0.5,0.2 -0.8,0.4 -0.3,0.1 -0.5,0.3 -0.8,0.4 -0.3,0.2 -0.6,0.3 -0.9,0.4 -0.3,0.1 -0.6,0.2 -0.8,0.3 H 145 c -0.3,0.1 -0.5,0.2 -0.7,0.3 -0.2,0.1 -0.5,0.2 -0.7,0.3 -1.3,0.4 -2.6,0.9 -4,1.4 z m -113.6,-59.9 14.6,-1.6 h 0.2 l 0.2,1.2 c 0.2,1.4 -0.5,2.5 -1.9,3.2 l -0.7,0.2 -3.3,0.4 3.2,28.5 c 0,0.2 -0.5,0.4 -1.4,0.4 -2.1,0 -3.2,-0.9 -3.3,-2.6 l -2.8,-25.7 -5.3,0.5 -1.6,0.2 c -0.4,-2.5 0.4,-3.9 1.8,-4.4 z m 22.3,-2.3 9.7,-1.1 c 3.5,-0.4 6.2,1.1 7.9,4.4 0.4,1.1 0.7,1.8 0.7,2.5 l 2.8,25.3 -0.2,0.2 h -0.4 c -2.1,0.2 -3.3,-0.4 -4,-1.9 -0.2,-0.4 -0.4,-0.9 -0.4,-1.8 l -0.9,-7.9 -8.6,1.1 1.2,11.6 -0.2,0.2 -1.2,0.2 c -1.4,0.2 -2.5,-0.5 -3.2,-1.9 l -0.4,-1.2 z m 4.8,3.9 1.4,12.3 8.6,-1.1 -1.1,-9.1 c -0.2,-1.6 -1.2,-2.6 -3,-2.8 h -0.9 z m 22.5,-7.1 14.6,-1.6 0.2,0.2 0.2,1.2 c 0.2,1.4 -0.5,2.5 -1.9,3.2 l -0.7,0.2 -3.3,0.4 3.2,28.5 c 0,0.2 -0.5,0.4 -1.4,0.4 -2.1,0 -3.2,-0.9 -3.3,-2.6 l -2.8,-25.7 -5.3,0.5 -1.6,0.2 c -0.4,-2.5 0.4,-3.9 1.8,-4.4 z m 34.5,-3.7 1.1,-0.2 c 1.6,-0.2 2.6,0.5 3.3,1.9 l 0.4,1.6 2.1,19.4 c 0.5,3.9 -0.2,6.7 -1.9,8.1 -1.4,1.4 -3.2,2.3 -5.5,2.5 l -1.1,0.2 c -3,0.4 -5.5,-0.7 -7.4,-3.2 -0.7,-1.2 -1.2,-2.5 -1.4,-3.7 l -2.6,-25 0.2,-0.2 1.4,-0.2 c 1.4,-0.2 2.3,0.5 3.2,1.9 l 0.2,1.1 2.5,21.5 c 0.2,1.8 1.1,2.8 2.5,3.2 l 1.6,0.2 c 1.8,-0.2 3.2,-0.7 3.7,-1.6 0.5,-0.5 0.7,-1.4 0.7,-2.3 z m 15.3,-1.7 0.9,-0.2 c 1.2,-0.2 2.1,0.2 2.8,0.7 1.1,-0.9 2.3,-1.4 3.7,-1.6 l 0.9,-0.2 c 3.2,-0.4 5.3,0 6.5,1.2 1.9,1.4 3,3.2 3.2,5.3 l 0.9,7.9 c 0.2,2.1 -0.4,4 -1.6,5.8 1.8,1.2 2.6,3.5 3,6.7 l 0.5,4.8 -0.2,0.2 -0.7,0.2 c -1.8,0.2 -2.8,-0.4 -3.7,-1.6 l -0.4,-1.1 -0.4,-3 c -0.2,-1.8 -1.1,-2.6 -2.8,-3 h -1.2 l -4.6,0.7 1.1,9.5 -0.2,0.2 -1.4,0.2 c -1.2,0.2 -2.3,-0.7 -3,-2.3 l -0.2,-0.7 z m 5.3,7.7 1.2,10.6 4.9,-0.5 h 0.4 c 0.7,0 1.4,-0.5 2.3,-1.2 0.5,-0.7 0.7,-2.1 0.5,-3.9 l -0.7,-6 c -0.2,-2.1 -1.2,-3.2 -3.2,-3.3 h -1.4 c -1.9,0.2 -3.2,0.9 -3.7,1.8 -0.5,0.6 -0.5,1.5 -0.3,2.5 z m 22.9,-11.1 9.7,-1.1 c 3.5,-0.4 6.2,1.1 7.9,4.4 0.4,1.1 0.7,1.8 0.7,2.5 l 2.8,25.3 -0.2,0.2 h -0.4 c -2.1,0.2 -3.3,-0.4 -4,-1.9 -0.2,-0.4 -0.4,-0.9 -0.4,-1.8 l -0.9,-7.7 -8.6,1.1 1.2,11.6 -0.2,0.2 -1.2,0.2 c -1.4,0.2 -2.5,-0.5 -3.2,-1.9 l -0.4,-1.2 z m 4.7,3.9 1.4,12.3 8.6,-1.1 -1.1,-9.1 c -0.2,-1.6 -1.2,-2.6 -3,-2.8 h -0.9 z m 23.9,-6.9 c 0.9,-0.2 1.6,0.2 2.5,0.7 0.9,-0.7 2.5,-1.2 4.8,-1.6 3.9,-0.4 6.7,0.7 8.3,3.2 0.7,1.1 1.1,2.3 1.2,3.5 l 2.8,25.2 -0.2,0.2 -1.1,0.2 c -1.8,0.2 -2.8,-0.5 -3.5,-2.3 l -2.5,-21.8 c -0.2,-2.1 -0.9,-3.2 -2.1,-3.5 -0.7,-0.2 -1.8,-0.4 -3.2,-0.2 -2.6,0.4 -3.7,1.8 -3.3,4.4 l 2.8,24.4 -0.2,0.2 -1.1,0.2 c -1.6,0.2 -2.8,-0.5 -3.5,-2.1 l -0.2,-0.7 -3.3,-29.6 c 0.2,0 0.8,-0.2 1.8,-0.4 z m 27,-2.8 9.7,-1.09999998 c 3.5,-0.4 6.2,1.09999998 7.9,4.39999998 0.4,1.1 0.7,1.8 0.7,2.5 l 2.8,25.3 -0.2,0.2 h -0.4 c -2.1,0.2 -3.3,-0.4 -4,-1.9 -0.2,-0.4 -0.4,-0.9 -0.4,-1.8 l -0.9,-7.7 -8.6,1.1 1.2,11.6 -0.2,0.2 -1.2,0.2 c -1.4,0.2 -2.5,-0.5 -3.2,-1.9 l -0.4,-1.2 z m 4.7,3.9 1.4,12.3 8.6,-1.1 -1.1,-9.1 c -0.2,-1.6 -1.2,-2.6 -3,-2.8 h -0.9 z m -24.647,36.066 0.085,0.594 -2.475,0.355 -0.085,-0.594 z m -6.753,10.834 -0.6,-0.2 c 0.1,-0.4 0.3,-0.8 0.4,-1.2 l 0.3,-0.6 0.6,0.2 c -0.1,0.2 -0.2,0.5 -0.3,0.7 -0.1,0.3 -0.3,0.7 -0.4,1.1 z"
     id="path28"
     inkscape:connector-curvature="0"
     style="fill:#f2f2f2" />
  <path
     d="m 136.5,49.563275 c 0.4,0 0.5,0.2 0.5,0.5 0.4,-0.4 0.7,-0.5 1.2,-0.7 h 0.4 c 0.7,0 1.2,0.2 1.8,0.7 0.2,-0.5 0.7,-0.9 1.6,-1.1 h 0.2 c 0.9,-0.2 1.4,0.2 1.9,0.9 0.2,0.4 0.4,0.7 0.4,1.2 l 0.5,3.9 c -0.4,0 -0.5,-0.2 -0.5,-0.5 l -0.4,-3.2 c -0.2,-1.2 -0.7,-1.8 -1.6,-1.6 h -0.4 c -0.5,0 -1.1,0.4 -1.1,0.9 0,0.2 -0.2,0.5 0,1.1 l 0.5,3.9 c -0.2,0 -0.5,-0.2 -0.5,-0.4 v -0.2 l -0.4,-3.5 c 0,-0.7 -0.4,-1.2 -0.9,-1.4 -0.2,0 -0.5,-0.2 -0.7,0 h -0.4 c -0.5,0 -0.9,0.4 -1.1,0.9 v 0.7 l 0.5,4 c -0.2,0 -0.5,-0.2 -0.5,-0.5 z m 11.6,-1.2 h 0.2 c 0.9,-0.2 1.6,0.2 1.9,1.1 0.2,0.2 0.2,0.5 0.2,0.9 l 0.2,1.9 c 0.2,0.9 -0.2,1.6 -1.1,2.1 l -0.4,0.2 -0.9,0.2 c -0.5,0 -1.1,-0.2 -1.4,-0.7 -0.4,-0.4 -0.4,-0.9 -0.5,-1.4 v -1.6 c -0.2,-1.1 0,-1.8 0.7,-2.3 0.4,-0.3 0.7,-0.4 1.1,-0.4 z m -1.1,2.3 0.2,1.9 c 0.2,1.1 0.7,1.6 1.6,1.4 h 0.4 c 0.7,0 1.1,-0.4 1.2,-0.9 v -0.7 l -0.5,-2.3 c -0.2,-0.9 -0.7,-1.2 -1.6,-1.2 -0.7,0.2 -1.2,0.4 -1.2,1.1 -0.2,0.1 -0.2,0.3 -0.1,0.7 z m 5,-5.8 c 0.4,0 0.5,0.2 0.5,0.5 l 0.2,1.2 0.2,1.1 1.8,-0.2 c 0.7,0 1.4,0.4 1.8,1.1 0.2,0.4 0.2,0.5 0.2,1.1 l 0.2,1.6 c 0.2,0.7 0,1.2 0,1.4 0,0.2 -0.2,0.4 -0.5,0.7 -0.4,0.4 -0.5,0.4 -0.9,0.5 H 155 c -0.7,0 -1.1,0 -1.4,-0.4 0,0.4 -0.2,0.5 -0.5,0.7 z m 0.8,3.5 0.4,3 c 0.2,1.1 0.4,1.6 0.9,1.8 0.2,0.2 0.5,0.2 1.1,0 h 0.2 c 0.5,0 0.9,-0.4 1.1,-1.1 v -0.9 l -0.2,-1.4 v -0.5 c 0,-0.7 -0.4,-1.1 -1.1,-1.2 h -0.7 z m 5.3,-4.2 c 0.4,0 0.5,0.2 0.7,0.7 v 0.4 c -0.2,0 -0.4,0 -0.5,-0.4 v -0.2 z m 0.4,2.9 c 0.4,0 0.5,0.2 0.7,0.5 l 0.7,5.6 c -0.2,0 -0.4,-0.2 -0.5,-0.4 v -0.2 z m 2.1,-3.3 c 0.4,0 0.5,0.2 0.7,0.5 l 0.7,6.3 c 0.2,0.7 0.4,1.2 0.9,1.4 h 0.9 c 0.2,0.2 0.4,0.4 0.4,0.5 h -0.7 c -0.9,0.2 -1.4,-0.4 -1.9,-1.2 -0.2,-0.2 -0.2,-0.5 -0.2,-0.9 z m 4.4,-0.5 c 0.4,0 0.7,0.2 0.7,0.7 v 0.4 c -0.2,0 -0.4,0 -0.5,-0.4 v -0.2 z m 0.3,3 c 0.4,0 0.5,0.2 0.7,0.5 l 0.7,5.6 c -0.2,0 -0.4,-0.2 -0.5,-0.4 v -0.2 z m 2.7,-0.4 3.5,-0.4 c 0.5,0 0.7,0.2 0.7,0.5 0,0.4 -0.9,2.1 -2.8,5.1 l -0.2,0.2 3,-0.4 c 0.4,0 0.5,0.2 0.5,0.5 l -3.5,0.4 c -0.4,0 -0.5,-0.2 -0.5,-0.4 0,0 0.2,-0.4 0.5,-1.1 l 2.5,-4.4 -3,0.4 c -0.5,0.1 -0.7,0 -0.7,-0.4 z m 7.7,-0.9 2.5,-0.4 0.7,6.2 c -0.4,0 -0.5,-0.2 -0.5,-0.5 -0.4,0.4 -0.7,0.7 -1.4,0.7 l -2.1,0.2 -0.5,-4.2 c -0.2,-1.1 0.4,-1.8 1.2,-2.1 z m -0.9,2.1 0.4,3.7 1.6,-0.2 c 0.7,0 1.1,-0.4 1.2,-1.1 v -0.7 l -0.4,-3.3 -1.8,0.2 c -0.5,0 -1.1,0.4 -1.1,0.9 v 0.5 z m 7.4,-2.9 1.4,-0.2 c 0.5,0 0.7,0.2 0.7,0.4 v 0.2 l -2.3,0.2 c -0.7,0 -1.1,0.4 -1.2,1.1 v 0.7 l 0.2,1.9 c 0.2,1.1 0.7,1.6 1.6,1.4 l 1.6,-0.2 c 0.5,0 0.7,0.2 0.7,0.5 l -2.3,0.4 c -0.7,0.2 -1.4,-0.2 -1.8,-1.1 -0.2,-0.2 -0.2,-0.5 -0.2,-0.9 l -0.2,-2.1 c -0.2,-0.9 0.2,-1.4 0.9,-1.9 0.2,-0.3 0.6,-0.3 0.9,-0.4 z m 5.8,-0.8 2.5,-0.4 0.7,6.2 c -0.4,0 -0.5,-0.2 -0.5,-0.5 -0.4,0.4 -0.7,0.7 -1.4,0.7 l -2.1,0.2 -0.5,-4.2 c -0.2,-1.1 0.4,-1.8 1.2,-2.1 z m -0.8,2.2 0.4,3.7 1.6,-0.2 c 0.7,0 1.1,-0.4 1.2,-1.1 v -0.7 l -0.4,-3.3 -1.8,0.2 c -0.5,0 -1.1,0.4 -1.1,0.9 v 0.5 z m 7.2,-2.9 h 0.2 c 0.9,-0.2 1.6,0.2 1.9,1.1 0.2,0.2 0.2,0.5 0.2,0.9 l 0.2,1.9 c 0.2,0.9 -0.2,1.6 -1.1,2.1 l -0.4,0.2 -0.9,0.2 c -0.5,0 -1.1,-0.2 -1.4,-0.7 -0.2,-0.4 -0.4,-0.9 -0.5,-1.4 l -0.2,-1.6 c -0.2,-1.1 0,-1.8 0.7,-2.3 0.6,-0.2 0.9,-0.4 1.3,-0.4 z m -1.1,2.3 0.2,1.9 c 0.2,1.1 0.7,1.6 1.6,1.4 h 0.4 c 0.7,0 1.1,-0.4 1.2,-0.9 v -0.7 l -0.2,-2.1 c -0.2,-0.9 -0.7,-1.2 -1.6,-1.2 -0.7,0.2 -1.2,0.4 -1.2,1.1 -0.6,0.2 -0.6,0.4 -0.4,0.5 z m 9.7,-3.3 2.1,-0.2 c 0,0.4 -0.2,0.5 -0.5,0.7 l -1.8,0.2 c -0.5,0 -1.1,0.4 -1.2,1.1 v 0.2 c 0,0.4 0.4,0.7 0.9,0.9 h 1.2 c 0.5,0 0.9,0.2 1.2,0.5 0.3,0.3 0.5,0.7 0.5,0.9 0,0.5 -0.2,1.1 -0.9,1.6 -0.2,0.2 -0.5,0.2 -0.5,0.2 l -2.5,0.4 c 0,-0.4 0.2,-0.5 0.5,-0.5 l 1.4,-0.2 c 0.7,0 1.2,-0.4 1.4,-1.1 v -0.2 c 0,-0.4 -0.4,-0.7 -0.9,-0.9 h -1.2 c -0.5,-0.2 -1.1,-0.4 -1.2,-0.7 -0.2,-0.2 -0.4,-0.5 -0.4,-0.7 v -0.2 c 0,-0.5 0.2,-1.1 0.7,-1.4 0.5,-0.4 0.7,-0.4 1.2,-0.6 z m 6,-0.7 h 0.2 c 0.9,-0.2 1.6,0.2 1.9,1.1 0.2,0.2 0.2,0.5 0.2,0.9 l 0.2,1.9 c 0.2,0.9 -0.2,1.6 -1.1,2.1 l -0.4,0.2 -0.9,0.2 c -0.5,0 -1.1,-0.2 -1.4,-0.7 -0.2,-0.4 -0.4,-0.9 -0.5,-1.4 l -0.2,-1.6 c -0.2,-1.1 0,-1.8 0.7,-2.3 0.6,-0.2 0.9,-0.4 1.3,-0.4 z m -1.1,2.3 0.2,1.9 c 0.2,1.1 0.7,1.6 1.6,1.4 h 0.4 c 0.7,0 1.1,-0.4 1.2,-0.9 v -0.7 l -0.2,-2.1 c -0.2,-0.9 -0.7,-1.2 -1.6,-1.2 -0.7,0.2 -1.2,0.4 -1.2,1.1 -0.4,0.1 -0.4,0.3 -0.4,0.5 z m 7.4,-3 1.4,-0.2 c 0.5,0 0.7,0.2 0.7,0.4 v 0.2 l -2.3,0.2 c -0.7,0 -1.1,0.4 -1.2,1.1 v 0.7 l 0.2,1.9 c 0.2,1.1 0.7,1.6 1.6,1.4 l 1.6,-0.2 c 0.5,0 0.7,0.2 0.7,0.5 l -2.3,0.4 c -0.7,0.2 -1.4,-0.2 -1.8,-1.1 -0.2,-0.2 -0.2,-0.5 -0.2,-0.9 l -0.2,-2.1 c -0.2,-0.9 0.2,-1.4 0.9,-1.9 0.2,-0.2 0.6,-0.4 0.9,-0.4 z m 3.7,-3.4 c 0.4,0 0.5,0.2 0.7,0.7 v 0.4 c -0.2,0 -0.4,0 -0.5,-0.4 v -0.2 z m 0.4,2.9 c 0.4,0 0.5,0.2 0.7,0.5 l 0.7,5.6 c -0.2,0 -0.4,-0.2 -0.5,-0.4 v -0.1 z m 4.2,-0.6 2.5,-0.4 0.7,6.2 c -0.4,0 -0.5,-0.2 -0.5,-0.5 -0.4,0.4 -0.7,0.7 -1.4,0.7 l -2.2,0.2 -0.5,-4.2 c -0.2,-1.1 0.4,-1.8 1.2,-2.1 z m -0.9,2.1 0.4,3.7 1.6,-0.2 c 0.7,0 1.1,-0.4 1.2,-1.1 v -0.7 l -0.4,-3.3 -1.8,0.2 c -0.5,0 -1.1,0.4 -1.1,0.9 z m 4.9,-5.4 c 0.4,0 0.5,0.2 0.7,0.5 l 0.7,6.3 c 0.2,0.7 0.4,1.2 0.9,1.4 h 0.9 c 0.2,0.2 0.4,0.4 0.4,0.5 h -0.7 c -0.9,0.2 -1.4,-0.4 -1.9,-1.2 -0.2,-0.2 -0.2,-0.5 -0.2,-0.9 z"
     id="path30"
     inkscape:connector-curvature="0"
     style="fill:#f2f2f2" />
</svg>
