<svg xmlns="http://www.w3.org/2000/svg" xmlns:xlink="http://www.w3.org/1999/xlink" width="362" height="102"><defs><path id="a" d="M-205.667-3782.31h1380.138V220.331H-205.667z"/></defs><clipPath id="b"><use xlink:href="#a" overflow="visible"/></clipPath><g opacity=".75" clip-path="url(#b)"><defs><path id="c" d="M-434.565-2860.389h1947.198V157.809H-434.565z"/></defs><clipPath id="d"><use xlink:href="#c" overflow="visible"/></clipPath><g opacity=".35" clip-path="url(#d)"><defs><path id="e" d="M-434.565-762.386h1785.198v920.195H-434.565z"/></defs><clipPath id="f"><use xlink:href="#e" overflow="visible"/></clipPath><path clip-path="url(#f)" fill="none" stroke="#32436B" stroke-width="3" stroke-miterlimit="10" d="M296.067-379.643c8.623 16.157 13.219 36.434 21.547 51.968 10.104 18.864 21.575 31.672 31.416 52.847 14.034 30.146 26.129 65.901 41.68 92.284 18.09 30.706 32.32 69.992 47.959 108.242 13.752 33.609 33.479 53.765 45.148 89.478 11.523 35.264 14.449 1.287 16.63-33.609 9.064-144.244 24.101-287.877 30.52-431.946-33.376 15.875-66.744 20.383-100.408 31.048-11.116 3.53-22.15 8.385-33.244 10.68-14.556 2.994-28.944 12.388-43.597 13.969-12.747 1.378-25.478 5.969-38.185 8.436-6.563 1.291-12.678 7.645-18.902 8.409"/></g></g><defs><path id="g" d="M-205.667-3782.31h1380.138V220.331H-205.667z"/></defs><clipPath id="h"><use xlink:href="#g" overflow="visible"/></clipPath><path clip-path="url(#h)" fill="none" stroke="#F2F2F2" stroke-width=".729" stroke-miterlimit="10" d="M248.232 78.318c.468-.031.794-.422 1.301-1.049 1.626-2.012 2.334-3.921 3.583-6.611 0 0 1.002-2.301.273-4.41-1.09-3.149-4.012-10.393-5.122-13.788-.347-1.059-.506-1.422-.786-1.462-.281.041-.363.404-.71 1.462-1.111 3.396-4.031 10.639-5.121 13.788-.73 2.109.272 4.41.272 4.41 1.45 2.69 2.157 4.737 3.582 6.611.498.654.849 1.025 1.325 1.049h1.403z"/><path clip-path="url(#h)" fill="none" stroke="#F2F2F2" stroke-width=".783" stroke-miterlimit="10" d="M264.019 34.282c-4.094-12.912-12.755-19.998-14.015-20.943-1.044-.794-1.743-1.251-2.262-1.335-.01-.002-.015-.006-.024-.009a1.424 1.424 0 0 0-.182-.026c-.005-.001-.012.003-.017.003-.005 0-.012-.004-.017-.003a1.627 1.627 0 0 0-.182.026c-.009.003-.014.007-.023.009-.519.084-1.219.541-2.263 1.335-1.26.945-9.921 8.031-14.015 20.943-4.094 12.912 1.102 29.604 1.89 31.493.787 1.891 2.677 1.732 2.677 1.732h3.733s0-.631.63-3.151c.63-2.519 5.094-13.698 5.094-13.698s.56-1.11 1.462-1.628c.757-.184 1.014-.197 1.014-.197s.131-.02 1.014.197c.901.518 1.463 1.628 1.463 1.628s4.422 11.18 5.053 13.698c.63 2.521.63 3.151.63 3.151h3.773s1.89.158 2.677-1.732c.788-1.888 5.983-18.581 1.89-31.493zm-36.708 17.479s1.667 12.645 4.89 16.691c0 0-6.833 1.534-4.471 8.306 0 0-2.204 1.574-3.307-.473-1.101-2.047.22.199-2.93-5.627 0 0-1.158-2.301-.315-4.41 1.259-3.149 2.826-10.393 4.11-13.788 1.066-2.823 2.023-.699 2.023-.699zm40.086 0s-1.667 12.645-4.89 16.691c0 0 6.833 1.534 4.471 8.306 0 0 2.204 1.574 3.307-.473 1.102-2.047-.22.199 2.93-5.627 0 0 1.158-2.301.315-4.41-1.259-3.149-2.826-10.393-4.11-13.788-1.066-2.823-2.023-.699-2.023-.699z"/><circle clip-path="url(#h)" fill="none" stroke="#F2F2F2" stroke-width=".783" stroke-miterlimit="10" cx="247.657" cy="23.344" r="2.691"/><path clip-path="url(#h)" fill="none" stroke="#F2F2F2" stroke-width=".783" stroke-miterlimit="10" d="M238.941 37.099c-1.109 2.715-1.852 5.511-2.114 8.896m8.74-20.588c-1.366 1.586-3.745 4.135-5.276 7.822"/><path clip-path="url(#h)" fill="none" stroke="#F2F2F2" stroke-width=".783" stroke-miterlimit="10" d="M241.741 35.201a2.075 2.075 0 1 1-4.15 0 2.075 2.075 0 0 1 4.15 0z"/><circle clip-path="url(#h)" fill="none" stroke="#F2F2F2" stroke-width=".783" stroke-miterlimit="10" cx="236.809" cy="47.627" r="1.705"/><path clip-path="url(#h)" fill="#F2F2F2" d="M281.293 54.032l.835-.068c.395-.024.603-.186.603-.648V42.532l-1.321-.067v-1.972h4.173l6.561 10.642h.047v-8.603l-1.53-.067v-1.972h5.657v1.877l-.835.069c-.348.025-.555.232-.555.72V55.91h-2.715l-6.697-10.802h-.05v8.761l1.508.07v1.971h-5.681v-1.878zm28.657 1.878h-3.755v-1.506c-.813 1.159-2.226 1.809-3.756 1.809-2.318 0-3.593-1.277-3.593-4.01v-5.358c0-.486-.185-.625-.581-.648l-.741-.047v-1.902h4.08V51.6c0 1.414.232 2.481 1.717 2.481 1.62 0 2.48-1.091 2.48-2.296v-4.894c0-.511-.139-.671-.58-.694l-.741-.047v-1.902h4.08v9.091c0 .509.139.626.58.672l.81.07v1.829zm-5.633-18.221l1.089.508c.952.439.764 1.184.096 1.832l-2.969 2.875-.906-.767 2.69-4.448zm15.511 15.417l.996 1.784c-.904.741-2.319 1.344-4.033 1.344-3.408 0-5.426-2.154-5.426-6.005 0-4.705 2.901-6.328 5.519-6.328 1.39 0 2.503.346 3.616.951v3.013l-2.133.162v-1.112c0-.439-.07-.648-.486-.789a2.778 2.778 0 0 0-.905-.139c-1.853 0-2.806 1.391-2.806 3.966 0 2.528.93 4.148 2.992 4.148.903.001 1.715-.301 2.666-.995m6.607.879l1.321.071v1.854h-5.517v-1.76l.764-.07c.418-.048.674-.185.674-.743V41.906c0-.417-.233-.532-.58-.556l-.811-.046V39.38h4.149v14.605zm12.357-6.86c0 3.568-3.874 4.172-6.607 4.195.094 1.505.88 2.735 2.852 2.735 1.367 0 2.364-.624 2.918-1.021l.882 1.881c-.37.323-1.9 1.298-4.08 1.298-3.941 0-5.471-2.412-5.471-5.867 0-3.43 1.925-6.444 5.728-6.444 2.273-.001 3.778 1.159 3.778 3.223m-3.941-1.254c-1.855 0-2.69 1.785-2.758 3.503 1.716-.024 4.149-.418 4.149-2.202 0-.86-.554-1.301-1.391-1.301M345.7 43.9c1.715 0 5.17.533 5.17 5.867 0 4.45-2.484 6.49-5.541 6.49-3.104 0-5.146-1.994-5.146-6.19 0-4.82 3.13-6.167 5.517-6.167m2.341 6.239c0-2.598-.626-4.199-2.479-4.199-1.834 0-2.575 1.578-2.575 3.804 0 2.155.301 4.475 2.527 4.475 1.805-.001 2.527-1.67 2.527-4.08m-66.504 23.215l.766-.069c.394-.048.67-.188.67-.65v-10.78l-1.319-.07v-1.972h6.353c4.427 0 7.233 2.343 7.233 7.165 0 6.073-3.386 8.254-7.118 8.254h-6.585v-1.878zm4.265-.348h2.366c2.599 0 4.218-1.899 4.218-5.609 0-4.174-2.015-5.334-4.518-5.334h-2.066v10.943zm15.327.3l1.32.07v1.856h-5.516v-1.764l.764-.067c.417-.047.671-.186.671-.744v-6.445c0-.509-.137-.672-.578-.672l-.811-.046v-1.925h4.15v9.737zm-1.623-14.697c1.02 0 1.762.764 1.762 1.737 0 .976-.742 1.694-1.785 1.694-1.067 0-1.763-.719-1.763-1.694 0-.973.696-1.737 1.786-1.737m4.89 20.819v-3.223l2.203-.186v1.113c0 .44.115.671.532.834.442.163.953.232 1.648.232 2.13 0 2.691-1.461 2.691-3.409v-1.274c-.789.929-1.95 1.301-3.086 1.301-3.386 0-4.543-2.785-4.543-5.429 0-4.196 2.526-6.165 6.028-6.165 1.112 0 2.92.277 4.289.856v8.6c0 .814.021 1.695-.047 2.53-.279 3.407-1.879 4.984-5.356 4.984-1.461.001-3.384-.278-4.359-.764m7.074-13.91c-.536-.184-1.207-.279-1.859-.279-1.921 0-2.917 1.531-2.917 3.872 0 1.578.253 3.666 2.409 3.666 1.299 0 2.367-.859 2.367-2.274v-4.985zm9.134 7.788l1.321.07v1.856h-5.516v-1.764l.763-.067c.417-.047.673-.186.673-.744v-6.445c0-.509-.139-.672-.579-.672l-.813-.046v-1.925h4.151v9.737zm-1.623-14.697c1.021 0 1.762.764 1.762 1.737 0 .976-.741 1.694-1.786 1.694-1.067 0-1.76-.719-1.76-1.694 0-.973.694-1.737 1.784-1.737m8.368 2.503v2.457h3.086l-.232 1.948h-2.854v6.096c0 1.415.557 1.832 1.508 1.832.627 0 1.206-.254 1.578-.485l.694 1.784c-.694.488-1.853.812-2.941.812-3.618 0-3.597-2.226-3.597-3.849v-6.19h-1.646l.234-1.691c1.622-.141 2.179-1.393 2.666-2.714h1.504zm15.068 11.545c0 .512.139.649.579.674l.743.045v1.856h-3.685v-1.345l-.069-.023a3.852 3.852 0 0 1-3.174 1.669c-3.269 0-4.637-2.317-4.637-5.635 0-4.08 1.947-6.675 6.118-6.675.767 0 2.458.186 4.125.81v8.624zm-2.688-7.117c-.347-.163-1.066-.302-1.783-.302-2.202 0-2.943 2.063-2.943 4.57 0 1.923.464 3.753 2.41 3.753 1.436 0 2.316-1.02 2.316-2.015V65.54zm9.573 7.767l1.322.069v1.856h-5.518V73.47l.764-.068c.417-.047.673-.186.673-.744V61.229c0-.418-.23-.532-.579-.557l-.811-.045v-1.926h4.149v14.606z"/><path clip-path="url(#h)" fill="none" stroke="#F2F2F2" stroke-width=".783" stroke-miterlimit="10" d="M238.609 69.63h-2.618s-1.578-.12-1.227 1.229c0 0 .568 1.968 1.001 2.738.276.492.866 1.95 3.105 1.95h2.96s-.75-1.564-1.423-3.085c-.635-1.436-1.177-2.832-1.798-2.832zm17.845 0h2.618s1.578-.12 1.227 1.229c0 0-.568 1.968-1.001 2.738-.276.492-.866 1.95-3.105 1.95h-2.96s.75-1.564 1.423-3.085c.635-1.436 1.177-2.832 1.798-2.832z"/><path clip-path="url(#h)" fill="none" stroke="#F2F2F2" stroke-width=".5" stroke-miterlimit="10" d="M141.978 69.87c-.445-.235-.86-.292-1.287-.521-.518-.274-.976-.645-1.522-.897-.779-.356-1.604-.611-2.36-1.055-.881-.515-1.806-.827-2.747-1.201-.829-.332-1.582-.972-2.395-1.209-.805-.233-.346-.55.141-.846 2.016-1.216 3.887-2.663 5.961-3.776.508 1.386 1.191 2.702 1.786 4.067.196.451.37.907.586 1.349.28.581.461 1.195.768 1.771.266.5.481 1.018.73 1.526.127.261.167.534.297.781m-6.207-15.473c-.525.793-.711 1.461-1.218 2.225-.615.927-1.383 1.8-1.958 2.761-.819 1.37-1.454 2.762-2.42 4.132-1.127 1.595-1.892 3.17-2.772 4.797-.774 1.43-2.106 2.887-2.705 4.252-.593 1.349-1.083.781-1.524.156-1.822-2.583-4.093-4.841-5.714-7.557 2.648-1.407 5.205-3.054 7.833-4.585.867-.505 1.74-.979 2.596-1.509 1.125-.696 2.286-1.249 3.407-1.982.973-.635 1.97-1.202 2.951-1.812.507-.316 1.02-.5 1.494-.81m15.009 5.514c.125.364.287.604.407.957.146.424.242.876.408 1.301.235.607.519 1.173.723 1.817.236.751.546 1.401.846 2.099.264.613.414 1.378.697 1.926.279.542-.002.507-.289.442-1.186-.269-2.372-.324-3.556-.682.156-1.095.22-2.232.333-3.357.038-.371.087-.734.114-1.109.036-.493.124-.955.148-1.457.022-.435.069-.857.099-1.288.016-.224.073-.409.084-.622"/><path clip-path="url(#h)" fill="none" stroke="#F2F2F2" stroke-width=".5" stroke-miterlimit="10" d="M159.438 61.972c-.824-.079-1.706.142-2.5.062-.963-.097-1.732-.402-2.777-.433-1.488-.044-3.14.139-4.523-.069-1.61-.243-3.448-.09-5.284-.034-1.612.048-2.862-.519-4.504-.313-1.62.201-.405-.722.863-1.626 5.241-3.74 10.312-7.779 15.612-11.38.222 2.094.874 3.928 1.301 5.915.139.657.228 1.34.414 1.968.247.822.245 1.782.547 2.579.262.692.402 1.458.622 2.172.112.371.023.832.147 1.172"/><path clip-path="url(#h)" fill="none" stroke="#F2F2F2" stroke-width=".5" stroke-miterlimit="10" d="M160.219 63.094c-.812-.09-1.675.118-2.457.029-.947-.106-1.705-.419-2.731-.462-1.463-.063-3.085.1-4.445-.125-1.585-.261-3.39-.13-5.193-.099-1.583.029-2.817-.549-4.426-.365-1.591.181-.406-.722.832-1.604 5.114-3.654 10.06-7.604 15.233-11.117.238 2.081.895 3.911 1.332 5.893.144.654.237 1.334.427 1.96.249.821.256 1.774.56 2.569.263.691.409 1.453.632 2.165.113.37.03.827.154 1.166"/><path clip-path="url(#h)" fill="none" stroke="#F2F2F2" stroke-width=".5" stroke-miterlimit="10" d="M149.657 60.351c.126.365.287.605.408.956.146.428.242.877.408 1.304.235.606.518 1.172.722 1.815.237.753.547 1.403.847 2.101.264.611.413 1.378.697 1.926.279.542-.001.506-.289.44-1.186-.267-2.373-.323-3.556-.681.156-1.095.219-2.233.333-3.357.037-.37.085-.734.113-1.109.036-.493.123-.954.149-1.456.021-.437.068-.859.098-1.289.017-.223.073-.409.084-.622m-63.276-.045c.805-.169 1.437-.57 2.214-.733.941-.198 1.861-.189 2.825-.456 1.375-.38 2.735-.966 4.136-1.199 1.632-.271 3.18-.886 4.795-1.433 1.421-.48 2.967-.42 4.297-1.019 1.315-.592.898.405.419 1.404-1.975 4.131-3.576 8.427-5.708 12.472-1.743-1.439-3.682-2.575-5.533-3.884-.609-.432-1.193-.897-1.824-1.296-.829-.523-1.535-1.212-2.395-1.7-.748-.425-1.435-.934-2.162-1.387-.374-.235-.634-.591-.997-.8m-51 10.455c.009.385.115.663.124 1.035.011.45-.053.909-.018 1.365.049.649.175 1.273.168 1.949-.008.788.117 1.503.212 2.26.083.663-.041 1.438.092 2.047.13.601-.208.481-.544.331-1.385-.619-2.856-1.04-4.2-1.744.642-.993 1.186-2.058 1.788-3.092.197-.341.407-.673.594-1.021.246-.457.546-.87.781-1.34.205-.408.437-.795.651-1.196.111-.207.258-.367.359-.565m36.543.132c.251-.648.256-1.248.497-1.872.294-.758.725-1.432.978-2.23.363-1.139.572-2.333 1.053-3.441.561-1.293.833-2.635 1.189-4.005.313-1.205 1.07-2.322 1.256-3.501.183-1.163.702-.526 1.194.157 2.033 2.819 4.356 5.42 6.257 8.328-1.829.806-3.533 1.858-5.32 2.789-.589.306-1.19.58-1.765.913-.755.438-1.571.729-2.316 1.201-.647.409-1.328.748-1.985 1.133-.339.198-.713.271-1.03.47m20.658-5.346c-.127.268-.147.524-.269.784-.149.312-.351.584-.486.916-.189.475-.315.979-.554 1.435-.277.532-.435 1.098-.629 1.671-.17.506-.526.953-.642 1.453-.115.492-.314.195-.502-.121-.777-1.305-1.682-2.528-2.399-3.865.802-.265 1.558-.643 2.346-.964.259-.104.524-.198.777-.314.335-.154.691-.244 1.022-.413.287-.148.587-.264.879-.4.15-.07.31-.086.451-.156m-33.071 10.14c-.044-.793-.346-1.571-.388-2.335-.051-.928.101-1.719-.018-2.708-.164-1.408-.539-2.922-.554-4.268-.016-1.568-.392-3.263-.687-4.975-.257-1.505.043-2.807-.348-4.303-.388-1.479.541-.543 1.465.448 3.814 4.089 7.851 7.951 11.556 12.13-1.707.677-3.14 1.699-4.732 2.544-.526.278-1.08.515-1.575.831-.652.414-1.449.628-2.068 1.09-.539.401-1.153.703-1.719 1.07-.291.188-.686.208-.951.4"/><path clip-path="url(#h)" fill="none" stroke="#F2F2F2" stroke-width=".5" stroke-miterlimit="10" d="M58.502 64.039c-.441.212-.767.546-1.192.749-.514.245-1.032.359-1.555.652-.747.417-1.467.964-2.239 1.291-.898.382-1.723.972-2.591 1.525-.764.485-1.639.647-2.344 1.197-.695.543-.532-.138-.337-.826.809-2.849 1.396-5.752 2.3-8.568 1.085.677 2.259 1.136 3.394 1.716.375.192.738.408 1.121.576.504.221.952.56 1.471.755.452.169.876.398 1.317.588.228.099.4.288.619.372m42.88-3.702c.754.325 1.392.368 2.118.683.881.383 1.709.913 2.623 1.253 1.302.483 2.627.797 3.929 1.411 1.516.719 3.015 1.113 4.562 1.604 1.362.431 2.744 1.362 4.044 1.646 1.284.282.74.833.14 1.352-2.478 2.141-4.649 4.626-7.255 6.61-1.325-2.135-2.881-4.14-4.326-6.231-.476-.69-.924-1.393-1.424-2.067-.658-.888-1.179-1.836-1.87-2.713-.601-.761-1.135-1.558-1.714-2.331-.298-.398-.471-.829-.762-1.201m26.686-3.427c-.338-.017-.613.073-.938.058-.396-.022-.775-.115-1.182-.111-.581.006-1.163.092-1.749.041-.683-.062-1.343.017-2.029.062-.603.039-1.238-.139-1.808-.045-.564.093-.356-.241-.122-.57.963-1.361 1.779-2.821 2.804-4.134.667.717 1.425 1.338 2.141 2.016.236.223.46.457.706.671.323.279.589.608.926.878.293.235.558.495.841.739.146.126.24.285.382.4m-54.038 1.298c-.292-.048-.546.004-.828-.041-.342-.056-.658-.176-1.015-.212-.509-.05-1.029-.031-1.533-.132-.588-.12-1.175-.114-1.78-.142-.532-.023-1.061-.24-1.572-.214-.506.028-.277-.248-.025-.515 1.038-1.109 1.962-2.319 3.046-3.378.478.696 1.051 1.317 1.578 1.985.173.219.336.447.518.659.243.278.427.596.682.866.222.235.416.49.628.733.11.125.168.273.275.39"/><path clip-path="url(#h)" fill="none" stroke="#F2F2F2" stroke-width=".5" stroke-miterlimit="10" d="M59.278 81.075c-.06-.956-.432-1.896-.49-2.818-.07-1.118.105-2.069-.046-3.262-.214-1.698-.68-3.526-.71-5.148-.035-1.889-.503-3.935-.875-6.001-.325-1.816.024-3.382-.462-5.188-.479-1.783.648-.648 1.769.555 4.629 4.964 9.527 9.659 14.026 14.729-2.047.798-3.762 2.017-5.671 3.02-.629.331-1.294.609-1.887.985-.78.493-1.737.742-2.478 1.293-.644.479-1.382.836-2.059 1.273-.348.225-.824.244-1.14.474"/><path clip-path="url(#h)" fill="none" stroke="#F2F2F2" stroke-width=".5" stroke-miterlimit="10" d="M57.572 65.661c-.456.265-.802.668-1.241.922-.533.309-1.063.465-1.605.83-.775.518-1.531 1.184-2.327 1.599-.928.484-1.789 1.205-2.694 1.887-.797.598-1.689.825-2.428 1.495-.729.662-.534-.133-.305-.942.949-3.341 1.676-6.737 2.72-10.044 1.067.734 2.236 1.215 3.36 1.836.371.206.729.438 1.11.616.5.233.938.607 1.455.81.45.175.869.423 1.307.624.227.103.392.313.61.401m44.836-3.5c.677.304 1.248.35 1.901.642.792.354 1.539.843 2.36 1.159 1.171.45 2.358.749 3.529 1.318 1.364.664 2.709 1.039 4.097 1.499 1.222.404 2.47 1.26 3.635 1.531 1.151.271.673.757.143 1.214-2.185 1.888-4.091 4.09-6.393 5.835-1.213-1.931-2.63-3.752-3.949-5.648-.434-.625-.842-1.261-1.3-1.873-.599-.806-1.077-1.663-1.706-2.459-.547-.692-1.036-1.413-1.562-2.114-.271-.363-.432-.751-.697-1.089m32.521-9.322c-.58.841-.786 1.625-1.347 2.435-.678.982-1.528 1.851-2.163 2.888-.907 1.478-1.607 3.037-2.675 4.471-1.243 1.671-2.089 3.422-3.061 5.204-.857 1.568-2.328 3.004-2.989 4.541-.655 1.518-1.197.663-1.687-.252-2.019-3.776-4.535-7.276-6.333-11.163 2.93-.986 5.758-2.3 8.665-3.449.959-.379 1.924-.716 2.872-1.13 1.243-.543 2.528-.894 3.767-1.484 1.078-.512 2.181-.928 3.265-1.406.56-.247 1.128-.329 1.652-.576"/><path clip-path="url(#h)" fill="none" stroke="#F2F2F2" stroke-width=".5" stroke-miterlimit="10" d="M141.978 68.114c-.568-.292-1.164-.364-1.709-.649-.661-.339-1.195-.792-1.908-1.106-1.018-.444-2.143-.764-3.094-1.31-1.106-.636-2.358-1.028-3.609-1.494-1.103-.413-1.969-1.197-3.086-1.495-1.104-.296-.297-.67.545-1.02 3.48-1.438 6.836-3.155 10.36-4.468.208 1.681.703 3.281 1.048 4.938.114.547.192 1.101.338 1.637.188.706.214 1.449.442 2.15.198.608.312 1.238.484 1.854.084.316.037.648.131.948m-15.347-10.566c-.329-.028-.594.046-.912.02-.386-.035-.758-.137-1.156-.147-.565-.017-1.128.044-1.701-.026-.668-.082-1.308-.031-1.975-.013-.586.015-1.213-.177-1.764-.108-.545.067-.355-.243-.14-.547.89-1.256 1.631-2.611 2.582-3.819.676.704 1.437 1.321 2.16 1.99.238.219.465.45.711.662.325.276.597.599.935.868.294.232.561.488.846.73.147.123.244.279.386.394m-52.514 2.452c-.292-.047-.546.005-.828-.041-.342-.056-.658-.175-1.015-.211-.509-.05-1.029-.03-1.533-.133-.588-.119-1.175-.114-1.78-.141-.532-.024-1.061-.241-1.572-.213-.506.025-.277-.249-.025-.518 1.038-1.106 1.962-2.317 3.046-3.377.478.697 1.051 1.318 1.578 1.986.173.219.336.447.518.659.243.276.427.595.682.865.222.235.416.491.628.733.11.125.168.275.275.39M45.64 75.354c-1.005-.331-2.205-.392-3.173-.711-1.175-.39-2.018-.916-3.322-1.269-1.856-.499-4.013-.834-5.67-1.458-1.929-.727-4.307-1.147-6.641-1.659-2.051-.451-3.394-1.374-5.545-1.686-2.122-.307-.216-.81 1.75-1.281 8.127-1.944 16.16-4.225 24.304-6.019-.574 2.059-.5 4.005-.774 6.028-.091.668-.258 1.345-.279 1.999-.027.859-.419 1.771-.365 2.621.048.74-.085 1.512-.101 2.26-.008.386-.31.798-.291 1.159"/><path clip-path="url(#h)" fill="none" stroke="#F2F2F2" stroke-width=".5" stroke-miterlimit="10" d="M46.166 76.661c-.984-.336-2.157-.404-3.105-.729-1.15-.394-1.977-.925-3.253-1.282-1.817-.51-3.926-.854-5.549-1.486-1.888-.736-4.216-1.169-6.498-1.693-2.007-.46-3.325-1.39-5.428-1.711-2.076-.318-.215-.811 1.703-1.27 7.933-1.901 15.772-4.138 23.72-5.887-.549 2.055-.467 3.998-.724 6.019-.086.666-.245 1.341-.262 1.995-.021.857-.401 1.767-.342 2.615.05.74-.078 1.51-.088 2.257-.007.387-.298.795-.279 1.157m35.106-13.653c1.008-.19 1.716-.614 2.689-.798 1.177-.224 2.39-.237 3.578-.533 1.693-.419 3.303-1.047 5.075-1.317 2.067-.313 3.914-.978 5.872-1.571 1.724-.522 3.776-.498 5.345-1.139 1.547-.633 1.304.389.981 1.414-1.334 4.238-2.127 8.637-3.694 12.792-2.734-1.419-5.634-2.521-8.471-3.805-.934-.423-1.845-.881-2.798-1.268-1.251-.513-2.391-1.193-3.673-1.667-1.112-.412-2.175-.912-3.269-1.354-.564-.229-1.016-.583-1.557-.787"/><path clip-path="url(#h)" fill="none" stroke="#F2F2F2" stroke-width=".5" stroke-miterlimit="10" d="M67.41 71.77c.352-.803.393-1.529.734-2.303.413-.937.991-1.781 1.356-2.766.522-1.403.854-2.867 1.522-4.24.778-1.601 1.2-3.248 1.726-4.932.463-1.481 1.476-2.883 1.78-4.324.299-1.423.911-.682 1.487.12 2.382 3.304 5.142 6.323 7.352 9.742-2.341 1.088-4.537 2.466-6.831 3.698-.756.407-1.526.777-2.265 1.215-.973.574-2.013.978-2.974 1.594-.835.536-1.708.986-2.555 1.492-.437.262-.909.371-1.318.631M11.072 53.546c.824.357 1.593.395 2.387.739.962.419 1.811 1.008 2.827 1.379 1.449.526 2.977.858 4.382 1.536 1.638.789 3.354 1.211 5.1 1.742 1.537.466 2.943 1.501 4.449 1.802 1.489.298.649.934-.249 1.532-3.71 2.476-7.149 5.337-10.967 7.637-.961-2.401-2.244-4.653-3.366-7.007-.37-.774-.699-1.564-1.104-2.324-.53-.996-.872-2.064-1.448-3.049-.499-.855-.906-1.752-1.374-2.621-.241-.447-.32-.933-.561-1.352"/><path clip-path="url(#h)" fill="none" stroke="#F2F2F2" stroke-width=".5" stroke-miterlimit="10" d="M16.148 61.838c-.228.189-.355.413-.574.597-.267.221-.566.382-.827.627-.372.35-.699.755-1.106 1.067-.476.364-.859.812-1.276 1.251-.368.386-.879.642-1.194 1.046-.311.397-.368.044-.405-.321-.153-1.51-.46-3.002-.547-4.515.84.097 1.684.072 2.535.113.279.014.557.041.837.043.369 0 .729.069 1.101.055.323-.014.643.008.965.008.166 0 .317.054.475.05"/><path clip-path="url(#h)" fill="none" stroke="#F2F2F2" stroke-width=".5" stroke-miterlimit="10" d="M10.219 54.893c.824.358 1.594.396 2.387.74.961.418 1.811 1.007 2.827 1.378 1.45.527 2.977.859 4.382 1.536 1.638.79 3.354 1.212 5.1 1.742 1.536.467 2.942 1.501 4.449 1.802 1.489.298.649.933-.25 1.533-3.71 2.476-7.149 5.336-10.965 7.636-.962-2.401-2.245-4.654-3.367-7.007-.369-.774-.699-1.564-1.103-2.324-.53-.996-.873-2.063-1.448-3.049-.501-.855-.907-1.751-1.375-2.62-.242-.448-.32-.933-.561-1.352"/><path clip-path="url(#h)" fill="none" stroke="#F2F2F2" stroke-width=".5" stroke-miterlimit="10" d="M17.399 63.192c-.228.189-.355.414-.575.598-.266.221-.565.382-.826.627-.372.35-.699.755-1.107 1.066-.476.365-.858.813-1.275 1.251-.368.387-.879.643-1.194 1.046-.312.398-.368.044-.406-.321-.153-1.511-.459-3.001-.546-4.515.839.098 1.684.073 2.534.114.279.013.558.041.838.042.369 0 .729.069 1.1.055.323-.013.643.009.966.009.166 0 .317.054.474.049m16.6 7.586c.009.385.116.664.124 1.035.01.451-.053.909-.017 1.365.048.649.174 1.274.168 1.95-.009.788.117 1.503.211 2.259.084.665-.041 1.438.092 2.047.131.602-.208.482-.543.331-1.385-.62-2.857-1.039-4.201-1.743.643-.993 1.187-2.057 1.788-3.092.198-.341.407-.672.594-1.021.246-.458.547-.869.782-1.34.205-.409.437-.796.651-1.195.11-.208.257-.367.358-.567m60.506-4.499c-.126.269-.148.526-.27.784-.149.312-.352.585-.485.917-.189.474-.315.979-.554 1.435-.277.531-.435 1.098-.629 1.672-.171.505-.526.952-.642 1.45-.115.493-.315.197-.503-.12-.776-1.304-1.682-2.527-2.398-3.863.802-.266 1.558-.644 2.346-.964.259-.106.523-.198.777-.315.335-.155.69-.244 1.022-.414.288-.147.587-.263.878-.399.151-.07.311-.086.453-.155"/><text transform="rotate(-6.453 488.493 -176.517)" fill="#F2F2F2" font-family="'JUICEBold-Bold'" font-size="21.497">T</text><text transform="rotate(-6.453 482.676 -303.573)" fill="#F2F2F2" font-family="'JUICEBold-Bold'" font-size="21.497">A</text><text transform="rotate(-6.453 475.634 -428.63)" fill="#F2F2F2" font-family="'JUICEBold-Bold'" font-size="21.497">T</text><text transform="rotate(-6.453 468.736 -551.02)" fill="#F2F2F2" font-family="'JUICEBold-Bold'" font-size="21.497">U</text><text transform="rotate(-6.453 461.065 -694.035)" fill="#F2F2F2" font-family="'JUICEBold-Bold'" font-size="21.497">R</text><text transform="rotate(-6.453 452.041 -836.953)" fill="#F2F2F2" font-family="'JUICEBold-Bold'" font-size="21.497">A</text><text transform="rotate(-6.453 445.58 -975.253)" fill="#F2F2F2" font-family="'JUICEBold-Bold'" font-size="21.497">N</text><text transform="rotate(-6.453 438.814 -1119.077)" fill="#F2F2F2" font-family="'JUICEBold-Bold'" font-size="21.497">A</text><defs><path id="i" d="M-205.667-3782.31h1380.138V220.331H-205.667z"/></defs><clipPath id="j"><use xlink:href="#i" overflow="visible"/></clipPath><path clip-path="url(#j)" fill="none" stroke="#F2F2F2" stroke-width=".647" stroke-miterlimit="10" d="M115.979 46.36l1.438-.271m-3.615 4.934l-.438.962"/><text transform="matrix(.9929 -.1185 .1284 1.0757 87.196 54.378)" fill="#F2F2F2" font-family="'JUICELight'" font-size="5.712">mobilizacao social</text><path fill="none" d="M-205.667-3782.309h1380.14v4002.64h-1380.14z"/></svg>