<svg xmlns="http://www.w3.org/2000/svg" viewBox="0 0 300 300"><path fill="#F2F2F2" d="M250.6 194.6l-.8-.4c-.3-.2-.7-.3-1.1-.4-.4-.1-.8-.3-1.2-.5l-2.7-1.6c-.5-.3-1.1-.5-1.7-.7-.8-.3-1.7-.7-2.6-1.2-1-.6-2.1-1-3.1-1.4-.5-.2-1.1-.4-1.6-.7-.6-.2-1.3-.6-1.9-1-.8-.4-1.5-.9-2.3-1.1-.2-.1-.9-.2-.9-.7-.1-.5.6-1 1.1-1.2 1.4-.8 2.8-1.8 4.2-2.7 2-1.4 4.1-2.8 6.3-3.9l.3-.1.1.3c.5 1.5 1.2 3 1.9 4.5l1.2 2.7c.4.9.7 1.6 1 2.3.3.5.5 1.1.7 1.6.2.5.4 1 .7 1.6.5.9.9 1.8 1.2 2.7.1.1.1.3.2.5.1.3.1.6.3.9l.7.5zm-8.3-17c-2.1 1.1-4.1 2.5-6 3.8-1.4.9-2.8 1.9-4.3 2.8-.6.3-.8.6-.8.7 0 0 .1.2.6.3.8.2 1.6.7 2.4 1.2.6.4 1.2.7 1.8 1 .5.2 1.1.5 1.6.7 1 .4 2.1.9 3.2 1.5.8.5 1.7.9 2.5 1.2.6.2 1.1.5 1.7.7l2.7 1.6c.3.2.7.3 1.1.4.2.1.4.1.6.2 0-.1-.1-.3-.1-.4 0-.2-.1-.3-.1-.4-.4-.9-.7-1.8-1.2-2.6-.3-.6-.5-1.1-.7-1.6-.2-.5-.4-1-.7-1.6-.3-.7-.7-1.4-1.1-2.3l-1.2-2.7c-.8-1.6-1.4-3-2-4.5zm-24.2 22.8c-.6 0-1.1-.6-1.5-1.2-1.3-1.9-2.8-3.6-4.2-5.4-2.1-2.5-4.2-5.1-5.9-8l-.1-.2.2-.1c2.7-1.5 5.5-3.2 8.2-4.8 1.8-1.1 3.7-2.2 5.5-3.3.8-.4 1.5-.9 2.3-1.3.8-.4 1.5-.9 2.3-1.3.8-.5 1.7-1 2.5-1.4 1.2-.6 2.4-1.3 3.5-2.1h.1l5.2-3.1c.5-.5 1.1-.8 1.7-1.1.3-.2.6-.3.9-.5l.9-.5-.6.9c-.4.6-.7 1.2-1 1.8-.3.7-.7 1.4-1.2 2.1-.4.7-.9 1.3-1.5 2-.7.9-1.4 1.9-2 2.9l-1.2 2.1c-1 1.8-1.9 3.5-3.1 5.2-1.4 2.1-2.6 4.2-3.7 6.3l-1.2 2.1c-.6 1-1.3 2.1-2 3.1-1 1.5-2.1 3-2.7 4.5-.4.8-.9 1.3-1.4 1.3zm-11-14.6c1.6 2.8 3.7 5.3 5.7 7.7 1.4 1.7 2.9 3.5 4.2 5.4.3.4.7 1 1.1 1 .3 0 .7-.4 1.1-1.3.6-1.5 1.7-3 2.8-4.5.7-1 1.4-2.1 2-3l1.2-2.1c1.1-2.1 2.3-4.2 3.8-6.4 1.1-1.6 2.1-3.3 3.1-5.1l1.2-2.1c.6-1 1.4-2 2.1-2.9.5-.7 1-1.3 1.5-2s.8-1.3 1.1-2c.2-.4.3-.7.5-1.1 0 0-.1 0-.1.1-.6.3-1.2.6-1.7 1l-5.3 3.2c-1.2.8-2.4 1.5-3.5 2.1-.8.4-1.7.9-2.5 1.4-.8.4-1.6.9-2.3 1.3-.7.4-1.5.9-2.3 1.3-1.8 1.1-3.7 2.2-5.5 3.3-2.8 1.6-5.5 3.3-8.2 4.7zm63.3 6.1c-.1 0-.3 0-.5-.1-.9-.2-1.8-.3-2.7-.5-1.2-.2-2.4-.3-3.7-.8l-.2-.1v-.2c.2-1.3.3-2.6.4-4 0-.6.1-1.3.1-2 0-.3 0-.7.1-1 0-.3.1-.6.1-.9 0-.5 0-.9.1-1.3 0-.4.1-.9.1-1.3s0-.8.1-1.2c0-.4.1-.8.1-1.1v-.2l.2-.1c.3-.1.4-.3.4-.6v-2l.5 2c.1.3.2.6.3.8.1.3.3.6.4.9l.1.4c.1.6.3 1.3.6 1.9.2.6.4 1.1.6 1.6.2.5.4 1.1.6 1.6.3 1.1.7 2 1.1 3 .1.2.2.5.3.7.3.5.4 1.1.6 1.7.2.6.4 1.2.6 1.6.2.3.4.7.2.9-.1.1-.2.3-.5.3zm-6.5-1.8c1.1.3 2.3.5 3.4.7.9.1 1.8.3 2.7.5.2.1.4.1.5.1 0 0 0-.1-.2-.4-.3-.5-.5-1.1-.7-1.8-.2-.6-.3-1.1-.6-1.6-.1-.2-.2-.5-.3-.7-.4-1-.8-1.9-1.1-3l-.6-1.5c-.2-.5-.4-1.1-.6-1.6-.3-.6-.5-1.3-.6-2l-.1-.4c-.1-.3-.2-.6-.3-.8 0-.1-.1-.1-.1-.2-.1.1-.2.2-.3.2 0 .3 0 .7-.1 1 0 .4-.1.8-.1 1.1 0 .5 0 .9-.1 1.3 0 .4-.1.9-.1 1.3s0 .7-.1 1c0 .3-.1.6-.1.9-.1.7-.1 1.4-.1 2-.2 1.4-.2 2.7-.4 3.9z"/><path fill="#F2F2F2" d="M276.2 180.5c-.8-.1-1.4-.2-2-.3-.9-.2-1.8-.4-2.9-.4h-4c-1.6 0-2.9-.1-3.9-.2-1.1-.1-2.3-.2-3.7-.2-1.7 0-3.5.1-5.4.2h-.2c-1.2 0-2.3-.2-3.4-.3-1.1-.2-2.1-.3-3.1-.3-.5 0-.9 0-1.3.1-.3 0-.5.1-.7.1-.3 0-.8 0-.9-.4-.2-.5.5-1.2 3-2.9 3.9-2.7 7.8-5.7 11.5-8.5 5.2-3.9 10.5-7.9 15.9-11.6l.3-.2v.4c.2 2.3.8 4.4 1.3 6.4.3 1.3.7 2.6 1 3.9.2 1.3.4 2.3.7 3.5.2.6.2 1.3.3 1.9.1.9.2 1.9.5 2.7.3.8.5 1.7.7 2.5.1.4.2.9.3 1.3.2.2.2.5.3.9 0 .3.1.6.2.9l.2.4-.5-.1c-.7-.1-1.7 0-2.6.1-.4.1-1 .1-1.6.1zm-4.9-1.2c1.2 0 2.1.2 3 .4.6.1 1.2.3 1.9.3.5 0 1.1-.1 1.7-.1.8-.1 1.6-.1 2.3-.1-.1-.2-.1-.5-.1-.7 0-.3-.1-.5-.2-.6v-.1c-.1-.4-.2-.9-.3-1.4-.2-.8-.4-1.7-.7-2.5-.3-.9-.5-1.8-.6-2.8-.1-.7-.2-1.3-.3-1.8-.3-1.2-.5-2.2-.7-3.5l-.9-3.9c-.5-1.9-1.1-4-1.3-6.1-5.3 3.6-10.5 7.5-15.6 11.3-3.8 2.8-7.7 5.8-11.5 8.5-.7.5-2.8 1.9-2.8 2.4h1c.5-.1.9-.1 1.4-.1 1.1 0 2.2.2 3.2.3 1.1.2 2.2.3 3.3.3h.2c1.9-.1 3.7-.2 5.4-.2 1.4 0 2.7.1 3.8.2 1.1.2 2.2.2 3.9.2h3.9z"/><path fill="#F2F2F2" d="M282.7 182.4l-.7-.1c-.6-.1-1.4 0-2.2 0-.8 0-1.6.1-2.2 0-.8-.1-1.5-.2-2.2-.4-.8-.2-1.6-.4-2.5-.5-.5 0-1.1-.1-1.8-.1h-3.2c-1.2 0-2-.1-2.8-.2-1.1-.2-2.2-.3-3.7-.3-.9 0-1.8 0-2.6.1-.9 0-1.8.1-2.7.1-1.3 0-2.5-.2-3.6-.4-1.4-.2-2.6-.4-4.1-.3h-.7c-.3 0-.8 0-.9-.4-.2-.6.7-1.3 2.8-2.9 3.3-2.4 6.6-4.9 9.8-7.3 5.5-4.1 11.2-8.4 16.9-12.3l.4-.2v.4c.2 2.3.8 4.4 1.3 6.4.3 1.3.7 2.6 1 3.9.2 1.3.4 2.3.7 3.5.1.5.2 1.1.3 1.7.2 1 .4 2 .7 2.9.3.8.5 1.7.7 2.5.1.5.2.9.3 1.4.1.2.1.4.1.7 0 .4.1.9.4 1.1l.5.7zm-11.6-1.6c.7 0 1.3 0 1.8.1.9.1 1.8.3 2.6.5.7.2 1.4.3 2.2.4.6.1 1.4 0 2.2 0 .6 0 1.2-.1 1.7 0-.1-.3-.2-.7-.2-1 0-.2 0-.4-.1-.6-.1-.5-.2-.9-.3-1.4-.2-.8-.4-1.7-.7-2.5-.3-.9-.5-2-.7-3-.1-.6-.2-1.1-.3-1.6-.3-1.2-.5-2.2-.7-3.5l-.9-3.9c-.5-1.9-1.1-4-1.3-6.1-5.6 3.8-11.2 8-16.6 12-3.2 2.4-6.5 4.9-9.8 7.3-1 .8-2.7 2-2.7 2.4 0 0 .1.1.4.1h1.4c1.2 0 2.4.2 3.5.4s2.3.4 3.5.4c.9 0 1.8 0 2.7-.1.9 0 1.8-.1 2.6-.1 1.5 0 2.8.1 3.8.3.7.1 1.5.2 2.7.2h1.6c.5-.2 1-.3 1.6-.3z"/><path fill="#F2F2F2" d="M268.6 192.4c-.1 0-.3 0-.5-.1-.9-.2-1.8-.3-2.7-.5-1.2-.2-2.4-.3-3.7-.8l-.2-.1v-.2c.2-1.3.3-2.6.4-4 0-.6.1-1.3.1-2 0-.3 0-.7.1-1 0-.3.1-.6.1-.9 0-.5 0-.9.1-1.3 0-.4.1-.9.1-1.3s0-.8.1-1.2c0-.4.1-.8.1-1.1v-.2h.2c.3 0 .3-.5.3-.6v-2l.5 2c.1.3.2.6.3.8.1.3.3.6.4.9l.1.4c.1.6.3 1.3.6 1.9.2.6.4 1.1.6 1.6.2.5.4 1.1.6 1.6.3 1.1.7 2 1.1 3 .1.2.2.5.3.7.3.5.4 1.1.6 1.7.2.6.4 1.2.6 1.6.2.3.4.7.2.9 0 .1-.1.2-.4.2zm-6.5-1.7c1.1.3 2.3.5 3.4.7.9.1 1.8.3 2.7.5.2.1.4.1.5.1 0 0 0-.1-.2-.4-.3-.5-.5-1.1-.7-1.8-.2-.6-.3-1.1-.6-1.6-.1-.2-.2-.5-.3-.7-.4-1-.8-1.9-1.1-3l-.6-1.5c-.2-.5-.4-1.1-.6-1.6-.3-.6-.5-1.3-.6-2l-.1-.3c-.1-.3-.2-.6-.3-.8 0-.1-.1-.1-.1-.2l-.3.3c0 .3 0 .6-.1 1 0 .4-.1.8-.1 1.1 0 .5 0 .9-.1 1.3 0 .4-.1.9-.1 1.3s0 .7-.1 1c0 .3-.1.6-.1.9-.1.7-.1 1.4-.1 2-.1 1.1-.2 2.4-.4 3.7zm-87.3 2.8l-.2-.2c-1.9-1.5-4-3-6-4.4-1.2-.8-2.4-1.6-3.6-2.5-.5-.4-1.1-.8-1.6-1.1-.5-.4-1-.8-1.6-1.1-.6-.4-1.2-.8-1.8-1.3-.7-.6-1.5-1.2-2.4-1.7-.8-.4-1.5-.9-2.3-1.4-.5-.3-1-.7-1.6-1-.2-.2-.4-.3-.6-.5-.3-.3-.6-.6-1.1-.8l-.7-.3.8-.2c.6-.1 1.1-.4 1.6-.6.7-.3 1.4-.6 2.3-.7.6-.1 1.3-.2 2-.3 1-.1 2-.2 2.9-.6.9-.2 1.7-.5 2.5-.8 1.5-.5 3.1-1.1 4.7-1.3 2.1-.4 4.2-1.1 6.3-1.8.7-.2 1.4-.5 2.1-.7 1.1-.4 2.4-.6 3.6-.8 1.4-.2 2.8-.4 4-1 .5-.2.9-.3 1.2-.3.4 0 .5.2.6.3.3.5-.1 1.5-.8 2.8-1.6 3.3-3.1 6.7-4.5 10-1.7 4-3.5 8.1-5.5 12l-.3.3zm-22.1-16.3c.3.2.5.4.7.7.2.2.3.4.5.5.6.3 1.1.7 1.6 1 .8.5 1.5 1 2.3 1.4.9.5 1.7 1.1 2.5 1.7.6.5 1.2.9 1.8 1.3.5.4 1.1.8 1.6 1.2.5.4 1.1.8 1.6 1.1 1.2.8 2.4 1.7 3.6 2.5 2 1.3 4 2.7 5.8 4.2 2-3.8 3.7-7.9 5.4-11.7 1.4-3.3 2.9-6.7 4.5-10 .7-1.3.9-2.1.8-2.4 0 0-.1-.3-1.1.2-1.3.6-2.7.8-4.1 1-1.2.2-2.4.4-3.5.8-.7.2-1.4.5-2.1.7-2.1.7-4.2 1.4-6.4 1.8-1.6.2-3.1.7-4.6 1.3-.8.3-1.7.6-2.6.8-1 .3-2 .4-3 .6-.7.1-1.3.2-2 .3-.8.1-1.5.4-2.2.6-.4.1-.7.2-1.1.4zm-89.4 34.6c-.2 0-.4-.1-.8-.3-.9-.4-1.9-.7-2.9-1.1-1.5-.6-3.1-1.1-4.5-1.9l-.2-.1.1-.2c.5-.9 1.1-1.8 1.6-2.7.5-.9 1.1-1.8 1.6-2.7.2-.3.4-.6.5-.9.2-.3.4-.6.5-.9.3-.9.9-1.6 1.4-2.3.3-.6.7-1.3 1.2-2 0-.4.1-.6.2-.8 0-.1.1-.2.2-.4l.5-1.5v1.5c0 .4 0 .7.1 1 0 .3.1.5.1.8v.9c0 .5-.1 1 0 1.5 0 .6.1 1.2.2 1.8.1.6.2 1.2.2 1.8 0 1.3.1 2.3.3 3.6l.1.4c.1.6.1 1.3.1 1.9 0 .6 0 1.1.1 1.7.1.4 0 .7-.1.9-.2-.1-.4 0-.5 0zm-7.7-3.7c1.3.7 2.8 1.2 4.2 1.7 1 .4 2 .7 2.9 1.1.4.3.5.3.5.3s.1-.1 0-.5c-.1-.5-.1-1.1-.1-1.7 0-.6 0-1.2-.1-1.8l-.1-.4c-.2-1.2-.3-2.4-.3-3.7 0-.6-.1-1.1-.2-1.7-.1-.6-.2-1.2-.2-1.8-.1-.6-.1-1.1 0-1.6v-1.2.1c-.5.7-.9 1.4-1.2 2.1-.5.7-1.1 1.4-1.4 2.3-.2.3-.4.6-.5.9-.2.3-.4.6-.5.9-.5.9-1 1.8-1.6 2.7-.4.7-.9 1.5-1.4 2.3zm70.4-11.5l.5-.9c.3-.6.4-1.3.6-2 .1-.4.2-.9.3-1.3.3-.7.6-1.4.9-2 .3-.6.6-1.2.9-1.9.3-.8.5-1.6.7-2.4.3-1.2.7-2.4 1.2-3.6.7-1.6 1.1-3.1 1.5-4.8.2-.7.4-1.5.6-2.2.2-1 .7-1.9 1.1-2.9.5-1.1 1-2.2 1.2-3.3.1-.6.3-1.4.9-1.4.5 0 1.1.7 1.7 1.6 1.5 2.1 3.2 4.2 4.8 6.2 2.2 2.7 4.4 5.5 6.3 8.4l.2.2-.3.1c-1.8.8-3.6 1.8-5.4 2.8l-3.9 2.1-3.2 1.6-1.2.6c-1 .5-1.9.9-2.8 1.5l-2.1 1.2c-.5.2-1 .5-1.5.8-.3.1-.6.2-.8.3-.5.1-.8.2-1.2.6l-1 .7zm10.3-28.1c-.1 0-.3.2-.4.9-.2 1.2-.7 2.3-1.2 3.4-.4.9-.8 1.8-1.1 2.8-.2.8-.4 1.5-.6 2.2-.4 1.7-.8 3.3-1.6 4.9-.5 1.1-.8 2.3-1.2 3.5-.2.8-.5 1.7-.8 2.5-.3.7-.6 1.4-.9 2-.3.6-.6 1.2-.9 1.9-.1.4-.2.9-.3 1.3-.1.5-.2.9-.3 1.4.2-.1.5-.2.7-.3.2-.1.5-.1.8-.3.5-.3 1-.5 1.4-.8.7-.4 1.4-.7 2-1.1.9-.6 1.8-1.1 2.9-1.6l1.2-.6 3.2-1.6 3.9-2.1c1.7-.9 3.4-1.9 5.2-2.7-1.9-2.8-4-5.5-6.1-8.1-1.6-2-3.3-4.1-4.8-6.3-.2-.5-.8-1.3-1.1-1.3z"/><path fill="#F2F2F2" d="M158.3 198.1c-.3 0-.5-.4-.8-.8-.5-.8-1-1.5-1.4-2.2-1-1.5-2-3-2.8-4.6l-.1-.2.3-.1c1.4-.5 2.8-1 4-1.7.3-.1.5-.2.7-.3.2-.1.4-.2.7-.3.3-.2.6-.3.9-.4.3-.1.6-.2.8-.3h.1c.2-.1.5-.2.8-.3.3-.1.5-.3.8-.4.1-.1.3-.1.5-.2.1 0 .3-.1.3-.1l.7-.7-.3 1c-.1.2-.1.3-.1.4-.1.3-.2.6-.4 1-.1.3-.3.6-.5.8-.2.3-.3.5-.4.7-.1.3-.2.5-.3.8-.2.6-.4 1.2-.8 1.7-.3.6-.5 1.2-.7 2-.1.3-.2.6-.3 1-.1.3-.3.6-.4.9-.3.6-.5 1.1-.6 1.7-.3.1-.4.6-.7.6zm-4.5-7.7c.8 1.5 1.7 3 2.6 4.3.5.7 1 1.5 1.4 2.2.1.1.3.4.4.5 0 0 0-.1.1-.2.1-.6.4-1.2.7-1.8.1-.3.3-.6.4-.9l.3-.9c.2-.7.4-1.5.8-2.1.4-.5.5-1 .7-1.6.1-.3.2-.5.3-.8.1-.3.3-.6.5-.8.2-.3.3-.5.4-.7v-.1c.2-.3.3-.5.4-.8-.1 0-.3.1-.4.1-.3.1-.5.2-.8.4-.3.1-.5.3-.8.4-.3.2-.6.3-.9.4-.3.1-.6.2-.8.3h-.1c-.3.1-.5.2-.7.3-.2.1-.4.2-.7.3-1.2.5-2.5 1-3.8 1.5zm-49.2 14.4v-.6c0-.9-.2-1.7-.4-2.6l-.3-1.5c-.1-.8 0-1.6 0-2.3 0-.8.1-1.6 0-2.4-.1-.8-.2-1.5-.4-2.3-.3-1.7-.6-3.5-.7-5.2 0-2.2-.4-4.5-.9-6.9-.1-.6-.2-1.2-.3-1.9-.3-1.3-.3-2.6-.3-3.8 0-1.2 0-2.4-.3-3.7-.2-.8-.2-1.2-.1-1.5.1-.1.2-.2.4-.2.4 0 1 .5 2.1 1.5.2.2.4.4.7.6 3.1 3.3 6.2 6.5 9.3 9.7 3.7 3.8 7.5 7.7 11.1 11.6l.2.3-.3.1c-1.8.7-3.4 1.7-5 2.6-1.1.6-2.1 1.2-3.3 1.8-.4.3-.9.5-1.4.7-.5.2-1 .4-1.4.7-.5.3-1 .5-1.5.7-.7.3-1.5.7-2.2 1.2-.4.4-1 .7-1.5 1l-1.5.9c-.3.3-.6.4-.9.6-.3.1-.6.2-.8.5l-.3.4zm-3.2-34.4s0 .2.2 1c.3 1.4.3 2.6.3 3.8 0 1.2 0 2.4.3 3.7.1.6.2 1.2.3 1.9.4 2.3.9 4.7.9 7 .1 1.7.4 3.4.7 5.2.1.8.3 1.6.4 2.4.1.9 0 1.7 0 2.5s-.1 1.5 0 2.2c.1.4.2.9.3 1.4.2.7.3 1.4.4 2.2.2-.1.4-.2.5-.3.3-.1.6-.2.8-.5.5-.4 1-.7 1.5-1l1.5-.9c.8-.5 1.5-.9 2.3-1.2.5-.2 1-.4 1.5-.7.4-.3.9-.5 1.4-.7.5-.2 1-.4 1.4-.7l3.3-1.8c1.5-.9 3-1.8 4.7-2.5-3.5-3.8-7.2-7.7-10.8-11.3-3.1-3.1-6.3-6.4-9.3-9.7-.2-.2-.4-.4-.7-.6-.8-.7-1.6-1.4-1.9-1.4z"/><path fill="#F2F2F2" d="M84.9 193.7c-.1 0-.3-.1-.3-.2-.2-.3-.1-.8.2-1.7v-.2c.6-2 1.1-4.2 1.6-6.3.7-2.9 1.5-6 2.4-8.9l.1-.3.3.2c1.1.7 2.3 1.3 3.5 1.8.8.4 1.7.8 2.5 1.2.4.2.7.4 1 .5.3.2.6.3 1 .5s.9.4 1.3.7c.4.3.9.5 1.3.7.9.4 1.6.7 2.3 1 .2.1.3.2.4.2.2.1.4.3.6.3h1.1l-.9.5c-.3.2-.7.4-1 .6-.3.2-.7.4-1.1.6-.9.4-1.8.7-2.8 1.2-.4.2-.9.5-1.4.9-.8.5-1.7 1.1-2.5 1.4-1 .4-1.8 1-2.8 1.6-.6.4-1.2.7-1.8 1.1-.6.4-1.2.6-1.8.9-.8.3-1.5.6-2.2 1.2-.6.4-.9.5-1 .5zm4.3-16.7c-.9 2.8-1.6 5.7-2.3 8.5-.5 2.1-1.1 4.2-1.6 6.3v.2c-.1.4-.3 1-.3 1.2.1 0 .2-.1.5-.3.7-.6 1.5-1 2.3-1.3.6-.2 1.2-.5 1.7-.8.6-.3 1.2-.7 1.8-1.1.9-.6 1.9-1.2 2.8-1.6.8-.3 1.6-.9 2.4-1.4.5-.3 1-.6 1.4-.9 1.1-.5 2-.9 2.8-1.2.3-.2.7-.4 1-.6.2-.1.4-.2.6-.4-.1 0-.2-.1-.2-.2-.1-.1-.2-.1-.3-.2-.7-.4-1.4-.7-2.3-1-.5-.2-.9-.5-1.4-.7-.4-.3-.9-.5-1.3-.7-.4-.2-.7-.4-1-.5-.3-.2-.6-.3-1-.5-.8-.4-1.7-.8-2.5-1.2-.9-.5-2.1-1-3.1-1.6zm106.7 26.3l-.1-.2c-1.3-2.1-2.8-4.2-4.3-6.3-1.1-1.5-2.2-3.1-3.2-4.6l-1.2-1.8-1.2-1.8c-.6-.8-1.2-1.6-1.7-2.4-.5-.8-1-1.6-1.7-2.4-.4-.5-.8-1-1.1-1.6-.6-.9-1.2-1.7-1.9-2.5v-.1c-.3-.8-.7-1.7-1.2-2.2l-.8-.8 1.1.4c.6.2 1.2.4 1.7.6.7.2 1.3.4 2 .7.8.4 1.6.8 2.3 1.2.7.4 1.5.8 2.3 1.1l2.7.9c1.4.4 2.8.9 4.1 1.5 2.1 1 4.2 1.6 6.5 2.3.5.2 1 .3 1.6.5 1.1.3 2.2.9 3.3 1.4 1.3.6 2.5 1.2 3.7 1.4.9.2 1.4.5 1.5.9.2.6-.4 1.1-1.1 1.8l-.2.2c-1.9 1.6-3.6 3.3-5.3 4.9-2.4 2.3-4.8 4.7-7.6 6.7l-.2.2zm-16-23.9c.7.8 1.2 1.6 1.9 2.5.4.5.7 1 1.1 1.5.6.8 1.2 1.6 1.7 2.4.5.8 1.1 1.6 1.7 2.4.5.6.9 1.3 1.2 1.9l1.2 1.8c1 1.6 2.2 3.1 3.2 4.6 1.4 2 2.9 4 4.2 6.1 2.6-2 5-4.3 7.3-6.5 1.7-1.7 3.5-3.4 5.3-4.9l.2-.2c.5-.5 1-1 .9-1.3 0-.1-.2-.4-1.2-.6-1.3-.2-2.5-.8-3.9-1.5-1-.5-2.1-1-3.2-1.3-.5-.2-1.1-.3-1.6-.5-2.3-.7-4.4-1.3-6.6-2.3-1.4-.6-2.7-1.1-4.1-1.5-.9-.3-1.8-.6-2.8-.9-.8-.4-1.6-.8-2.3-1.2-.7-.4-1.5-.8-2.3-1.1-.7-.3-1.3-.5-1.9-.7-.3-.1-.6-.2-1-.3.5.5.7 1.1 1 1.6zm31.8-7.8c-.3 0-.5-.1-.5-.3-.2-.3.1-.7.5-1.2.8-1 1.4-2.1 2.1-3.2.9-1.4 1.8-2.8 2.8-4.1l.2-.2.2.2c.6.6 1.2 1.2 1.8 1.7.6.6 1.2 1.2 1.9 1.8l2.8 2.8c.5.3 1 .8 1.4 1.2.4.2.6.4.7.6l.4.4h-.6c-.2 0-.5 0-.8.1-.6.1-1.3.1-1.9 0-.7-.1-1.4-.1-2.1 0-.8 0-1.5.1-2 0-.3 0-.6-.1-1-.1-.7 0-1.4.1-2.2.2h-1.3c-.7 0-1.5-.1-2.1 0-.1.1-.2.1-.3.1zm-.1-.5h.4c.6-.1 1.4-.1 2.2 0h1.2c1.2-.2 2.3-.3 3.4-.1.5.1 1.2.1 1.9 0h2.2c.6.1 1.2.1 1.8 0h.2c-.1 0-.1-.1-.2-.1h-.1c-.3-.3-.9-.9-1.4-1.2l-2.9-2.8-1.8-1.8c-.5-.5-1.1-1-1.6-1.6-.9 1.2-1.7 2.5-2.6 3.8-.7 1-1.4 2.1-2.1 3.2-.3 0-.5.4-.6.6zm-80.2 2.6h-2.5c-.6-.2-1.3-.3-1.7-.3-.9-.2-1.8 0-2.7-.2-1.2-.3-2.2-.3-3.3-.3-.5 0-1-.1-1.5-.2s-.9-.2-1.4-.2c-.3 0-.6 0-.8-.3-.1-.3.2-.6.6-1 .9-1 1.8-2 2.6-3 .9-1 1.8-2 2.6-3l.2-.2.2.3c.4.6.9 1.2 1.4 1.7.5.6 1 1.2 1.4 1.8.2.2.4.5.6.9.1.1.2.2.3.4.3.5.7 1 1.2 1.5.2.2.4.4.5.6.2.2.3.4.5.6.2.1.3.2.4.3.1.1.1.1.3.2l1.1.4zm-2.4-.5h.6s-.1 0-.1-.1h-.1c-.2-.2-.4-.4-.5-.6-.2-.2-.3-.4-.5-.6-.5-.5-.9-1.1-1.3-1.6-.1-.1-.2-.3-.3-.4-.2-.3-.4-.6-.6-.8-.5-.6-.9-1.2-1.4-1.8l-1.2-1.5c-.8.9-1.6 1.8-2.4 2.8-.9 1-1.8 2-2.6 3l-.4.4h.2c.5 0 1 .1 1.5.2s.9.2 1.4.2c1.1 0 2.1 0 3.4.4.8.2 1.7 0 2.6.2.6-.2 1.4 0 1.7.2z"/><path fill="#F2F2F2" d="M104.2 214.4l-.1-.6c-.1-.9-.3-1.8-.5-2.6s-.3-1.5-.4-2.3c-.1-1 0-1.9 0-2.9 0-.9.1-1.9 0-3s-.3-2.3-.5-3.4c-.3-1.9-.7-3.8-.7-5.6 0-2.6-.6-5.4-1.1-8.3-.1-.7-.3-1.5-.4-2.2-.2-1.4-.3-2.7-.3-4 0-1.7-.1-3.4-.6-5.2-.3-1-.3-1.5-.1-1.8.1-.1.2-.2.4-.2.5 0 1.4.8 2.9 2.3l.4.4c3.7 4.1 7.6 8.1 11.4 11.9 4.4 4.5 9 9.2 13.2 13.9l.2.3-.3.1c-2.3.9-4.5 2.2-6.7 3.4-1.1.6-2.2 1.3-3.3 1.8-.3.1-.5.3-.8.4-.8.4-1.7.8-2.5 1.3-.6.4-1.3.7-2 1-.8.4-1.7.7-2.4 1.3-.6.5-1.3.9-2 1.3-.6.3-1.2.6-1.7 1-.2.1-.3.1-.5.2-.4.1-.9.2-1.2.7l-.4.8zm-4.4-41.5s-.1.2.2 1.3c.5 1.8.6 3.6.6 5.3 0 1.3.1 2.6.3 3.9.1.7.3 1.5.4 2.2.6 2.9 1.2 5.7 1.2 8.4 0 1.7.3 3.6.7 5.5.2 1.1.4 2.3.6 3.5.1 1.1 0 2.1 0 3 0 .9-.1 1.8 0 2.8.1.7.2 1.5.4 2.2.2.7.3 1.4.4 2.2.4-.3.8-.4 1.1-.5.1 0 .3-.1.4-.1.5-.4 1.1-.7 1.7-1 .7-.4 1.4-.8 1.9-1.2.8-.6 1.7-1 2.5-1.4.7-.3 1.3-.6 1.9-.9.8-.5 1.7-1 2.6-1.4.3-.1.5-.3.8-.4l3.3-1.8c2.1-1.2 4.2-2.4 6.4-3.3-4.2-4.6-8.7-9.2-13-13.7-3.8-3.9-7.7-7.9-11.4-11.9l-.4-.4c-1-1.1-2.2-2.3-2.6-2.3z"/><path fill="#F2F2F2" d="M82.7 198.9c-.1 0-.2-.1-.3-.2-.2-.3-.1-1 .2-2.2.6-2.1 1.1-4.2 1.7-6.3 1-3.7 2-7.6 3.1-11.3l.1-.3.3.2c1.5 1 3.1 1.7 4.7 2.5.4.2.8.4 1.3.6.4.2.7.4 1 .5.3.2.6.3 1 .5s.8.4 1.1.6c.4.3.9.6 1.5.8.9.4 1.6.7 2.3 1.1h.1v.1c.2.4.3.6.7.6h.9l-.8.5c-.4.2-.7.5-1.1.8-.3.3-.7.6-1.1.8-.4.3-.9.5-1.4.7-.5.2-1 .4-1.4.7-.6.4-1.1.8-1.7 1.2-.8.6-1.5 1.2-2.4 1.6-1.6.9-3.2 2.1-4.7 3.3-.6.5-1.3.8-1.9 1.1-.8.4-1.6.8-2.3 1.5-.4.5-.7.6-.9.6zm5.1-19.5c-1.1 3.6-2.1 7.4-3 11-.5 2.1-1.1 4.2-1.7 6.3-.1.5-.3 1.4-.3 1.7.1 0 .2-.1.4-.4.7-.7 1.6-1.2 2.4-1.6.6-.3 1.2-.6 1.8-1.1 1.6-1.2 3.2-2.5 4.8-3.4.8-.4 1.5-1 2.3-1.6.6-.4 1.1-.9 1.7-1.3.5-.3 1-.5 1.4-.7.5-.2 1-.4 1.4-.7.3-.2.7-.4 1-.7.2-.2.4-.4.7-.6-.2-.2-.4-.4-.5-.6-.7-.3-1.3-.7-2.2-1-.6-.2-1.1-.5-1.6-.8-.4-.2-.7-.4-1.1-.6-.4-.2-.7-.4-1-.5-.3-.2-.6-.3-1-.5s-.8-.4-1.3-.6c-1.3-.7-2.8-1.4-4.2-2.3zm108.5 24.5l-.1-.2c-1.9-2.9-4-5.9-6-8.7l-.8-1.1-.6-.9c-.5-.8-1.1-1.7-1.7-2.4-.5-.7-1-1.5-1.5-2.2-.5-.7-1-1.5-1.5-2.2-.9-1.2-1.8-2.5-2.8-3.7-.1-.2-.2-.3-.3-.5-.3-.4-.5-.9-.9-1.2l-.9-.9 1.2.5c.6.3 1.1.4 1.6.5.5.1 1.1.3 1.7.5.5.2.9.5 1.4.7.9.5 1.8.9 2.8 1.4.8.4 1.7.6 2.6.9 1.3.4 2.5.8 3.6 1.4 1.7.8 3.2 1.3 4.9 1.9.8.2 1.5.5 2.3.8.9.3 1.9.8 2.8 1.2 1.2.6 2.4 1.2 3.5 1.4.9.2 1.4.6 1.5 1 .1.6-.6 1.2-1.2 1.6-1.5 1.3-3 2.7-4.4 4.1-2.2 2.1-4.4 4.3-6.8 6.1h-.4zM180.9 181c.1.2.3.4.4.6.1.2.2.3.3.5 1 1.2 1.9 2.5 2.8 3.7.5.7 1 1.5 1.5 2.2.5.7 1 1.5 1.5 2.2.6.8 1.2 1.6 1.7 2.4l.6.9.8 1.1c2 2.8 4.1 5.6 5.9 8.5 2.3-1.8 4.5-3.8 6.6-5.9 1.4-1.4 2.9-2.8 4.5-4.2.9-.6 1-1 1-1.1 0-.1-.2-.4-1.1-.6-1.1-.2-2.4-.8-3.6-1.4-.9-.4-1.9-.9-2.7-1.2-.8-.3-1.5-.5-2.3-.8-1.7-.5-3.3-1-5-1.9-1.1-.6-2.3-1-3.5-1.4-.8-.3-1.7-.5-2.6-.9-1.1-.5-2-1-2.9-1.4-.4-.2-.9-.5-1.4-.7-.6-.2-1.1-.4-1.6-.5-.3 0-.6 0-.9-.1zm33.7 19.1c-.8 0-1.3-1-1.9-2.1-1.5-2.8-3.1-5.5-4.7-8.2-2.2-3.7-4.5-7.5-6.4-11.5l-.1-.3.3-.1c3.1-1.1 6.2-2.3 9.2-3.5 2-.8 4.1-1.7 6.1-2.4.9-.4 1.7-.7 2.6-1 .8-.3 1.7-.6 2.5-1 .9-.4 1.7-.7 2.7-1 1.3-.5 2.7-1 4-1.6 1-.4 2-.8 2.9-1.2.9-.4 1.9-.8 2.9-1.2.3-.1.7-.2 1-.4.6-.2 1.1-.4 1.8-.7l.9-.5-.6.8c-.6.8-.9 1.6-1.3 2.4-.3.6-.6 1.2-1 1.8-.6.9-1.3 1.8-2 2.6-.6.8-1.3 1.7-1.9 2.5-.5.9-1 1.8-1.5 2.6-1 1.7-2 3.5-3.3 5.3-1.8 2.6-3.3 5.2-4.8 7.9l-.7 1.2c-.7 1.3-1.6 2.5-2.5 3.7-1.1 1.4-2.1 2.8-2.7 4.2-.5 1.2-1 1.7-1.5 1.7zm-12.4-21.8c1.8 3.9 4.1 7.6 6.2 11.2 1.6 2.7 3.3 5.4 4.7 8.2.3.7.9 1.9 1.4 1.9.2 0 .6-.2 1.1-1.3.7-1.5 1.7-2.8 2.8-4.3.9-1.2 1.8-2.4 2.5-3.7l.7-1.2c1.5-2.7 2.9-5.3 4.8-7.9 1.3-1.8 2.3-3.5 3.2-5.3.5-.9 1-1.8 1.5-2.6.6-.9 1.3-1.7 1.9-2.6.6-.8 1.3-1.7 1.9-2.5.4-.6.6-1.2.9-1.8.3-.6.5-1.1.9-1.7-.4.1-.7.3-1.1.4-.3.1-.7.2-1 .3-1 .4-1.9.8-2.9 1.2-.9.4-1.9.8-2.9 1.2-1.4.6-2.7 1.1-4 1.6-.9.3-1.8.7-2.6 1-.9.4-1.7.7-2.6 1-.8.3-1.7.6-2.5 1-2 .8-4.1 1.6-6.1 2.4-2.8 1.2-5.9 2.5-8.8 3.5z"/><path fill="#F2F2F2" d="M250.3 191.3l-.5-.3c-.6-.3-1.2-.5-1.8-.7-.4-.1-.8-.2-1.1-.4-.6-.3-1.2-.6-1.7-1s-1-.7-1.6-.9c-.4-.2-.8-.3-1.2-.5-1.4-.6-2.9-1.1-4.3-1.8-1.3-.7-2.7-1.3-4.2-1.8-.7-.3-1.5-.5-2.2-.8-.9-.3-1.7-.8-2.5-1.3-1-.6-1.9-1.1-2.9-1.4-.5-.1-1.1-.4-1.1-.8 0-.5.6-.9 2-1.4 2.7-1.1 5.3-2.3 7.9-3.5 3.4-1.5 6.8-3.1 10.4-4.4l.3-.1v.3c.2 1.8.6 3.6 1 5.4.3 1.1.5 2.2.7 3.3.1.4.2.9.3 1.4.1.5.2 1 .3 1.4.2.6.3 1.2.4 1.9l.3 1.8c.2.6.3 1.2.5 1.8.1.5.2 1 .4 1.5.2.4.3.8.4 1.2 0 .2.1.4.1.5l.1.6zm-5.1-20.4c-3.5 1.3-6.8 2.8-10.1 4.3-2.6 1.2-5.2 2.4-7.9 3.5-1.7.6-1.7.9-1.7.9s.1.2.8.4c1.1.3 2.1.9 3 1.4.8.5 1.6.9 2.5 1.2.7.3 1.4.6 2.2.8 1.4.5 2.9 1.1 4.2 1.8 1.4.7 2.8 1.3 4.2 1.8.4.2.8.3 1.2.5.6.3 1.2.6 1.7 1s1 .7 1.6.9c.3.1.7.2 1.1.4.5.1.9.3 1.4.5v-.1c-.1-.3-.2-.7-.4-1.1-.2-.6-.3-1.1-.4-1.6-.2-.6-.3-1.2-.5-1.8-.2-.6-.3-1.3-.4-1.9l-.3-1.8c-.1-.5-.2-.9-.3-1.4-.1-.5-.2-1-.3-1.4-.2-1.1-.5-2.2-.7-3.2-.2-1.6-.6-3.3-.9-5.1zm-21.4 1.5h-2.6c-.4 0-.7 0-1.1-.1s-.7-.1-1-.1h-3c-.4-.1-.8-.1-1.2-.1h-1.1c-.8 0-1.7 0-2.5-.1-.7-.1-1.3-.2-1.8-.1-.6.1-.8-.1-.9-.2-.1-.3.2-.8.5-1.1.5-.8 1.1-1.6 1.6-2.4 1-1.5 1.9-2.9 3-4.3l.2-.2.2.2c1.1 1.1 2.2 2 3.4 3.1l.4.4 2.8 2.8c.5.3 1 .8 1.3 1.2.3 0 .4.1.6.2.1 0 .1.1.2.1l1 .7zm-4.7-.7c.4 0 .7 0 1.1.1s.7.1 1 .1h.5c-.3-.3-.8-.8-1.3-1.1l-2.9-2.8-.4-.4c-1.2-1-2.2-1.9-3.2-3-1 1.3-1.9 2.6-2.8 4-.5.8-1 1.6-1.6 2.4-.3.3-.4.4-.4.5h.3c.6-.1 1.3 0 2 .1.9.1 1.7.1 2.4.1.8 0 1.6-.1 2.4 0h2.9zm-87.7 5.1h-2.5c-.6-.2-1.3-.3-1.7-.3-.9-.2-1.8 0-2.7-.2-1-.2-2.1-.2-3.1-.2-.5 0-1-.1-1.5-.2s-.9-.2-1.4-.2c-.3 0-.6 0-.8-.3-.1-.3.2-.6.6-1 .9-1 1.8-2 2.6-3 .9-1 1.8-2 2.6-3l.2-.2.2.3c.4.6.9 1.2 1.4 1.7.5.6 1 1.2 1.4 1.8.2.2.4.5.6.9.1.1.2.2.2.4.3.5.7 1 1.2 1.5.2.2.4.4.5.6.1.2.3.3.4.5.2 0 .3.1.4.2.1.1.1.2.2.2l1.2.5zm-2.4-.5h.6c-.2-.2-.3-.4-.5-.6-.2-.2-.3-.4-.5-.6-.5-.5-.9-1.1-1.3-1.6-.1-.1-.2-.3-.3-.4-.2-.3-.4-.6-.6-.8-.5-.6-.9-1.2-1.4-1.8l-1.2-1.5c-.8.9-1.6 1.8-2.4 2.8-.9 1-1.8 2-2.6 3l-.4.4h.2c.5 0 1 .1 1.5.2s.9.2 1.4.2c1 0 2.1 0 3.2.2.9.2 1.7 0 2.6.2.6-.1 1.4.2 1.7.3zm-48.7 27.4c-.9-.3-1.8-.4-2.8-.6-1-.2-2-.4-2.8-.6-1-.3-1.8-.7-2.7-1.1-.9-.4-1.9-.8-3.1-1.2-1.1-.3-2.3-.5-3.4-.8-2.3-.5-4.6-1-6.6-1.9-2.1-.8-4.7-1.4-7.3-2-1.4-.3-2.9-.6-4.3-1-1.6-.4-3-.9-4.3-1.4-1.7-.7-3.3-1.3-5.3-1.6-1.3-.2-1.8-.4-1.8-.8 0-.6 1.4-1.1 4.8-2 6.3-1.5 12.8-3.1 19-4.7 7.8-2 15.8-4.1 23.7-5.8l.4-.1-.1.4c-.7 2.3-.8 4.6-1 6.7-.1 1.2-.2 2.5-.4 3.8-.1.4-.1.9-.2 1.3-.2.7-.3 1.4-.3 2.2 0 .8-.2 1.7-.4 2.5-.2.7-.3 1.4-.3 2.1 0 .6 0 1.2-.1 1.9 0 .7-.1 1.4-.1 2.1 0 .4-.1.8-.3 1.1-.1.3-.2.6-.2.9h.2l-.3.6zm-44-12.9c.1.1.4.2 1.4.3 2.1.3 3.7.9 5.4 1.6 1.3.5 2.6 1 4.3 1.4 1.4.4 2.9.7 4.3 1 2.7.6 5.2 1.2 7.4 2 2 .8 4.3 1.3 6.6 1.8 1.1.3 2.3.5 3.4.8 1.3.4 2.2.8 3.2 1.2.8.4 1.7.7 2.6 1 .9.3 1.8.4 2.8.6.7.1 1.5.3 2.2.4 0-.3.2-.6.3-.9.1-.3.2-.7.2-1 0-.7 0-1.5.1-2.2 0-.7.1-1.3.1-1.9 0-.7.2-1.4.3-2.2.2-.8.4-1.6.4-2.4 0-.8.1-1.5.3-2.3.1-.4.2-.8.2-1.2.2-1.3.3-2.6.4-3.8.2-2.1.3-4.2.9-6.4-7.8 1.7-15.7 3.8-23.3 5.7-6.2 1.6-12.7 3.3-19 4.7-1.7.7-4.2 1.4-4.5 1.8z"/><path fill="#F2F2F2" d="M81.2 206c-.8-.2-1.8-.4-2.7-.6-1-.2-2-.4-2.8-.6-1-.3-1.8-.7-2.7-1.1-.9-.4-1.9-.8-3.1-1.2-1.1-.3-2.3-.6-3.4-.9-2.2-.5-4.4-1.1-6.2-1.8-3.3-1.2-7.4-2.1-11.4-3-1.5-.4-2.8-.9-4.1-1.4-1.7-.7-3.3-1.3-5.4-1.6-1.3-.2-1.8-.4-1.8-.8 0-.6 1.4-1.1 4.8-2 6-1.4 12-3 17.9-4.5 7.8-2 15.9-4.1 23.8-5.9l.4-.1-.1.4c-.6 2.6-.8 5.1-1 7.6-.1 1-.1 2-.2 3l-.3 1.8-.3 1.8c0 .7-.1 1.4-.3 2.2-.2.8-.3 1.6-.2 2.4.1.8 0 1.5-.1 2.4-.1.6-.1 1.1-.1 1.7 0 .4-.1.8-.3 1.1-.1.3-.2.7-.2 1h-.1l-.1.1zm-43.1-13c.1.1.4.2 1.4.3 2.2.3 3.8 1 5.5 1.6 1.2.5 2.5 1 4 1.4 4 .9 8.1 1.8 11.5 3 1.8.7 4 1.2 6.2 1.7 1.2.3 2.4.6 3.5.9 1.2.4 2.2.8 3.2 1.2.8.4 1.6.7 2.6 1 .8.3 1.7.4 2.7.6.8.1 1.5.3 2.3.5.1-.3.1-.5.2-.8.1-.3.2-.7.2-1 0-.6.1-1.2.1-1.7.1-.8.2-1.6.1-2.3-.1-.8.1-1.6.2-2.5.1-.7.3-1.4.3-2.1.1-.7.2-1.2.3-1.8.1-.6.2-1.1.3-1.7.1-1 .2-2 .2-3 .2-2.3.3-4.7.9-7.2-7.8 1.8-15.7 3.8-23.4 5.8-5.9 1.5-11.9 3.1-17.9 4.5-1.7.6-4.1 1.3-4.4 1.6zm139.9 4.9l-.2-.1c-3.1-1.6-6.3-3-9.7-4.4-1.7-.7-3.5-1.5-5.2-2.3-.6-.3-1.3-.6-1.9-.9-1-.5-1.9-1-3-1.4-1.2-.4-2.2-1-3.3-1.5-1-.5-2.1-1.1-3.2-1.5-1.9-.7-3.9-1.6-5.8-2.5-.3-.1-.7-.3-1.1-.5-.5-.3-1.1-.5-1.7-.7l-.9-.3.9-.2c.9-.2 1.6-.4 2.3-.7.7-.3 1.5-.5 2.4-.7.9-.1 1.7-.2 2.6-.3 1.2-.1 2.5-.3 3.8-.6 1.2-.3 2.3-.6 3.4-.9 1.8-.5 3.6-1 5.5-1.4 2.8-.4 5.2-1.2 7.8-2 .8-.3 1.7-.5 2.6-.8 1.4-.4 2.9-.6 4.3-.8 1.8-.3 3.6-.5 5-1.1 1.2-.5 1.9-.4 2.2 0 .4.5.2 1.4-.2 2.7-.9 2.9-1.7 5.9-2.4 8.8-1.2 4.5-2.4 9.2-4.1 13.7l-.1.4zm-34.3-16c.3.1.7.3 1 .5.4.2.7.3 1.1.5 1.9.9 3.9 1.8 5.8 2.5 1.2.4 2.2 1 3.3 1.5 1 .5 2.1 1 3.2 1.5 1.1.4 2.1.9 3 1.4.6.3 1.3.6 1.9.9 1.7.8 3.5 1.5 5.2 2.3 3.3 1.4 6.5 2.7 9.5 4.3 1.7-4.4 2.8-9 4-13.4.8-2.9 1.5-5.9 2.4-8.8.2-.6.6-1.9.2-2.3 0 0-.1-.2-.5-.2-.3 0-.7.1-1.2.3-1.5.6-3.3.9-5.1 1.1-1.4.2-2.9.4-4.3.8-.9.3-1.7.5-2.6.8-2.6.8-5.1 1.6-7.9 2-1.9.3-3.7.8-5.5 1.3-1.1.3-2.3.7-3.5.9-1.3.3-2.6.5-3.8.6-.8.1-1.7.2-2.5.3-.9.2-1.6.4-2.3.7-.3.2-.8.3-1.4.5z"/><path fill="#F2F2F2" d="M117.9 198.2l.5-1c.4-.8.6-1.5.7-2.3.1-.6.3-1.1.5-1.8.3-.7.7-1.4 1.1-2.1.5-.9 1-1.8 1.4-2.8.3-.8.6-1.6.8-2.5.5-1.7 1.1-3.4 1.8-4.9 1.2-2.4 1.9-4.7 2.6-7.2.1-.4.3-.9.4-1.3.4-1.2 1-2.3 1.5-3.4.7-1.4 1.4-2.8 1.7-4.1.1-.7.4-1.6 1.1-1.6.6 0 1.3.8 1.9 1.7 1.8 2.5 3.7 4.9 5.6 7.3 2.5 3.1 5.1 6.4 7.4 9.8l.2.2-.3.1c-2.3 1.1-4.7 2.5-6.9 3.7-1.6.9-3.3 1.9-5 2.8-.7.4-1.4.7-2 1.1-.7.4-1.3.7-2 1.1-.9.5-1.8 1-2.6 1.4-.9.4-1.8.9-2.6 1.4-1.4.9-3 1.8-4.6 2.6l-.6.3c-.5.2-1 .4-1.6.9l-1 .6zm14.1-34.6c-.3 0-.5.4-.6 1.2-.3 1.4-1 2.8-1.7 4.2-.5 1.1-1.1 2.2-1.5 3.4-.1.4-.3.9-.4 1.3-.7 2.5-1.4 4.9-2.6 7.3-.7 1.5-1.2 3.2-1.8 4.9-.3.8-.5 1.7-.8 2.5-.4 1-.9 1.9-1.4 2.9-.4.7-.8 1.4-1.1 2.1-.2.6-.3 1.1-.5 1.7-.1.5-.2 1-.4 1.6.4-.2.7-.4 1-.5l.6-.3c1.5-.9 3.2-1.8 4.6-2.6.9-.5 1.8-1 2.7-1.4.9-.4 1.8-.9 2.6-1.4.7-.4 1.4-.7 2-1.1.7-.4 1.3-.7 2-1.1 1.7-.9 3.4-1.8 5-2.8 2.2-1.2 4.4-2.5 6.7-3.6-2.3-3.3-4.8-6.5-7.2-9.5-1.9-2.4-3.8-4.8-5.6-7.3-.5-.5-1.2-1.5-1.6-1.5zM33.3 194l-.1-.3c-1.8-4.2-3.9-8.3-6-12.3-.3-.6-.6-1.2-.8-1.7-.4-.8-.7-1.6-1.1-2.3-.4-.8-.7-1.6-1.1-2.4-.5-1-.9-2-1.4-2.9-.4-.6-.7-1.3-1-1.9-.5-.9-.9-1.8-1.5-2.7-.2-.3-.3-.6-.5-1s-.3-.9-.6-1.3l-.4-.7.8.4c.8.4 1.5.6 2.4.7.6.1 1.2.3 1.8.5.9.4 1.7.8 2.5 1.2.8.4 1.6.9 2.4 1.2.9.3 1.9.6 2.9 1 1.6.5 3.3 1 4.8 1.7 2.2 1.1 4.6 1.8 7 2.4.7.2 1.3.4 2 .6 1.1.4 2.2.9 3.3 1.4 1.5.7 2.9 1.4 4.4 1.7 1 .2 1.5.5 1.6.9.1.7-.7 1.3-1.7 2l-.2.2c-2.4 1.7-4.9 3.4-7.2 5.1-3.9 2.8-7.9 5.8-12.2 8.3l-.1.2zm-13.2-28.4c.1.3.2.5.3.7.1.4.3.7.4.9l1.5 2.7c.3.6.6 1.2 1 1.9.5.9.9 1.9 1.4 3 .3.8.7 1.6 1.1 2.3.4.7.8 1.5 1.1 2.3.3.6.5 1.1.8 1.7 2 3.9 4.1 7.9 5.9 12.1 4.2-2.5 8.1-5.4 11.9-8.1 2.3-1.7 4.7-3.4 7.2-5.1l.2-.1c.7-.5 1.5-1.2 1.5-1.5 0-.1-.2-.3-1.2-.6-1.6-.3-3.1-1-4.5-1.8-1.1-.5-2.2-1-3.3-1.4-.6-.2-1.3-.4-2-.6-2.4-.7-4.8-1.3-7-2.4-1.5-.6-3.2-1.2-4.8-1.7-1-.3-2-.6-3-1-.9-.4-1.7-.8-2.5-1.2-.8-.4-1.6-.9-2.4-1.2-.6-.2-1.2-.3-1.8-.5-.6 0-1.2-.1-1.8-.4z"/><path fill="#F2F2F2" d="M19.3 188.4c-.4 0-.6-.4-.6-1.1-.1-.6-.2-1.3-.3-1.9-.3-2-.6-4-.6-6v-.3h.3c1.4.2 3 .2 4.4.2h1.4c.4 0 .7 0 1 .1.3 0 .6.1.9.1H29l-1.5 1.5c-.5.4-1.1.7-1.4 1.1-.4.3-.6.6-1 1-.3.4-.6.7-1 1-.9.7-1.5 1.4-2.2 2.2-.3.3-.7.6-1 .8-.4.3-.8.6-1.1.9 0 .2-.2.4-.5.4zm-.9-8.7c0 1.9.3 3.8.6 5.6.1.7.2 1.3.3 2 0 .3.1.5.1.6l.2-.2c.3-.4.7-.7 1.2-1 .3-.2.7-.5 1-.8.7-.9 1.4-1.6 2.3-2.3l.9-.9c.3-.4.6-.7 1-1 .3-.3.9-.7 1.4-1.1l.6-.6h-2c-.4 0-.7 0-1-.1-.3 0-.6-.1-.9-.1h-1.4c-1.5 0-3 0-4.3-.1z"/><path fill="#F2F2F2" d="M31.7 196.5l-.1-.3c-1.8-4.2-3.9-8.3-6-12.3-.3-.6-.6-1.2-.8-1.7-.4-.8-.7-1.6-1.1-2.3-.4-.8-.7-1.6-1.1-2.4-.5-1-.9-2-1.4-2.9-.4-.6-.7-1.3-1-1.9-.5-.9-.9-1.8-1.5-2.7-.2-.3-.3-.7-.3-1-.1-.5-.2-.9-.5-1.3l-.6-.8.9.5c.8.4 1.5.6 2.4.7.6.1 1.2.3 1.8.5.9.4 1.7.8 2.5 1.2.8.4 1.6.9 2.4 1.2.9.3 1.9.6 2.9 1 1.6.5 3.3 1 4.8 1.7 2.2 1.1 4.6 1.8 7 2.4.7.2 1.3.4 2 .6 1.1.4 2.2.9 3.3 1.4 1.5.7 2.9 1.4 4.4 1.7 1 .2 1.5.5 1.6.9.1.7-.9 1.4-2 2.2-2.4 1.6-4.8 3.4-7.2 5.1-3.9 2.8-7.9 5.8-12.2 8.3l-.2.2zm-13-28.4c.1.3.2.5.2.8l.3.9c.5.8 1 1.7 1.5 2.7.3.6.6 1.2 1 1.9.5.9.9 1.9 1.4 3 .3.8.7 1.6 1.1 2.3.4.7.8 1.5 1.1 2.3.3.6.5 1.1.8 1.7 2 3.9 4.1 7.9 5.9 12.1 4.2-2.5 8.1-5.3 11.9-8.1 2.3-1.7 4.7-3.5 7.2-5.1.8-.5 1.9-1.3 1.8-1.6 0-.1-.1-.3-1.2-.5-1.6-.3-3.1-1-4.5-1.8-1.1-.5-2.1-1-3.2-1.4-.6-.2-1.3-.4-2-.6-2.4-.7-4.8-1.3-7-2.4-1.5-.6-3.2-1.2-4.8-1.7-1-.3-2-.6-3-1-.9-.4-1.7-.8-2.5-1.2-.8-.4-1.6-.9-2.4-1.2-.6-.2-1.2-.3-1.8-.5l-1.8-.6z"/><path fill="#F2F2F2" d="M21.4 190.8c-.4 0-.6-.4-.6-1.1-.1-.6-.2-1.3-.3-1.9-.3-2-.6-4-.6-6v-.3h.3c1.4.2 3 .2 4.4.2H26c.4 0 .7 0 1 .1.3 0 .6.1.9.1h3.2l-1.5 1.5c-.5.3-1 .7-1.4 1-.4.3-.6.6-1 1-.3.4-.6.7-1 1-.9.7-1.6 1.4-2.2 2.2-.3.3-.7.6-1 .8-.4.3-.8.6-1.1.9 0 .3-.2.5-.5.5zm-.9-8.7c0 1.9.3 3.8.6 5.6.1.7.2 1.3.3 2 0 .3.1.5.1.6l.2-.2c.3-.4.7-.7 1.2-1 .3-.2.7-.5 1-.8.7-.9 1.4-1.6 2.3-2.3l.9-.9c.3-.4.6-.7 1-1 .3-.3.9-.7 1.4-1.1l.6-.6h-2c-.4 0-.7 0-1-.1-.3 0-.6-.1-.9-.1h-1.4c-1.5.1-3 .1-4.3-.1zm40.1 29.8c-.2 0-.4-.1-.8-.3-.9-.4-1.9-.7-2.9-1.1-1.5-.6-3.1-1.1-4.5-1.9l-.2-.1.1-.2c.5-.9 1.1-1.8 1.6-2.7.5-.9 1.1-1.8 1.6-2.7.2-.3.4-.6.5-.9.2-.3.4-.6.5-.9.3-.9.9-1.6 1.4-2.3.3-.6.7-1.3 1.2-2.1 0-.5.2-.9.4-1.3l.5-.9v1.1c0 .4 0 .7.1 1 0 .3.1.5.1.8v.9c0 .5-.1 1 0 1.5 0 .6.1 1.2.2 1.8.1.6.2 1.2.2 1.8 0 1.2.1 2.3.3 3.6l.1.4c.1.6.1 1.3.1 1.9 0 .6 0 1.1.1 1.7.1.4 0 .7-.1.9h-.5zm-7.6-3.6c1.3.7 2.8 1.2 4.2 1.7 1 .4 2 .7 2.9 1.1.4.3.5.3.5.3s.1-.1 0-.5c-.1-.5-.1-1.1-.1-1.7 0-.6 0-1.2-.1-1.8l-.1-.4c-.2-1.2-.3-2.4-.3-3.7 0-.6-.1-1.1-.2-1.7-.1-.6-.2-1.2-.2-1.8-.1-.6-.1-1.1 0-1.6V197v.1c-.5.7-.9 1.4-1.2 2.1-.6.8-1.1 1.4-1.4 2.3-.2.3-.4.6-.5.9-.2.3-.4.6-.5.9-.5.9-1 1.8-1.6 2.7-.5.7-1 1.5-1.4 2.3zm108.4-8.8c-.3 0-.5-.4-.8-.8-.5-.8-1-1.5-1.4-2.2-1-1.5-2-3-2.8-4.6l-.1-.2.3-.1c1.4-.5 2.8-1.1 4-1.7.3-.1.5-.2.7-.3.2-.1.4-.2.7-.3.3-.2.6-.3.9-.4.3-.1.6-.2.8-.3h.1c.2-.1.5-.2.8-.3.3-.1.5-.3.8-.4.1-.1.3-.1.5-.2.1 0 .3-.1.3-.1l.7-.7-.3 1c-.1.2-.1.3-.1.4-.1.3-.2.6-.4 1-.1.3-.3.6-.5.8-.2.3-.3.5-.4.7-.1.3-.2.5-.3.8-.2.6-.4 1.2-.8 1.7-.3.6-.5 1.2-.7 2-.1.3-.2.6-.3 1-.1.3-.3.6-.4.9-.3.6-.5 1.1-.6 1.7-.2.1-.3.6-.7.6zm-4.5-7.7c.8 1.5 1.7 3 2.6 4.3.5.7 1 1.5 1.5 2.3.1.1.3.4.4.5 0 0 0-.1.1-.2.1-.6.4-1.2.7-1.8.1-.3.3-.6.4-.9l.3-.9c.2-.7.4-1.5.8-2.1.4-.5.5-1 .8-1.6.1-.3.2-.5.3-.8.1-.3.3-.6.5-.8.2-.3.3-.5.4-.7v-.1c.2-.3.3-.5.4-.8-.1 0-.3.1-.4.1-.3.1-.5.2-.8.4-.3.1-.5.3-.8.4-.3.2-.6.3-.9.4-.3.1-.6.2-.8.3h-.1c-.3.1-.5.2-.7.3-.2.1-.5.2-.7.3-1.3.4-2.6.9-4 1.4zM43.3 131.9l14.6-1.6h.2l.2 1.2c.2 1.4-.5 2.5-1.9 3.2l-.7.2-3.3.4 3.2 28.5c0 .2-.5.4-1.4.4-2.1 0-3.2-.9-3.3-2.6l-2.8-25.7-5.3.5-1.6.2c-.4-2.5.4-3.9 1.8-4.4l.3-.3zm22.3-2.3l9.7-1.1c3.5-.4 6.2 1.1 7.9 4.4.4 1.1.7 1.8.7 2.5l2.8 25.3-.2.2h-.4c-2.1.2-3.3-.4-4-1.9-.2-.4-.4-.9-.4-1.8l-.9-7.9-8.6 1.1 1.2 11.6-.2.2-1.2.2c-1.4.2-2.5-.5-3.2-1.9l-.4-1.2-2.8-29.7zm4.8 3.9l1.4 12.3 8.6-1.1-1.1-9.1c-.2-1.6-1.2-2.6-3-2.8h-.9l-5 .7zm22.5-7.1l14.6-1.6.2.2.2 1.2c.2 1.4-.5 2.5-1.9 3.2l-.7.2-3.3.4 3.2 28.5c0 .2-.5.4-1.4.4-2.1 0-3.2-.9-3.3-2.6l-2.8-25.7-5.3.5-1.6.2c-.4-2.5.4-3.9 1.8-4.4l.3-.5zm34.5-3.7l1.1-.2c1.6-.2 2.6.5 3.3 1.9l.4 1.6 2.1 19.4c.5 3.9-.2 6.7-1.9 8.1-1.4 1.4-3.2 2.3-5.5 2.5l-1.1.2c-3 .4-5.5-.7-7.4-3.2-.7-1.2-1.2-2.5-1.4-3.7l-2.6-25 .2-.2 1.4-.2c1.4-.2 2.3.5 3.2 1.9l.2 1.1 2.5 21.5c.2 1.8 1.1 2.8 2.5 3.2l1.6.2c1.8-.2 3.2-.7 3.7-1.6.5-.5.7-1.4.7-2.3l-3-25.2zm15.3-1.7l.9-.2c1.2-.2 2.1.2 2.8.7 1.1-.9 2.3-1.4 3.7-1.6l.9-.2c3.2-.4 5.3 0 6.5 1.2 1.9 1.4 3 3.2 3.2 5.3l.9 7.9c.2 2.1-.4 4-1.6 5.8 1.8 1.2 2.6 3.5 3 6.7l.5 4.8-.2.2-.7.2c-1.8.2-2.8-.4-3.7-1.6l-.4-1.1-.4-3c-.2-1.8-1.1-2.6-2.8-3h-1.2l-4.6.7 1.1 9.5-.2.2-1.4.2c-1.2.2-2.3-.7-3-2.3l-.2-.7-3.1-29.7zm5.3 7.7l1.2 10.6 4.9-.5h.4c.7 0 1.4-.5 2.3-1.2.5-.7.7-2.1.5-3.9l-.7-6c-.2-2.1-1.2-3.2-3.2-3.3H152c-1.9.2-3.2.9-3.7 1.8-.5.6-.5 1.5-.3 2.5zm22.9-11.1l9.7-1.1c3.5-.4 6.2 1.1 7.9 4.4.4 1.1.7 1.8.7 2.5l2.8 25.3-.2.2h-.4c-2.1.2-3.3-.4-4-1.9-.2-.4-.4-.9-.4-1.8l-.9-7.7-8.6 1.1 1.2 11.6-.2.2-1.2.2c-1.4.2-2.5-.5-3.2-1.9l-.4-1.2-2.8-29.9zm4.7 3.9l1.4 12.3 8.6-1.1-1.1-9.1c-.2-1.6-1.2-2.6-3-2.8h-.9l-5 .7zm23.9-6.9c.9-.2 1.6.2 2.5.7.9-.7 2.5-1.2 4.8-1.6 3.9-.4 6.7.7 8.3 3.2.7 1.1 1.1 2.3 1.2 3.5l2.8 25.2-.2.2-1.1.2c-1.8.2-2.8-.5-3.5-2.3l-2.5-21.8c-.2-2.1-.9-3.2-2.1-3.5-.7-.2-1.8-.4-3.2-.2-2.6.4-3.7 1.8-3.3 4.4L206 147l-.2.2-1.1.2c-1.6.2-2.8-.5-3.5-2.1l-.2-.7-3.3-29.6c.2 0 .8-.2 1.8-.4zm27-2.8l9.7-1.1c3.5-.4 6.2 1.1 7.9 4.4.4 1.1.7 1.8.7 2.5l2.8 25.3-.2.2h-.4c-2.1.2-3.3-.4-4-1.9-.2-.4-.4-.9-.4-1.8l-.9-7.7-8.6 1.1 1.2 11.6-.2.2-1.2.2c-1.4.2-2.5-.5-3.2-1.9l-.4-1.2-2.8-29.9zm4.7 3.9l1.4 12.3 8.6-1.1-1.1-9.1c-.2-1.6-1.2-2.6-3-2.8h-.9l-5 .7zm-24.647 36.066l.085.594-2.475.355-.085-.594zM199.8 162.6l-.6-.2c.1-.4.3-.8.4-1.2l.3-.6.6.2c-.1.2-.2.5-.3.7-.1.3-.3.7-.4 1.1z"/><path fill="#F2F2F2" d="M153.8 160.2c.4 0 .5.2.5.5.4-.4.7-.5 1.2-.7h.4c.7 0 1.2.2 1.8.7.2-.5.7-.9 1.6-1.1h.2c.9-.2 1.4.2 1.9.9.2.4.4.7.4 1.2l.5 3.9c-.4 0-.5-.2-.5-.5l-.4-3.2c-.2-1.2-.7-1.8-1.6-1.6h-.4c-.5 0-1.1.4-1.1.9 0 .2-.2.5 0 1.1l.5 3.9c-.2 0-.5-.2-.5-.4v-.2l-.4-3.5c0-.7-.4-1.2-.9-1.4-.2 0-.5-.2-.7 0h-.4c-.5 0-.9.4-1.1.9v.7l.5 4c-.2 0-.5-.2-.5-.5l-1-5.6zm11.6-1.2h.2c.9-.2 1.6.2 1.9 1.1.2.2.2.5.2.9l.2 1.9c.2.9-.2 1.6-1.1 2.1l-.4.2-.9.2c-.5 0-1.1-.2-1.4-.7-.4-.4-.4-.9-.5-1.4v-1.6c-.2-1.1 0-1.8.7-2.3.4-.3.7-.4 1.1-.4zm-1.1 2.3l.2 1.9c.2 1.1.7 1.6 1.6 1.4h.4c.7 0 1.1-.4 1.2-.9v-.7l-.5-2.3c-.2-.9-.7-1.2-1.6-1.2-.7.2-1.2.4-1.2 1.1-.2.1-.2.3-.1.7zm5-5.8c.4 0 .5.2.5.5l.2 1.2.2 1.1 1.8-.2c.7 0 1.4.4 1.8 1.1.2.4.2.5.2 1.1l.2 1.6c.2.7 0 1.2 0 1.4s-.2.4-.5.7c-.4.4-.5.4-.9.5h-.5c-.7 0-1.1 0-1.4-.4 0 .4-.2.5-.5.7l-1.1-9.3zm.8 3.5l.4 3c.2 1.1.4 1.6.9 1.8.2.2.5.2 1.1 0h.2c.5 0 .9-.4 1.1-1.1v-.9l-.2-1.4v-.5c0-.7-.4-1.1-1.1-1.2h-.7l-1.7.3zm5.3-4.2c.4 0 .5.2.7.7v.4c-.2 0-.4 0-.5-.4v-.2l-.2-.5zm.4 2.9c.4 0 .5.2.7.5l.7 5.6c-.2 0-.4-.2-.5-.4v-.2l-.9-5.5zm2.1-3.3c.4 0 .5.2.7.5l.7 6.3c.2.7.4 1.2.9 1.4h.9c.2.2.4.4.4.5h-.7c-.9.2-1.4-.4-1.9-1.2-.2-.2-.2-.5-.2-.9l-.8-6.6zm4.4-.5c.4 0 .7.2.7.7v.4c-.2 0-.4 0-.5-.4v-.2l-.2-.5zm.3 3c.4 0 .5.2.7.5l.7 5.6c-.2 0-.4-.2-.5-.4v-.2l-.9-5.5zm2.7-.4l3.5-.4c.5 0 .7.2.7.5 0 .4-.9 2.1-2.8 5.1l-.2.2 3-.4c.4 0 .5.2.5.5l-3.5.4c-.4 0-.5-.2-.5-.4 0 0 .2-.4.5-1.1l2.5-4.4-3 .4c-.5.1-.7 0-.7-.4zm7.7-.9l2.5-.4.7 6.2c-.4 0-.5-.2-.5-.5-.4.4-.7.7-1.4.7l-2.1.2-.5-4.2c-.2-1.1.4-1.8 1.2-2.1l.1.1zm-.9 2.1l.4 3.7 1.6-.2c.7 0 1.1-.4 1.2-1.1v-.7l-.4-3.3-1.8.2c-.5 0-1.1.4-1.1.9v.5zm7.4-2.9l1.4-.2c.5 0 .7.2.7.4v.2l-2.3.2c-.7 0-1.1.4-1.2 1.1v.7l.2 1.9c.2 1.1.7 1.6 1.6 1.4l1.6-.2c.5 0 .7.2.7.5l-2.3.4c-.7.2-1.4-.2-1.8-1.1-.2-.2-.2-.5-.2-.9l-.2-2.1c-.2-.9.2-1.4.9-1.9.2-.3.6-.3.9-.4zm5.8-.8l2.5-.4.7 6.2c-.4 0-.5-.2-.5-.5-.4.4-.7.7-1.4.7l-2.1.2-.5-4.2c-.2-1.1.4-1.8 1.2-2.1l.1.1zm-.8 2.2l.4 3.7 1.6-.2c.7 0 1.1-.4 1.2-1.1v-.7l-.4-3.3-1.8.2c-.5 0-1.1.4-1.1.9v.5zm7.2-2.9h.2c.9-.2 1.6.2 1.9 1.1.2.2.2.5.2.9l.2 1.9c.2.9-.2 1.6-1.1 2.1l-.4.2-.9.2c-.5 0-1.1-.2-1.4-.7-.2-.4-.4-.9-.5-1.4l-.2-1.6c-.2-1.1 0-1.8.7-2.3.6-.2.9-.4 1.3-.4zm-1.1 2.3l.2 1.9c.2 1.1.7 1.6 1.6 1.4h.4c.7 0 1.1-.4 1.2-.9v-.7l-.2-2.1c-.2-.9-.7-1.2-1.6-1.2-.7.2-1.2.4-1.2 1.1-.6.2-.6.4-.4.5zm9.7-3.3l2.1-.2c0 .4-.2.5-.5.7l-1.8.2c-.5 0-1.1.4-1.2 1.1v.2c0 .4.4.7.9.9h1.2c.5 0 .9.2 1.2.5s.5.7.5.9c0 .5-.2 1.1-.9 1.6-.2.2-.5.2-.5.2l-2.5.4c0-.4.2-.5.5-.5l1.4-.2c.7 0 1.2-.4 1.4-1.1v-.2c0-.4-.4-.7-.9-.9H220c-.5-.2-1.1-.4-1.2-.7-.2-.2-.4-.5-.4-.7v-.2c0-.5.2-1.1.7-1.4.5-.4.7-.4 1.2-.6zm6-.7h.2c.9-.2 1.6.2 1.9 1.1.2.2.2.5.2.9l.2 1.9c.2.9-.2 1.6-1.1 2.1l-.4.2-.9.2c-.5 0-1.1-.2-1.4-.7-.2-.4-.4-.9-.5-1.4l-.2-1.6c-.2-1.1 0-1.8.7-2.3.6-.2.9-.4 1.3-.4zm-1.1 2.3l.2 1.9c.2 1.1.7 1.6 1.6 1.4h.4c.7 0 1.1-.4 1.2-.9v-.7l-.2-2.1c-.2-.9-.7-1.2-1.6-1.2-.7.2-1.2.4-1.2 1.1-.4.1-.4.3-.4.5zm7.4-3l1.4-.2c.5 0 .7.2.7.4v.2l-2.3.2c-.7 0-1.1.4-1.2 1.1v.7l.2 1.9c.2 1.1.7 1.6 1.6 1.4l1.6-.2c.5 0 .7.2.7.5l-2.3.4c-.7.2-1.4-.2-1.8-1.1-.2-.2-.2-.5-.2-.9l-.2-2.1c-.2-.9.2-1.4.9-1.9.2-.2.6-.4.9-.4zm3.7-3.4c.4 0 .5.2.7.7v.4c-.2 0-.4 0-.5-.4v-.2l-.2-.5zm.4 2.9c.4 0 .5.2.7.5l.7 5.6c-.2 0-.4-.2-.5-.4v-.1l-.9-5.6zm4.2-.6l2.5-.4.7 6.2c-.4 0-.5-.2-.5-.5-.4.4-.7.7-1.4.7l-2.2.2-.5-4.2c-.2-1.1.4-1.8 1.2-2.1l.2.1zm-.9 2.1l.4 3.7 1.6-.2c.7 0 1.1-.4 1.2-1.1v-.7l-.4-3.3-1.8.2c-.5 0-1.1.4-1.1.9l.1.5zm4.9-5.4c.4 0 .5.2.7.5l.7 6.3c.2.7.4 1.2.9 1.4h.9c.2.2.4.4.4.5h-.7c-.9.2-1.4-.4-1.9-1.2-.2-.2-.2-.5-.2-.9l-.8-6.6z"/></svg>