<svg xmlns="http://www.w3.org/2000/svg" width="461.994" height="1121.603"><path fill="#FFF" d="M37.341 286.533c.576 4.117-1.352 8.613-1.675 12.764-.251 3.225-.273 6.906.299 10.092 1.472 8.215 6.657 14.238 10.257 21.512 3.53 7.133 6.932 13.959 12.112 20.117 1.988 2.362 4.981 3.988 7.217 6.15 2.991 2.893 5.953 5.426 9.44 7.714 6.562 4.308 13.718 6.95 20.745 10.313 6.275 3.003 13.376 6.8 20.275 8.08 2.336.435 4.714.36 7.049.035 4.326-.605 8.926.186 13.307.196 8.037.019 15.432-4.503 23.398-4.364 1.723.029 1.72-2.642 0-2.672-6.91-.119-13.244 3.481-20.038 4.164-3.997.402-8.565.479-12.528-.244-2.744-.502-5.583.735-8.352.441-7.037-.747-12.344-4.684-18.915-6.766-7.581-2.403-15.355-6.455-22.129-10.584-5.885-3.586-9.956-9.027-15.624-12.676-3.604-2.32-5.839-7.121-8.237-10.584-2.302-3.328-3.753-6.998-5.413-10.67-3.459-7.648-9.148-13.443-10.128-22.185-.464-4.147-.179-8.692.577-12.765.561-3.021 1.371-5.692.939-8.78-.238-1.698-2.813-.971-2.576.712"/><path fill="#FFF" d="M160.993 375.404c-5.037-3.035-11.463-4.021-17.247-4.408-1.72-.115-1.709 2.557 0 2.67 5.27.353 11.336 1.295 15.899 4.045 1.479.892 2.821-1.418 1.348-2.307"/><path fill="#FFF" d="M159.426 375.822c-1.762 2.586-3.357 5.437-4.979 8.121-1.257 2.08-2.651 3.981-3.96 6.006-.938 1.451 1.375 2.789 2.306 1.349 1.31-2.026 2.759-3.879 3.96-6.006.753-1.333 1.694-2.533 2.554-3.795.931-1.366 1.49-2.954 2.425-4.327.974-1.428-1.343-2.762-2.306-1.348"/><path fill="#DF4944" d="M70.313 0c-2.388 9.956-7.95 18.624-10.235 28.198-2.771 11.622-2.723 22.347-6.473 34.454-5.308 17.294-13.487 35.044-16.773 52.154-3.831 19.934-12.426 39.967-20.062 60.584-6.676 18.125-5.949 35.989-14.285 53.455-8.227 17.229 5.472 9.172 19.233.414 56.807-36.244 115.881-68.671 171.54-106.484-19.609-15.756-35.035-34.797-52.835-52.236-5.885-5.749-12.223-11.086-17.643-17.178-7.121-8.004-16.501-14.064-23.144-22.542-5.759-7.394-12.683-13.796-18.863-20.835C77.597 6.351 72.739 4.458 69.895.88"/><path fill="none" stroke="#FFF" stroke-width="2" stroke-linecap="round" stroke-linejoin="round" d="M21.555 96.608c.063.163.129.321.199.476"/><path fill="none" stroke="#FFF" stroke-width="2" stroke-linecap="round" stroke-linejoin="round" stroke-dasharray="1.028,1.028" d="M22.217 98.001c.664 1.197 1.448 2.248 1.956 3.559.834 2.17 1.182 4.399 2.195 6.593 1.448 3.119 3.378 6.088 4.482 9.352 1.29 3.801 3.367 7.205 5.304 10.818 1.699 3.175 2.169 6.951 4.117 9.843 1.924 2.853-.606 2.401-3.171 1.796-10.252-2.406-20.739-3.883-30.875-6.619"/><path fill="none" stroke="#FFF" stroke-width="2" stroke-linecap="round" stroke-linejoin="round" d="M5.73 133.207l-.495-.137.245-.455"/><path fill="none" stroke="#FFF" stroke-width="2" stroke-linecap="round" stroke-linejoin="round" stroke-dasharray="1.05,1.05" d="M5.966 131.682c2.355-4.61 4.14-9.439 6.301-14.176.777-1.716 1.654-3.393 2.354-5.137.908-2.301 2.269-4.396 3.09-6.751.707-2.048 1.646-3.994 2.438-6.011.273-.698.699-1.301 1.056-1.922"/><path fill="none" stroke="#FFF" stroke-width="2" stroke-linecap="round" stroke-linejoin="round" d="M21.45 97.227c.075-.155.143-.312.201-.475m13.297-4.855c.063.163.129.321.199.477"/><path fill="none" stroke="#FFF" stroke-width="2" stroke-linecap="round" stroke-linejoin="round" stroke-dasharray="1.028,1.028" d="M35.611 93.291c.665 1.196 1.448 2.246 1.954 3.557.836 2.172 1.185 4.402 2.2 6.591 1.446 3.123 3.377 6.089 4.478 9.353 1.295 3.805 3.369 7.207 5.304 10.82 1.7 3.176 2.169 6.951 4.116 9.844 1.925 2.852-.606 2.399-3.168 1.795-10.254-2.407-20.738-3.883-30.875-6.62"/><path fill="none" stroke="#FFF" stroke-width="2" stroke-linecap="round" stroke-linejoin="round" d="M19.125 128.494l-.495-.137c.082-.152.164-.303.244-.455"/><path fill="none" stroke="#FFF" stroke-width="2" stroke-linecap="round" stroke-linejoin="round" stroke-dasharray="1.05,1.05" d="M19.361 126.97c2.354-4.607 4.142-9.438 6.299-14.176.78-1.715 1.653-3.39 2.355-5.139.911-2.296 2.27-4.394 3.089-6.75.709-2.043 1.647-3.994 2.441-6.009.271-.697.696-1.299 1.054-1.922"/><path fill="none" stroke="#FFF" stroke-width="2" stroke-linecap="round" stroke-linejoin="round" d="M34.845 92.516a4.8 4.8 0 0 0 .202-.473m83.838-24.925a9.898 9.898 0 0 0-.482-.185"/><path fill="none" stroke="#FFF" stroke-width="2" stroke-linecap="round" stroke-linejoin="round" stroke-dasharray="1.026,1.026" d="M117.42 66.641c-.96-.248-1.904-.414-2.853-.808-1.727-.724-3.234-1.722-5.068-2.365-2.615-.913-5.394-1.5-7.911-2.663-2.937-1.352-6.052-2.095-9.218-3.021-2.78-.814-5.266-2.566-8.01-3.106-2.706-.529-1.104-1.572.608-2.554 6.76-3.879 13.102-8.356 19.984-12.025"/><path fill="none" stroke="#FFF" stroke-width="2" stroke-linecap="round" stroke-linejoin="round" d="M105.406 39.859l.458-.239c.061.159.123.319.186.478"/><path fill="none" stroke="#FFF" stroke-width="2" stroke-linecap="round" stroke-linejoin="round" stroke-dasharray="1.011,1.011" d="M106.43 41.029c1.473 3.514 3.335 6.871 4.957 10.362.609 1.298 1.141 2.625 1.807 3.903.885 1.672 1.411 3.467 2.375 5.124.842 1.438 1.5 2.94 2.278 4.405.231.432.361.883.506 1.32"/><path fill="none" stroke="#FFF" stroke-width="2" stroke-linecap="round" stroke-linejoin="round" d="M118.526 66.627c.064.158.136.314.223.464m-4.134 9.296a9.875 9.875 0 0 0-.482-.184"/><path fill="none" stroke="#FFF" stroke-width="2" stroke-linecap="round" stroke-linejoin="round" stroke-dasharray="1.026,1.026" d="M113.15 75.911c-.96-.248-1.902-.415-2.851-.81-1.731-.723-3.236-1.721-5.07-2.363-2.615-.913-5.394-1.5-7.91-2.663-2.939-1.353-6.054-2.097-9.216-3.021-2.781-.816-5.269-2.568-8.01-3.107-2.708-.53-1.106-1.573.604-2.553 6.762-3.881 13.102-8.357 19.985-12.024"/><path fill="none" stroke="#FFF" stroke-width="2" stroke-linecap="round" stroke-linejoin="round" d="M101.136 49.129l.458-.238.186.478"/><path fill="none" stroke="#FFF" stroke-width="2" stroke-linecap="round" stroke-linejoin="round" stroke-dasharray="1.011,1.011" d="M102.162 50.305c1.472 3.51 3.333 6.869 4.958 10.355.605 1.299 1.137 2.626 1.805 3.904.882 1.67 1.408 3.467 2.373 5.124.84 1.438 1.502 2.94 2.279 4.407.232.431.362.883.508 1.322"/><path fill="none" stroke="#FFF" stroke-width="2" stroke-linecap="round" stroke-linejoin="round" d="M114.256 75.896c.064.159.136.314.221.466m55.436 36.3c-.052.166-.1.331-.145.495"/><path fill="none" stroke="#FFF" stroke-width="2" stroke-linecap="round" stroke-linejoin="round" stroke-dasharray="1.028,1.028" d="M169.538 114.159c-.384 1.974-.378 3.843-.994 5.809-.942 2.975-2.464 5.659-3.229 8.788-1.084 4.455-1.511 9.102-3.092 13.463-1.836 5.087-2.474 10.31-3.445 15.662-.857 4.699-3.566 9.158-3.91 13.732-.334 4.51-2.707 2.176-4.99-.352-9.194-10.168-19.451-19.479-28.214-29.94"/><path fill="none" stroke="#FFF" stroke-width="2" stroke-linecap="round" stroke-linejoin="round" d="M121.335 140.928l-.327-.395c.155-.074.311-.149.465-.225"/><path fill="none" stroke="#FFF" stroke-width="2" stroke-linecap="round" stroke-linejoin="round" stroke-dasharray="1.041,1.041" d="M122.409 139.846c6.723-3.37 12.96-7.464 19.546-11.161 2.312-1.306 4.697-2.495 6.954-3.888 2.951-1.846 6.222-3.141 9.127-5.113 2.518-1.716 5.202-3.154 7.787-4.775 1.019-.643 2.149-1.002 3.177-1.51"/><path fill="none" stroke="#FFF" stroke-width="2" stroke-linecap="round" stroke-linejoin="round" d="M169.456 113.158c.149-.085.296-.174.439-.27m18.643 4.393c-.052.166-.1.33-.144.494"/><path fill="none" stroke="#FFF" stroke-width="2" stroke-linecap="round" stroke-linejoin="round" stroke-dasharray="1.028,1.028" d="M188.163 118.778c-.383 1.974-.377 3.841-.995 5.804-.94 2.98-2.463 5.666-3.224 8.791-1.087 4.459-1.511 9.102-3.095 13.461-1.835 5.092-2.476 10.315-3.447 15.664-.858 4.701-3.567 9.162-3.909 13.731-.336 4.513-2.71 2.179-4.987-.349-9.198-10.17-19.454-19.479-28.213-29.941"/><path fill="none" stroke="#FFF" stroke-width="2" stroke-linecap="round" stroke-linejoin="round" d="M139.965 145.547l-.327-.395c.155-.074.31-.149.465-.226"/><path fill="none" stroke="#FFF" stroke-width="2" stroke-linecap="round" stroke-linejoin="round" stroke-dasharray="1.041,1.041" d="M141.038 144.465c6.718-3.367 12.96-7.465 19.543-11.164 2.313-1.301 4.695-2.492 6.953-3.889 2.95-1.838 6.224-3.136 9.126-5.107 2.518-1.714 5.204-3.157 7.791-4.777 1.015-.643 2.145-1.002 3.175-1.509"/><path fill="none" stroke="#FFF" stroke-width="2" stroke-linecap="round" stroke-linejoin="round" d="M188.083 117.779c.15-.084.296-.174.439-.27m-.159-50.782c-.172.03-.34.066-.504.106"/><path fill="none" stroke="#FFF" stroke-width="2" stroke-linecap="round" stroke-linejoin="round" stroke-dasharray="1.044,1.044" d="M186.856 67.124c-.934.309-1.804.674-2.82.858-1.862.332-3.716.323-5.616.777-2.704.651-5.339 1.656-8.121 2.051-3.242.465-6.249 1.523-9.411 2.459-2.778.82-5.903.717-8.481 1.742-2.54 1.014-1.884-.693-1.099-2.408 3.081-6.761 5.453-13.781 8.762-20.437"/><path fill="none" stroke="#FFF" stroke-width="2" stroke-linecap="round" stroke-linejoin="round" d="M160.304 51.7l.235-.461c.143.095.286.188.43.278"/><path fill="none" stroke="#FFF" stroke-width="2" stroke-linecap="round" stroke-linejoin="round" stroke-dasharray="1.06,1.06" d="M161.868 52.08c3.404 2.082 7.028 3.83 10.539 5.815 1.309.736 2.576 1.534 3.917 2.22 1.769.894 3.32 2.076 5.144 2.914 1.585.726 3.064 1.599 4.614 2.379.466.233.86.537 1.261.822"/><path fill="none" stroke="#FFF" stroke-width="2" stroke-linecap="round" stroke-linejoin="round" d="M187.785 66.529c.145.09.295.174.452.248m2.439 9.792c-.172.031-.34.067-.504.107"/><path fill="none" stroke="#FFF" stroke-width="2" stroke-linecap="round" stroke-linejoin="round" stroke-dasharray="1.044,1.044" d="M189.169 76.969c-.933.31-1.803.674-2.819.857-1.864.335-3.717.322-5.615.781-2.706.648-5.341 1.654-8.121 2.05-3.246.468-6.252 1.522-9.411 2.455-2.781.821-5.906.72-8.48 1.743-2.542 1.015-1.887-.692-1.103-2.406 3.082-6.762 5.453-13.782 8.762-20.436"/><path fill="none" stroke="#FFF" stroke-width="2" stroke-linecap="round" stroke-linejoin="round" d="M162.617 61.547l.235-.461c.143.094.286.186.43.277"/><path fill="none" stroke="#FFF" stroke-width="2" stroke-linecap="round" stroke-linejoin="round" stroke-dasharray="1.06,1.06" d="M164.181 61.925c3.403 2.082 7.028 3.832 10.542 5.815 1.307.736 2.572 1.534 3.916 2.221 1.764.893 3.316 2.078 5.141 2.914 1.584.725 3.065 1.598 4.617 2.38.464.231.858.535 1.257.82"/><path fill="none" stroke="#FFF" stroke-width="2" stroke-linecap="round" stroke-linejoin="round" d="M190.096 76.374c.145.091.294.175.451.249M87.6 115.142a7.62 7.62 0 0 0 .514-.037"/><path fill="none" stroke="#FFF" stroke-width="2" stroke-linecap="round" stroke-linejoin="round" stroke-dasharray="1.033,1.033" d="M89.137 114.938c.521-.1 1.036-.201 1.598-.22 1.324-.039 2.601.158 3.965.04 1.943-.172 3.883-.595 5.848-.581 2.293.011 4.493-.41 6.787-.731 2.014-.279 4.157.111 6.057-.332 1.873-.437 1.216.674.47 1.773-2.882 4.266-5.323 8.773-8.323 12.953"/><path fill="none" stroke="#FFF" stroke-width="2" stroke-linecap="round" stroke-linejoin="round" d="M105.235 128.258l-.307.416c-.127-.114-.254-.229-.383-.342"/><path fill="none" stroke="#FFF" stroke-width="2" stroke-linecap="round" stroke-linejoin="round" stroke-dasharray="0.995,0.995" d="M103.789 127.687c-2.008-1.675-4.175-3.179-6.246-4.819-.815-.642-1.591-1.322-2.433-1.933-1.114-.796-2.041-1.773-3.199-2.538-1.008-.663-1.921-1.417-2.897-2.113a4.507 4.507 0 0 1-.561-.49"/><path fill="none" stroke="#FFF" stroke-width="2" stroke-linecap="round" stroke-linejoin="round" d="M88.094 115.441a3.212 3.212 0 0 0-.401-.322m-.507-7.006c.176-.006.347-.019.514-.037"/><path fill="none" stroke="#FFF" stroke-width="2" stroke-linecap="round" stroke-linejoin="round" stroke-dasharray="1.033,1.033" d="M88.724 107.911c.521-.101 1.035-.201 1.598-.218 1.324-.041 2.602.156 3.966.037 1.945-.17 3.882-.594 5.848-.582 2.293.011 4.493-.407 6.785-.728 2.015-.281 4.158.11 6.057-.333 1.875-.438 1.217.673.471 1.773-2.882 4.265-5.321 8.771-8.323 12.951"/><path fill="none" stroke="#FFF" stroke-width="2" stroke-linecap="round" stroke-linejoin="round" d="M104.823 121.231l-.307.416-.382-.341"/><path fill="none" stroke="#FFF" stroke-width="2" stroke-linecap="round" stroke-linejoin="round" stroke-dasharray="0.995,0.995" d="M103.377 120.66c-2.008-1.674-4.175-3.18-6.249-4.819-.811-.643-1.587-1.321-2.433-1.932-1.11-.798-2.038-1.774-3.196-2.539-1.004-.661-1.921-1.416-2.897-2.115a4.43 4.43 0 0 1-.562-.489"/><path fill="none" stroke="#FFF" stroke-width="2" stroke-linecap="round" stroke-linejoin="round" d="M87.682 108.415a3.224 3.224 0 0 0-.4-.325m-41.521 54.859c.146.102.294.188.442.266"/><path fill="none" stroke="#FFF" stroke-width="2" stroke-linecap="round" stroke-linejoin="round" stroke-dasharray="1.027,1.027" d="M47.126 163.668c.119.064.237.135.353.215.665.465 1.207 1.025 1.928 1.465 1.024.625 2.157 1.122 3.114 1.844 1.12.84 2.377 1.435 3.637 2.113 1.108.596 1.992 1.569 3.112 2.043 1.105.469.309.774-.527 1.041-3.119 1.006-6.135 2.27-9.268 3.217"/><path fill="none" stroke="#FFF" stroke-width="2" stroke-linecap="round" stroke-linejoin="round" d="M48.981 175.753l-.497.142c-.022-.17-.046-.34-.072-.509"/><path fill="none" stroke="#FFF" stroke-width="2" stroke-linecap="round" stroke-linejoin="round" stroke-dasharray="1.106,1.106" d="M48.217 174.301c-.263-1.314-.607-2.618-.875-3.943-.127-.61-.217-1.228-.368-1.834-.207-.796-.247-1.611-.487-2.408-.21-.686-.336-1.385-.517-2.077"/><path fill="none" stroke="#FFF" stroke-width="2" stroke-linecap="round" stroke-linejoin="round" d="M45.894 163.482a2.408 2.408 0 0 0-.077-.509m2.738-3.619c.146.101.294.187.442.265"/><path fill="none" stroke="#FFF" stroke-width="2" stroke-linecap="round" stroke-linejoin="round" stroke-dasharray="1.027,1.027" d="M49.919 160.073c.119.065.237.136.353.216.667.465 1.21 1.026 1.929 1.463 1.026.625 2.156 1.123 3.113 1.845 1.12.841 2.377 1.435 3.637 2.114 1.108.595 1.992 1.567 3.112 2.043 1.105.468.31.771-.525 1.039-3.121 1.006-6.134 2.271-9.267 3.219"/><path fill="none" stroke="#FFF" stroke-width="2" stroke-linecap="round" stroke-linejoin="round" d="M51.777 172.158c-.165.048-.331.096-.497.141-.022-.17-.046-.339-.073-.508"/><path fill="none" stroke="#FFF" stroke-width="2" stroke-linecap="round" stroke-linejoin="round" stroke-dasharray="1.106,1.106" d="M51.012 170.706c-.263-1.315-.608-2.618-.878-3.944-.124-.61-.215-1.225-.369-1.832-.204-.795-.243-1.611-.483-2.408-.211-.687-.337-1.387-.516-2.079"/><path fill="none" stroke="#FFF" stroke-width="2" stroke-linecap="round" stroke-linejoin="round" d="M48.689 159.888a2.407 2.407 0 0 0-.076-.509M37.515 47.999c-.176.05-.33.116-.48.187"/><path fill="none" stroke="#FFF" stroke-width="2" stroke-linecap="round" stroke-linejoin="round" stroke-dasharray="1.029,1.029" d="M36.064 48.512c-.339.07-.681.123-1.023.24-.67.229-1.313.546-2.01.713-.813.195-1.548.535-2.327.847-.684.275-1.482.321-2.109.645-.619.317-.5-.134-.347-.587.516-1.551.892-3.137 1.409-4.682"/><path fill="none" stroke="#FFF" stroke-width="2" stroke-linecap="round" stroke-linejoin="round" d="M29.826 45.199c.058-.162.118-.323.18-.484.152.08.304.156.459.23"/><path fill="none" stroke="#FFF" stroke-width="2" stroke-linecap="round" stroke-linejoin="round" stroke-dasharray="1.021,1.021" d="M31.393 45.361c.603.257 1.215.5 1.818.769.354.154.698.329 1.058.472.474.186.902.449 1.389.619.305.107.599.234.896.357"/><path fill="none" stroke="#FFF" stroke-width="2" stroke-linecap="round" stroke-linejoin="round" d="M37.03 47.778c.155.08.293.18.453.237m.892 2.434c-.176.05-.33.117-.48.187"/><path fill="none" stroke="#FFF" stroke-width="2" stroke-linecap="round" stroke-linejoin="round" stroke-dasharray="1.029,1.029" d="M36.924 50.962c-.34.07-.682.124-1.022.24-.672.229-1.314.548-2.011.714-.812.195-1.549.534-2.326.846-.685.276-1.483.323-2.11.645-.619.318-.499-.131-.346-.586.516-1.551.892-3.137 1.408-4.683"/><path fill="none" stroke="#FFF" stroke-width="2" stroke-linecap="round" stroke-linejoin="round" d="M30.687 47.649c.058-.162.118-.323.18-.483.151.078.304.155.458.229"/><path fill="none" stroke="#FFF" stroke-width="2" stroke-linecap="round" stroke-linejoin="round" stroke-dasharray="1.021,1.021" d="M32.253 47.812c.603.257 1.216.5 1.82.768.351.157.695.329 1.057.472.472.186.9.451 1.389.621.304.107.598.232.895.355"/><path fill="none" stroke="#FFF" stroke-width="2" stroke-linecap="round" stroke-linejoin="round" d="M37.891 50.229c.154.08.291.18.454.237"/><text transform="translate(69.249 220.955)" fill="#FFF" font-family="'Roboto-Regular'" font-size="18">mobiliza localmente</text><path fill="#DF4944" d="M230.689 520.604c8.768-3.56 19.384-4.778 27.818-8.216 10.239-4.171 17.472-9.421 28.869-13.324 16.231-5.563 35.204-9.793 49.605-16.371 16.765-7.656 37.673-12.789 58.134-18.724 17.976-5.22 29.461-14.339 48.387-18.349 18.686-3.959 1.544-7.471-16.119-10.651-73.003-13.155-145.325-29.397-218.396-41.164 6.054 18.361 6.309 36.052 9.693 54.252 1.118 6.009 2.918 12.056 3.407 17.982.64 7.778 4.549 15.838 4.456 23.581-.073 6.738 1.487 13.654 1.968 20.429.262 3.506 3.125 7.067 3.133 10.364"/><path fill="none" stroke="#FFF" stroke-width="2" stroke-miterlimit="10" d="M225.86 409.369c-2.955-9.141-1.91-25.684 5.398-32.877 4.897-4.826 13.696-8.904 20.649-6.691 7.006 2.229 11.371 11.336 13.51 17.877 3.709 11.355-1.487 20.709-9.077 29.061-2.544 2.799-5.48 5.199-7.708 8.312-1.317 1.842-4.745 5.977-5.549 7.945-.525-.531-14.707-15.83-17.223-23.627z"/><path fill="none" stroke="#FFF" stroke-width="2" stroke-miterlimit="10" d="M236.403 388.094c-1.332 6.816 3.947 9.404 9.389 9.43 15.709.068 7.832-15.402 1.369-16.283-6.094-.829-9.767 1.782-10.758 6.853zm73.317-33.387c-2.119-6.553-1.371-18.414 3.869-23.57 3.509-3.459 9.82-6.385 14.804-4.799 5.022 1.598 8.153 8.129 9.686 12.818 2.658 8.141-1.067 14.846-6.508 20.836-1.824 2.006-3.928 3.727-5.525 5.957-.946 1.322-3.403 4.287-3.979 5.699-.377-.382-10.544-11.349-12.347-16.941z"/><path fill="none" stroke="#FFF" stroke-width="2" stroke-miterlimit="10" d="M317.278 339.455c-.953 4.887 2.83 6.742 6.732 6.758 11.262.051 5.614-11.039.979-11.672-4.369-.596-7.002 1.279-7.711 4.914zm54.744 70.172c-2.338-7.242-1.512-20.346 4.279-26.045 3.879-3.822 10.848-7.053 16.356-5.301 5.55 1.766 9.006 8.979 10.701 14.16 2.939 8.996-1.176 16.406-7.189 23.023-2.016 2.215-4.34 4.119-6.106 6.586-1.045 1.457-3.758 4.732-4.395 6.293-.418-.421-11.65-12.538-13.646-18.716z"/><path fill="none" stroke="#FFF" stroke-width="2" stroke-miterlimit="10" d="M380.375 392.773c-1.055 5.4 3.127 7.449 7.439 7.467 12.444.055 6.204-12.197 1.083-12.896-4.828-.658-7.736 1.412-8.522 5.429zm-153.149 49.415c4.494 2.049 9.316 5.768 14.129 6.861 7.641 1.734 15.346-6.775 20.685-11.465 6.993-6.143 13.11-8.127 18.407-15.703 6.043-8.641 15.66-9.834 23.138-17.182 7.174-7.043 14.83-22.709 26.691-15.414 10.862 6.68 18.307 19.889 28.072 28.18 12.395 10.525 14.137 16.777 24.585 29.037"/><path fill="none" stroke="#FFF" stroke-width="2" stroke-miterlimit="10" d="M236.212 448.195c-.918 4.715 2.73 6.506 6.498 6.522 10.869.048 5.42-10.655.945-11.267-4.214-.571-6.756 1.236-7.443 4.745zm81.445-62.441c-1.297 4.051 1.729 6.002 5.039 6.402 9.551 1.162 5.863-8.811 1.99-9.807-3.646-.937-6.066.389-7.029 3.405zm63.886 59.459c-.611 3.131 1.811 4.32 4.312 4.33 7.217.033 3.598-7.074.627-7.479-2.795-.38-4.485.821-4.939 3.149z"/><text transform="translate(199.192 487.97)"><tspan x="0" y="0" fill="#FFF" font-family="'Roboto-Regular'" font-size="18">a</tspan><tspan x="9.896" y="0" fill="#FFF" font-family="'Roboto-Regular'" font-size="18">r</tspan><tspan x="16.21" y="0" fill="#FFF" font-family="'Roboto-Regular'" font-size="18">ticula a exibição em espaços</tspan></text><text transform="translate(193.702 519.974)"><tspan x="0" y="0" fill="#FFF" font-family="'Roboto-Regular'" font-size="18">públicos ou de inte</tspan><tspan x="153.097" y="0" fill="#FFF" font-family="'Roboto-Regular'" font-size="18">r</tspan><tspan x="159.159" y="0" fill="#FFF" font-family="'Roboto-Regular'" font-size="18">esse público</tspan></text><path fill="#DF4944" d="M177.641 636.843c-4.011 6.417-9.265 10.399-13.132 16.561-4.683 7.493-7.731 15.604-13.042 23.025-7.577 10.602-16.698 20.25-23.211 31.618-7.599 13.28-17.607 24.464-27.273 36.502-8.498 10.612-13.228 24.416-22.366 33.75-9.003 9.229.124 9.448 9.501 9.151 38.7-1.26 77.436 1.385 115.994-1.575-5.305-20.892-7.587-42.312-11.527-63.674-1.283-7.018-2.923-13.952-3.916-21.035-1.259-9.3-4.243-18.177-5.139-27.636-.779-8.213-2.401-16.223-3.495-24.369-.539-4.195-2.43-7.856-2.858-11.842"/><path fill="none" stroke="#F2F2F2" stroke-width="2" stroke-miterlimit="10" d="M82.36 621.555c5.929 2.792 12.55 3.068 18.26 5.771 6.928 3.276 12.234 7.917 19.818 10.824 10.792 4.142 23.001 6.698 32.873 12.024 11.492 6.199 25.031 9.493 38.446 13.625 11.784 3.643 20.357 11.796 32.495 14.133 11.986 2.303 2.281 7.383-7.799 12.178-41.656 19.834-82.345 42.717-124.289 61.155.334-19.044-2.704-36.89-3.946-55.536-.418-6.154-.421-12.402-1.197-18.423-1.02-7.891-.114-16.367-1.569-24.159-1.265-6.786-1.568-13.893-2.505-20.761-.469-3.56.613-7.404.022-10.724"/><path fill="none" stroke="#F2F2F2" stroke-width="2" stroke-miterlimit="10" d="M90.628 607.5c6.044 2.744 12.812 2.951 18.624 5.61 7.056 3.222 12.456 7.814 20.183 10.648 10.999 4.056 23.456 6.494 33.512 11.741 11.702 6.1 25.515 9.273 39.188 13.282 12.027 3.535 20.73 11.628 33.119 13.847 12.23 2.194 2.281 7.389-8.046 12.296-42.678 20.303-84.39 43.648-127.357 62.558.455-19.101-2.533-36.97-3.697-55.648-.379-6.17-.348-12.445-1.098-18.467-.992-7.91-.022-16.418-1.456-24.218-1.247-6.787-1.519-13.914-2.43-20.795-.468-3.558.664-7.432.082-10.753"/><text transform="translate(136.843 769.205)"><tspan x="0" y="0" fill="#FFF" font-family="'Roboto-Regular'" font-size="18">r</tspan><tspan x="6.008" y="0" fill="#FFF" font-family="'Roboto-Regular'" font-size="18">ealiza a sessão/atividade</tspan></text><path fill="#FFF" d="M420.819 574.294c6.868 14.974 2.27 31.779-4.406 45.88-3.41 7.203-8.984 12.05-14.013 18.018-4.174 4.952-7.703 10.426-11.166 15.884-7.642 12.044-15.123 24.248-27.384 32.14-6.66 4.286-14.254 6.69-21.492 9.765-3.215 1.365-6.432 2.81-9.481 4.517-4.253 2.381-9.015 2.33-13.655 3.385-1.821.413-1.048 3.204.77 2.791 3.811-.865 8.115-.749 11.71-2.379 3.597-1.631 7.122-3.434 10.674-5.162 8.057-3.922 16.518-6.286 24.129-11.185 12.51-8.052 20.183-21.305 27.956-33.555 4.085-6.438 8.409-12.693 13.641-18.263 5.527-5.886 9.655-11.414 12.819-18.953 5.889-14.035 9.012-29.923 2.398-44.343-.778-1.697-3.273-.225-2.5 1.46"/><path fill="#FFF" d="M320.42 705.518c2.938-3.821 6.304-7.521 8.489-11.848.84-1.661-1.658-3.128-2.5-1.461-2.179 4.314-5.559 8.037-8.489 11.848-1.138 1.479 1.379 2.919 2.5 1.461"/><path fill="#FFF" d="M318.44 706.037c3.012 1.459 6.022 2.889 9.007 4.403 2.508 1.274 5.321 1.856 7.832 3.126 1.661.842 3.127-1.656 1.461-2.5-1.951-.986-4.025-1.679-6.079-2.426-3.669-1.337-7.236-3.396-10.76-5.104-1.672-.809-3.141 1.687-1.461 2.501"/><path fill="#DF4944" d="M461.912 972.232c-8.737 2.08-16.376 1.097-24.788 3.104-10.209 2.433-19.607 6.748-30.256 8.619-15.187 2.653-30.808 3.242-45.825 7.456-17.507 4.906-35.14 6.062-53.263 8.228-15.941 1.902-31.592 9.625-46.953 9.951-15.18.331-8.017 8.053-.222 15.521 32.185 30.871 61.041 65.06 94.596 94.383 13.67-21.963 30.244-41.893 45.404-63.096 4.993-6.982 9.621-14.181 14.933-20.947 6.961-8.881 12.208-18.802 19.589-27.491 6.423-7.545 11.999-15.657 18.124-23.387 3.157-3.991 4.783-8.632 7.889-12.331"/><path fill="none" stroke="#DF4944" stroke-width=".709" stroke-miterlimit="10" d="M461.912 972.232c-8.737 2.08-16.376 1.097-24.788 3.104-10.209 2.433-19.607 6.748-30.256 8.619-15.187 2.653-30.808 3.242-45.825 7.456-17.507 4.906-35.14 6.062-53.263 8.228-15.941 1.902-31.592 9.625-46.953 9.951-15.18.331-8.017 8.053-.222 15.521 32.185 30.871 61.041 65.06 94.596 94.383 13.67-21.963 30.244-41.893 45.404-63.096 4.993-6.982 9.621-14.181 14.933-20.947 6.961-8.881 12.208-18.802 19.589-27.491 6.423-7.545 11.999-15.657 18.124-23.387 3.157-3.991 4.783-8.632 7.889-12.331"/><path fill="none" stroke="#FFF" stroke-width="1.558" stroke-miterlimit="10" d="M312.489 880.65c-3.014 1.944-4.54 5.503-6.029 8.503-2.492 5.008-4.46 10.061-6.574 15.294-6.315 15.627-3.931 32.975-1.852 49.391 1.084 8.562 3.2 17.047 5.136 25.527.811 3.551.891 6.944 1.691 10.451.996 4.353 3.508 7.12 5.78 10.797 4.095 6.621 7.047 13.931 10.904 20.622 1.646 2.853 2.873 6.27 4.995 8.791 2.043 2.435 5.841 4.575 8.354 6.359 5.214 3.71 7.521 6.839 13.466 9.752 5.346 2.619 14.804 1.046 18.951-2.788 1.845-1.708 7.346-8.501 9.078-10.603 3.343-4.05 5.551-11.108 7.254-16.047 1.032-2.993 1.95-5.739 2.469-8.843.447-2.666.76-5.781 1.372-8.414 1.544-6.648-1.354-13.268-1.104-19.878.499-13.262-4.116-26.51-5.848-39.615-.88-6.668-1.793-13.591-4.723-19.652-2.832-5.865-7.172-10.62-10.01-16.33-5.551-11.152-17.997-21.749-29.178-26.626-4.426-1.932-8.666-3.223-13.276-2.866-2.727.212-8.301 4.525-10.856 6.175z"/><path fill="none" stroke="#FFF" stroke-width="1.558" stroke-miterlimit="10" d="M304.825 1036.483c12.421-.27 23.212-8.385 33.143-15.109 5.351-3.621 9.729-6.943 14.221-11.444 3.864-3.87 8.523-6.04 13.014-8.859 4.94-3.101 8.114-7.903 10.699-12.962 3.472-6.789 7.714-13.322 11.022-20.206 6.427-13.366 12.103-27.1 15.147-41.834 2.7-13.073 2.462-25.06-6.343-35.31-4.423-5.154-11.169-7.193-18.467-5.479-5.345 1.256-10.306 1.292-16.823 3.021-6.439 1.705-12.294 7.448-18.037 10.639-6.032 3.354-11.752 9.287-17.541 12.763-6.911 4.149-10.108 9.877-14.148 16.788-4.652 7.961-11.497 14.358-15.619 22.375-7.339 14.276-16.345 27.924-15.157 44.842.319 4.593.961 7.299.72 11.926-.196 3.785-.124 9.909 2.084 13.83 3.315 5.885 14.748 15.179 22.085 15.019z"/><path fill="none" stroke="#FFF" stroke-width="1.558" stroke-miterlimit="10" d="M265.057 924.282c-.755 3.508.68 7.102 1.748 10.275 1.78 5.302 3.961 10.268 6.166 15.463 6.586 15.513 20.537 26.095 33.616 36.234 6.82 5.288 14.314 9.791 21.681 14.419 3.084 1.937 5.542 4.279 8.587 6.192 3.782 2.375 7.517 2.558 11.723 3.549 7.578 1.786 14.833 4.868 22.291 6.87 3.181.854 6.464 2.404 9.75 2.687 3.165.274 7.362-.895 10.403-1.409 6.31-1.066 10.153-.481 16.418-2.626 5.63-1.928 11.206-9.729 11.425-15.371.098-2.516-.813-11.207-1.076-13.919-.499-5.228-3.927-11.78-6.216-16.477-1.388-2.848-2.68-5.437-4.507-7.999-1.571-2.199-3.55-4.626-4.982-6.92-3.607-5.791-10.336-8.424-14.835-13.273-9.025-9.729-21.657-15.837-32.145-23.879-5.341-4.093-10.88-8.34-17.238-10.557-6.151-2.143-12.581-2.439-18.627-4.465-11.809-3.961-28.102-2.655-39.457 1.801-4.497 1.763-8.408 3.851-11.414 7.36-1.783 2.08-2.67 9.07-3.311 12.045z"/><path fill="none" stroke="#FFF" stroke-width="1.558" stroke-miterlimit="10" d="M264.994 997.55c9.893 7.514 23.386 7.872 35.349 8.784 6.442.491 11.938.613 18.253-.116 5.433-.625 10.432.572 15.699 1.156 5.799.645 11.27-1.143 16.442-3.493 6.94-3.157 14.325-5.635 21.198-8.968 13.344-6.472 26.334-13.691 37.88-23.334 10.243-8.561 17.515-18.093 16.997-31.596-.259-6.788-4.27-12.579-11.057-15.776-4.963-2.34-8.87-5.398-15.049-8.1-6.101-2.668-14.257-1.812-20.738-2.889-6.809-1.124-14.98-.036-21.674-.915-7.993-1.048-14.06 1.446-21.522 4.346-8.594 3.34-17.931 4.093-26.146 7.806-14.627 6.613-30.168 11.699-39.762 25.681-2.605 3.8-3.784 6.319-6.851 9.793-2.506 2.838-6.264 7.677-6.971 12.122-1.066 6.67 2.105 21.06 7.952 25.499z"/><path fill="none" stroke="#FFF" stroke-width="1.558" stroke-miterlimit="10" d="M342.2 945.271c-14.471 4.877-14.99 17.177-7.233 26.723 9.709 11.953 31.603-.824 22.187-20.224-3.208-6.607-10.287-8.069-14.954-6.499zm6.965-65.591c-4.061 1.367-4.208 4.817-2.029 7.501 2.725 3.353 8.872-.234 6.226-5.681-.898-1.853-2.886-2.263-4.197-1.82zM264.4 925.554c-4.061 1.367-4.209 4.821-2.029 7.501 2.725 3.354 8.869-.233 6.226-5.678-.9-1.856-2.888-2.265-4.197-1.823zm15.328 58.441c-4.061 1.37-4.209 4.82-2.029 7.501 2.725 3.355 8.869-.232 6.226-5.675-.902-1.855-2.887-2.266-4.197-1.826zm97.682-4.796c-4.061 1.367-4.208 4.821-2.029 7.498 2.725 3.355 8.87-.231 6.226-5.675-.899-1.857-2.887-2.265-4.197-1.823zm-33.712 58.838c-4.063 1.369-4.208 4.819-2.031 7.5 2.727 3.355 8.872-.231 6.228-5.677-.9-1.853-2.889-2.263-4.197-1.823zm73.819-116.571c-4.063 1.37-4.209 4.821-2.031 7.501 2.725 3.354 8.872-.232 6.228-5.678-.901-1.855-2.889-2.266-4.197-1.823zm-12.721 34.109c-4.063 1.367-4.209 4.82-2.032 7.501 2.728 3.353 8.873-.234 6.229-5.678-.9-1.855-2.889-2.265-4.197-1.823z"/><text transform="translate(167.734 1084.72)"><tspan x="0" y="0" fill="#FFF" font-family="'Roboto-Regular'" font-size="18">conecta o ponto local à </tspan><tspan x="193.597" y="0" fill="#FFF" font-family="'Roboto-Regular'" font-size="18">r</tspan><tspan x="199.641" y="0" fill="#FFF" font-family="'Roboto-Regular'" font-size="18">ede gerada</tspan></text><text transform="translate(163 1116.725)"><tspan x="0" y="0" fill="#FFF" font-family="'Roboto-Regular'" font-size="18">em torno da obra audi</tspan><tspan x="177.776" y="0" fill="#FFF" font-family="'Roboto-Regular'" font-size="18">o</tspan><tspan x="187.899" y="0" fill="#FFF" font-family="'Roboto-Regular'" font-size="18">visual exibida</tspan></text><path fill="#FFFCFF" d="M189.107 949.458c-12.448 1.613-24.516-5.211-34.438-12.009-5.433-3.722-10.905-7.526-16.115-11.555-4.784-3.7-8.571-8.541-12.371-13.198-8.399-10.293-16.224-20.478-23.326-31.742a64.287 64.287 0 0 0-4.084-5.759c-2.647-3.325-3.712-7.432-5.097-11.373-1.169-3.33-3.157-6.523-3.511-10.086-.256-2.569-.552-5.307-.45-7.893.062-1.589-2.402-1.583-2.464 0-.221 5.614.78 10.627 2.923 15.758 1.262 3.02 2.218 6.149 3.36 9.214 1.226 3.29 3.213 5.632 5.247 8.446 4.122 5.703 7.655 11.863 11.606 17.689 3.903 5.754 8.603 10.738 12.954 16.129 4.163 5.157 8.306 10.36 13.471 14.556 5.264 4.275 11.043 8.076 16.614 11.94 10.214 7.085 22.831 14.011 35.681 12.346 1.553-.201 1.572-2.667 0-2.463"/><path fill="#FFFCFF" d="M188.801 951.078c-2.949 4.19-8.007 6.437-11.203 10.469-.975 1.231.756 2.987 1.742 1.742 3.339-4.213 8.491-6.566 11.588-10.968.917-1.302-1.22-2.531-2.127-1.243"/><path fill="#FFFCFF" d="M190.383 950.152c-1.938-2.358-3.937-4.68-6.066-6.868-1.016-1.044-2.184-1.914-3.329-2.81-1.569-1.225-2.708-2.848-4.209-4.14-1.198-1.031-2.948.703-1.742 1.742 1.345 1.157 2.391 2.589 3.737 3.748 1.137.979 2.353 1.847 3.46 2.863 2.346 2.156 4.389 4.751 6.407 7.206 1.009 1.23 2.742-.523 1.742-1.741"/></svg>