<svg xmlns="http://www.w3.org/2000/svg" width="29.166" height="25"><path fill="#DF4944" d="M28.361.461a11.582 11.582 0 0 1-3.801 1.534C23.471.769 21.916 0 20.193 0c-3.303 0-5.982 2.826-5.982 6.313 0 .494.053.975.154 1.438-4.972-.264-9.381-2.775-12.334-6.595a6.57 6.57 0 0 0-.81 3.174c0 2.188 1.059 4.12 2.664 5.251a5.714 5.714 0 0 1-2.711-.789v.08c0 3.057 2.062 5.607 4.801 6.189a5.713 5.713 0 0 1-2.703.108c.762 2.507 2.971 4.332 5.59 4.384-2.049 1.692-4.627 2.702-7.434 2.702-.484 0-.959-.029-1.428-.088C2.65 23.957 5.797 25 9.174 25c11.008 0 17.023-9.615 17.023-17.956 0-.271-.004-.547-.016-.816a12.526 12.526 0 0 0 2.984-3.268 11.418 11.418 0 0 1-3.436.994A6.268 6.268 0 0 0 28.361.461"/></svg>