<svg xmlns="http://www.w3.org/2000/svg" width="173.167" height="176"><path fill="none" stroke="#DF4944" stroke-width="2" stroke-miterlimit="10" d="M57.049 7.878c-3.016 1.946-4.541 5.504-6.031 8.503-2.49 5.008-4.459 10.061-6.573 15.295-6.314 15.628-3.931 32.978-1.853 49.396 1.084 8.562 3.199 17.048 5.137 25.531.811 3.549.891 6.941 1.691 10.448.995 4.354 3.508 7.123 5.781 10.8 4.095 6.623 7.047 13.935 10.904 20.623 1.645 2.854 2.873 6.271 4.994 8.795 2.045 2.434 5.844 4.572 8.354 6.358 5.216 3.711 7.522 6.84 13.47 9.754 5.344 2.618 14.805 1.045 18.949-2.79 1.848-1.708 7.35-8.502 9.082-10.604 3.342-4.051 5.553-11.108 7.254-16.049 1.033-2.996 1.951-5.737 2.471-8.844.445-2.668.76-5.783 1.371-8.416 1.543-6.646-1.354-13.269-1.104-19.88.499-13.263-4.116-26.513-5.847-39.618-.881-6.67-1.795-13.592-4.725-19.655-2.834-5.865-7.172-10.621-10.014-16.329-5.553-11.154-17.998-21.753-29.18-26.632-4.428-1.931-8.668-3.222-13.277-2.865-2.725.214-8.297 4.528-10.854 6.179z"/><path fill="none" stroke="#DF4944" stroke-width="2" stroke-miterlimit="10" d="M49.385 163.725c12.422-.27 23.211-8.384 33.146-15.107 5.352-3.622 9.729-6.945 14.223-11.446 3.863-3.87 8.523-6.041 13.014-8.856 4.939-3.104 8.113-7.906 10.703-12.965 3.472-6.789 7.715-13.322 11.021-20.207 6.424-13.371 12.104-27.104 15.146-41.841 2.699-13.074 2.463-25.062-6.342-35.312-4.426-5.155-11.17-7.195-18.471-5.479-5.347 1.257-10.309 1.292-16.826 3.021-6.439 1.705-12.293 7.449-18.037 10.64-6.033 3.353-11.754 9.288-17.545 12.764-6.91 4.149-10.109 9.879-14.148 16.791-4.653 7.962-11.498 14.358-15.62 22.376-7.341 14.277-16.349 27.927-15.161 44.846.322 4.595.963 7.302.723 11.929-.197 3.784-.125 9.91 2.082 13.831 3.32 5.879 14.754 15.174 22.092 15.015z"/><path fill="none" stroke="#DF4944" stroke-width="2" stroke-miterlimit="10" d="M9.612 51.514c-.755 3.507.682 7.103 1.748 10.276 1.779 5.302 3.961 10.268 6.166 15.464 6.587 15.516 20.54 26.1 33.619 36.239 6.822 5.288 14.316 9.791 21.685 14.42 3.083 1.937 5.541 4.278 8.587 6.192 3.782 2.375 7.518 2.558 11.723 3.547 7.58 1.787 14.836 4.869 22.293 6.873 3.184.854 6.467 2.404 9.752 2.688 3.166.273 7.363-.896 10.404-1.41 6.312-1.063 10.154-.479 16.42-2.627 5.631-1.928 11.209-9.729 11.429-15.373.099-2.513-.817-11.208-1.077-13.92-.501-5.227-3.93-11.781-6.219-16.478-1.387-2.849-2.678-5.438-4.506-7.998-1.571-2.201-3.553-4.627-4.981-6.922-3.61-5.793-10.339-8.426-14.839-13.275-9.025-9.731-21.658-15.837-32.148-23.88-5.34-4.093-10.879-8.341-17.236-10.559-6.151-2.144-12.582-2.438-18.629-4.467-11.811-3.962-28.104-2.655-39.461 1.802-4.498 1.766-8.408 3.851-11.416 7.362-1.785 2.079-2.674 9.071-3.314 12.046z"/><path fill="none" stroke="#DF4944" stroke-width="2" stroke-miterlimit="10" d="M9.548 124.789c9.894 7.516 23.39 7.873 35.353 8.785 6.442.492 11.938.613 18.256-.116 5.433-.627 10.431.571 15.699 1.157 5.799.644 11.272-1.146 16.442-3.495 6.94-3.156 14.328-5.634 21.201-8.968 13.347-6.473 26.336-13.694 37.883-23.338 10.248-8.562 17.519-18.094 17-31.6-.26-6.789-4.272-12.581-11.06-15.777-4.965-2.341-8.87-5.399-15.049-8.102-6.104-2.669-14.262-1.812-20.744-2.886-6.807-1.127-14.979-.038-21.676-.917-7.992-1.05-14.062 1.446-21.523 4.346-8.594 3.341-17.934 4.092-26.148 7.807-14.626 6.614-30.17 11.7-39.764 25.685-2.606 3.798-3.786 6.318-6.853 9.792-2.508 2.84-6.263 7.681-6.972 12.124-1.063 6.672 2.111 21.064 7.955 25.503z"/><path fill="none" stroke="#DF4944" stroke-width="2" stroke-miterlimit="10" d="M86.762 72.506c-14.473 4.877-14.99 17.178-7.234 26.725 9.711 11.953 31.606-.823 22.188-20.228-3.207-6.607-10.288-8.069-14.954-6.497zm6.967-65.6c-4.062 1.369-4.208 4.821-2.031 7.501 2.728 3.356 8.873-.231 6.229-5.678-.901-1.855-2.886-2.265-4.198-1.823zM8.954 52.786c-4.062 1.369-4.207 4.821-2.03 7.501 2.726 3.354 8.873-.232 6.229-5.678-.902-1.855-2.889-2.266-4.199-1.823zm15.33 58.446c-4.062 1.369-4.208 4.822-2.031 7.502 2.727 3.354 8.873-.23 6.229-5.678-.901-1.854-2.888-2.264-4.198-1.824zm97.693-4.796c-4.063 1.369-4.209 4.819-2.031 7.502 2.726 3.354 8.873-.231 6.229-5.679-.901-1.855-2.888-2.265-4.198-1.823zm-33.718 58.845c-4.061 1.367-4.207 4.818-2.03 7.501 2.728 3.354 8.873-.232 6.229-5.679-.901-1.854-2.887-2.265-4.199-1.822zm73.826-116.584c-4.062 1.369-4.209 4.821-2.03 7.501 2.726 3.354 8.873-.231 6.229-5.678-.902-1.854-2.889-2.265-4.199-1.823zm-12.721 34.112c-4.062 1.369-4.206 4.821-2.03 7.501 2.728 3.354 8.873-.231 6.229-5.68-.901-1.852-2.89-2.263-4.199-1.821z"/></svg>