<svg xmlns="http://www.w3.org/2000/svg" width="29.167" height="29.166"><g fill="#DF4944"><path d="M23.839 13.541H5.329C2.384 13.541 0 16.037 0 19.117v4.478c0 3.075 2.385 5.571 5.329 5.571H23.84c2.942 0 5.327-2.496 5.327-5.571v-4.478c0-3.08-2.385-5.576-5.328-5.576M9.218 17.028H7.497v8.943H5.833v-8.943H4.115v-1.521h5.104v1.521zm4.861 8.944h-1.476v-.847c-.273.312-.555.553-.85.713a1.72 1.72 0 0 1-.859.246c-.342 0-.596-.112-.77-.345-.171-.23-.26-.571-.26-1.034V18.25h1.477v5.925c0 .182.031.312.09.395.064.083.166.123.304.123.106 0 .245-.054.413-.163.165-.109.318-.246.455-.415V18.25h1.476v7.722zm5.354-1.595c0 .545-.115.965-.348 1.257-.229.292-.565.437-1.002.437a1.68 1.68 0 0 1-.772-.169 1.918 1.918 0 0 1-.632-.522v.593H15.19V15.508h1.489v3.369c.201-.233.412-.414.633-.535.226-.125.451-.186.682-.186.467 0 .824.163 1.069.493.247.33.37.81.37 1.444v4.284zm5.115-2.08h-2.822v1.455c0 .406.049.688.146.846.097.159.265.234.501.234.245 0 .414-.065.514-.199.095-.135.146-.428.146-.881v-.353h1.517v.397c0 .791-.182 1.386-.556 1.789-.366.397-.919.597-1.653.597-.664 0-1.186-.211-1.563-.636-.378-.422-.57-1.008-.57-1.75v-3.469c0-.668.209-1.216.63-1.637.416-.421.95-.632 1.613-.632.676 0 1.193.194 1.557.586s.543.951.543 1.683v1.97z"/><path d="M22.384 19.41c-.234 0-.403.07-.504.213-.104.137-.153.369-.153.693v.779h1.304v-.779c0-.324-.053-.557-.154-.693-.1-.143-.267-.213-.493-.213m-5.088-.025a.715.715 0 0 0-.312.072 1.1 1.1 0 0 0-.304.237v4.81c.119.125.235.221.349.276a.866.866 0 0 0 .357.081c.181 0 .312-.054.398-.165.084-.108.127-.284.127-.532v-3.986c0-.262-.051-.457-.153-.592-.108-.134-.262-.201-.462-.201M5.526 0l2.225 6.807v4.463h1.872V6.596L11.8 0H9.897L8.741 4.506h-.118L7.408 0zm7.077 3.318c-.443.382-.668.893-.668 1.539v4.31c0 .706.218 1.267.65 1.686.439.417 1.021.629 1.748.629.754 0 1.346-.204 1.778-.608.427-.408.644-.963.644-1.673V4.906c0-.633-.219-1.155-.656-1.557-.441-.4-1.003-.603-1.692-.603-.754.001-1.357.192-1.804.572m2.461 1.475v4.531c0 .221-.068.398-.199.525-.133.127-.314.19-.537.19-.221 0-.39-.06-.508-.188-.117-.126-.176-.302-.176-.528v-4.53a.57.57 0 0 1 .188-.44.735.735 0 0 1 .496-.165c.219 0 .396.055.531.165a.544.544 0 0 1 .205.44m7.779 6.477V2.957h-1.66v6.312a2.28 2.28 0 0 1-.512.446c-.189.117-.344.175-.465.175-.156 0-.27-.043-.338-.134-.068-.088-.107-.23-.107-.426V2.957h-1.658v6.947c0 .497.098.866.291 1.113.196.248.482.374.869.374.312 0 .631-.091.963-.267.334-.178.652-.436.957-.775v.92h1.66z"/></g></svg>